M48
; DRILL file {KiCad 7.0.8} date Di 07 Nov 2023 23:01:59
; FORMAT={-:-/ absolute / inch / decimal}
; #@! TF.CreationDate,2023-11-07T23:01:59+01:00
; #@! TF.GenerationSoftware,Kicad,Pcbnew,7.0.8
; #@! TF.FileFunction,Plated,1,2,PTH
FMAT,2
INCH
; #@! TA.AperFunction,Plated,PTH,ViaDrill
T1C0.0157
; #@! TA.AperFunction,Plated,PTH,ComponentDrill
T2C0.0157
; #@! TA.AperFunction,Plated,PTH,ComponentDrill
T3C0.0236
; #@! TA.AperFunction,Plated,PTH,ComponentDrill
T4C0.0295
; #@! TA.AperFunction,Plated,PTH,ComponentDrill
T5C0.0374
; #@! TA.AperFunction,Plated,PTH,ComponentDrill
T6C0.0394
%
G90
G05
T1
X4.134Y-4.482
X4.206Y-4.482
X5.2746Y-4.3254
X5.4613Y-4.6248
X6.6294Y-3.8752
X7.6706Y-3.0468
T2
X4.2083Y-4.5813
X4.2083Y-4.6345
X4.2418Y-4.5813
X4.2418Y-4.6345
X4.2753Y-4.5813
X4.2753Y-4.6345
X4.3087Y-4.5813
X4.3087Y-4.6345
X4.3422Y-4.5813
X4.3422Y-4.6345
X4.3756Y-4.5813
X4.3756Y-4.6345
X4.4091Y-4.5813
X4.4091Y-4.6345
X4.4426Y-4.5813
X4.4426Y-4.6345
T4
X5.1278Y-2.762
X5.13Y-2.2358
X5.13Y-4.318
X5.1318Y-3.28
X5.1318Y-3.784
X5.1778Y-2.762
X5.18Y-2.2358
X5.18Y-4.318
X5.1818Y-3.28
X5.1818Y-3.784
X5.2278Y-2.762
X5.23Y-2.2358
X5.23Y-4.318
X5.2318Y-3.28
X5.2318Y-3.784
X5.3558Y-2.762
X5.356Y-4.318
X5.3578Y-3.784
X5.358Y-2.236
X5.3598Y-3.28
X5.4058Y-2.762
X5.406Y-4.318
X5.4078Y-3.784
X5.408Y-2.236
X5.4098Y-3.28
X5.4558Y-2.762
X5.456Y-4.318
X5.4578Y-3.784
X5.458Y-2.236
X5.4598Y-3.28
X5.58Y-4.318
X5.5818Y-2.762
X5.5818Y-3.784
X5.5858Y-3.28
X5.586Y-2.236
X5.63Y-4.318
X5.6318Y-2.762
X5.6318Y-3.784
X5.6358Y-3.28
X5.636Y-2.236
X5.68Y-4.318
X5.6818Y-2.762
X5.6818Y-3.784
X5.6858Y-3.28
X5.686Y-2.236
X5.8098Y-2.762
X5.8118Y-3.784
X5.812Y-4.318
X5.8138Y-3.28
X5.814Y-2.236
X5.8598Y-2.762
X5.8618Y-3.784
X5.862Y-4.318
X5.8638Y-3.28
X5.864Y-2.236
X5.9098Y-2.762
X5.9118Y-3.784
X5.912Y-4.318
X5.9138Y-3.28
X5.914Y-2.236
X6.0378Y-2.762
X6.0398Y-3.784
X6.04Y-2.236
X6.04Y-4.318
X6.0418Y-3.28
X6.0878Y-2.762
X6.0898Y-3.784
X6.09Y-2.236
X6.09Y-4.318
X6.0918Y-3.28
X6.1378Y-2.762
X6.1398Y-3.784
X6.14Y-2.236
X6.14Y-4.318
X6.1418Y-3.28
X6.2618Y-2.762
X6.264Y-2.236
X6.2658Y-3.784
X6.266Y-4.318
X6.2678Y-3.28
X6.3118Y-2.762
X6.314Y-2.236
X6.3158Y-3.784
X6.316Y-4.318
X6.3178Y-3.28
X6.3618Y-2.762
X6.364Y-2.236
X6.3658Y-3.784
X6.366Y-4.318
X6.3678Y-3.28
X6.4878Y-2.762
X6.488Y-2.236
X6.4898Y-3.784
X6.49Y-4.318
X6.4938Y-3.28
X6.5378Y-2.762
X6.538Y-2.236
X6.5398Y-3.784
X6.54Y-4.318
X6.5438Y-3.28
X6.5878Y-2.762
X6.588Y-2.236
X6.5898Y-3.784
X6.59Y-4.318
X6.5938Y-3.28
X6.712Y-2.236
X6.7138Y-2.762
X6.7178Y-3.784
X6.718Y-4.318
X6.7198Y-3.28
X6.762Y-2.236
X6.7638Y-2.762
X6.7678Y-3.784
X6.768Y-4.318
X6.7698Y-3.28
X6.812Y-2.236
X6.8138Y-2.762
X6.8178Y-3.784
X6.818Y-4.318
X6.8198Y-3.28
X6.936Y-2.236
X6.9398Y-2.762
X6.9438Y-3.784
X6.944Y-4.318
X6.9458Y-3.28
X6.986Y-2.236
X6.9898Y-2.762
X6.9938Y-3.784
X6.994Y-4.318
X6.9958Y-3.28
X7.036Y-2.236
X7.0398Y-2.762
X7.0438Y-3.784
X7.044Y-4.318
X7.0458Y-3.28
X7.16Y-2.236
X7.1638Y-2.762
X7.1678Y-3.784
X7.168Y-4.318
X7.1698Y-3.28
X7.21Y-2.236
X7.2138Y-2.762
X7.2178Y-3.784
X7.218Y-4.318
X7.2198Y-3.28
X7.26Y-2.236
X7.2638Y-2.762
X7.2678Y-3.784
X7.268Y-4.318
X7.2698Y-3.28
X7.554Y-2.238
X7.558Y-2.526
X7.56Y-2.816
X7.56Y-3.106
X7.56Y-3.396
X7.604Y-2.238
X7.608Y-2.526
X7.61Y-2.816
X7.61Y-3.106
X7.61Y-3.396
X7.654Y-2.238
X7.658Y-2.526
X7.66Y-2.816
X7.66Y-3.106
X7.66Y-3.396
T5
X4.2399Y-2.2002
X4.2399Y-2.7002
X4.2399Y-3.212
X4.2399Y-3.7002
X4.2399Y-4.2002
X4.3384Y-2.2002
X4.3384Y-2.7002
X4.3384Y-3.212
X4.3384Y-3.7002
X4.3384Y-4.2002
X4.4368Y-2.2002
X4.4368Y-2.7002
X4.4368Y-3.212
X4.4368Y-3.7002
X4.4368Y-4.2002
X4.5352Y-2.2002
X4.5352Y-2.7002
X4.5352Y-3.212
X4.5352Y-3.7002
X4.5352Y-4.2002
X4.6336Y-2.2002
X4.6336Y-2.7002
X4.6336Y-3.212
X4.6336Y-3.7002
X4.6336Y-4.2002
X4.7321Y-2.2002
X4.7321Y-2.7002
X4.7321Y-3.212
X4.7321Y-3.7002
X4.7321Y-4.2002
X4.7467Y-4.83
X4.8451Y-4.83
X4.9436Y-4.83
X5.042Y-4.83
X5.5247Y-4.936
X5.6231Y-4.936
X5.7216Y-4.936
X5.82Y-4.936
X5.9184Y-4.936
X6.0169Y-4.936
X6.1153Y-4.936
X6.2137Y-4.936
X6.3121Y-4.936
X6.4106Y-4.936
X6.509Y-4.936
X6.6074Y-4.936
X6.7058Y-4.936
X6.8043Y-4.936
X6.9027Y-4.936
T6
X5.694Y-3.028
X5.696Y-2.492
X5.738Y-4.038
X5.7438Y-3.528
X5.75Y-4.716
X5.794Y-3.028
X5.796Y-2.492
X5.838Y-4.038
X5.8438Y-3.528
X5.85Y-4.716
X5.894Y-3.028
X5.896Y-2.492
X5.938Y-4.038
X5.9438Y-3.528
X5.95Y-4.716
X5.994Y-3.028
X5.996Y-2.492
X6.038Y-4.038
X6.0438Y-3.528
X6.05Y-4.716
X6.094Y-3.028
X6.096Y-2.492
X6.138Y-4.038
X6.1438Y-3.528
X6.15Y-4.716
X6.194Y-3.028
X6.196Y-2.492
X6.238Y-4.038
X6.2438Y-3.528
X6.25Y-4.716
X6.294Y-3.028
X6.296Y-2.492
X6.338Y-4.038
X6.3438Y-3.528
X6.35Y-4.716
X6.394Y-3.028
X6.396Y-2.492
X6.438Y-4.038
X6.4438Y-3.528
X6.45Y-4.716
X6.494Y-3.028
X6.496Y-2.492
X6.538Y-4.038
X6.5438Y-3.528
X6.55Y-4.716
X6.594Y-3.028
X6.596Y-2.492
X6.638Y-4.038
X6.6438Y-3.528
X6.65Y-4.716
T3
G00X4.1552Y-4.5904
M15
G01X4.1552Y-4.6495
M16
G05
G00X4.1552Y-4.7373
M15
G01X4.1552Y-4.7687
M16
G05
G00X4.4957Y-4.5904
M15
G01X4.4957Y-4.6495
M16
G05
G00X4.4957Y-4.7373
M15
G01X4.4957Y-4.7687
M16
G05
T0
M30
