%TF.GenerationSoftware,KiCad,Pcbnew,7.0.8*%
%TF.CreationDate,2023-11-07T23:02:09+01:00*%
%TF.ProjectId,Schaltplan,53636861-6c74-4706-9c61-6e2e6b696361,rev?*%
%TF.SameCoordinates,Original*%
%TF.FileFunction,Soldermask,Top*%
%TF.FilePolarity,Negative*%
%FSLAX46Y46*%
G04 Gerber Fmt 4.6, Leading zero omitted, Abs format (unit mm)*
G04 Created by KiCad (PCBNEW 7.0.8) date 2023-11-07 23:02:09*
%MOMM*%
%LPD*%
G01*
G04 APERTURE LIST*
G04 Aperture macros list*
%AMRoundRect*
0 Rectangle with rounded corners*
0 $1 Rounding radius*
0 $2 $3 $4 $5 $6 $7 $8 $9 X,Y pos of 4 corners*
0 Add a 4 corners polygon primitive as box body*
4,1,4,$2,$3,$4,$5,$6,$7,$8,$9,$2,$3,0*
0 Add four circle primitives for the rounded corners*
1,1,$1+$1,$2,$3*
1,1,$1+$1,$4,$5*
1,1,$1+$1,$6,$7*
1,1,$1+$1,$8,$9*
0 Add four rect primitives between the rounded corners*
20,1,$1+$1,$2,$3,$4,$5,0*
20,1,$1+$1,$4,$5,$6,$7,0*
20,1,$1+$1,$6,$7,$8,$9,0*
20,1,$1+$1,$8,$9,$2,$3,0*%
G04 Aperture macros list end*
%ADD10R,1.700000X1.700000*%
%ADD11O,1.700000X1.700000*%
%ADD12R,1.050000X1.500000*%
%ADD13O,1.050000X1.500000*%
%ADD14RoundRect,0.250000X-0.600000X-0.725000X0.600000X-0.725000X0.600000X0.725000X-0.600000X0.725000X0*%
%ADD15O,1.700000X1.950000*%
%ADD16RoundRect,0.100000X-0.130000X-0.100000X0.130000X-0.100000X0.130000X0.100000X-0.130000X0.100000X0*%
%ADD17C,0.700000*%
%ADD18O,0.900000X2.400000*%
%ADD19O,0.900000X1.700000*%
G04 APERTURE END LIST*
D10*
%TO.C,J58*%
X144627600Y-76911200D03*
D11*
X147167600Y-76911200D03*
X149707600Y-76911200D03*
X152247600Y-76911200D03*
X154787600Y-76911200D03*
X157327600Y-76911200D03*
X159867600Y-76911200D03*
X162407600Y-76911200D03*
X164947600Y-76911200D03*
X167487600Y-76911200D03*
%TD*%
D12*
%TO.C,Q13*%
X136088200Y-96113600D03*
D13*
X137358200Y-96113600D03*
X138628200Y-96113600D03*
%TD*%
D12*
%TO.C,Q32*%
X159049800Y-70154800D03*
D13*
X160319800Y-70154800D03*
X161589800Y-70154800D03*
%TD*%
D12*
%TO.C,Q14*%
X192024000Y-86258400D03*
D13*
X193294000Y-86258400D03*
X194564000Y-86258400D03*
%TD*%
D12*
%TO.C,Q35*%
X159156400Y-109677200D03*
D13*
X160426400Y-109677200D03*
X161696400Y-109677200D03*
%TD*%
D12*
%TO.C,Q16*%
X136042400Y-109677200D03*
D13*
X137312400Y-109677200D03*
X138582400Y-109677200D03*
%TD*%
D12*
%TO.C,Q24*%
X147619800Y-96113600D03*
D13*
X148889800Y-96113600D03*
X150159800Y-96113600D03*
%TD*%
D12*
%TO.C,Q40*%
X164846000Y-109677200D03*
D13*
X166116000Y-109677200D03*
X167386000Y-109677200D03*
%TD*%
D12*
%TO.C,Q10*%
X136139000Y-83312000D03*
D13*
X137409000Y-83312000D03*
X138679000Y-83312000D03*
%TD*%
D12*
%TO.C,Q11*%
X192024000Y-78892400D03*
D13*
X193294000Y-78892400D03*
X194564000Y-78892400D03*
%TD*%
D12*
%TO.C,Q1*%
X191871600Y-56845200D03*
D13*
X193141600Y-56845200D03*
X194411600Y-56845200D03*
%TD*%
D12*
%TO.C,Q44*%
X170632200Y-96113600D03*
D13*
X171902200Y-96113600D03*
X173172200Y-96113600D03*
%TD*%
D12*
%TO.C,Q29*%
X153411000Y-96113600D03*
D13*
X154681000Y-96113600D03*
X155951000Y-96113600D03*
%TD*%
D14*
%TO.C,J52*%
X107694400Y-68584800D03*
D15*
X110194400Y-68584800D03*
X112694400Y-68584800D03*
X115194400Y-68584800D03*
X117694400Y-68584800D03*
X120194400Y-68584800D03*
%TD*%
D16*
%TO.C,R3*%
X132177000Y-115620800D03*
X132817000Y-115620800D03*
%TD*%
D12*
%TO.C,Q15*%
X130302000Y-109677200D03*
D13*
X131572000Y-109677200D03*
X132842000Y-109677200D03*
%TD*%
D12*
%TO.C,Q17*%
X141777800Y-70154800D03*
D13*
X143047800Y-70154800D03*
X144317800Y-70154800D03*
%TD*%
D12*
%TO.C,Q52*%
X181960600Y-70154800D03*
D13*
X183230600Y-70154800D03*
X184500600Y-70154800D03*
%TD*%
D12*
%TO.C,Q55*%
X182067200Y-109677200D03*
D13*
X183337200Y-109677200D03*
X184607200Y-109677200D03*
%TD*%
D16*
%TO.C,R11*%
X161071600Y-115570000D03*
X161711600Y-115570000D03*
%TD*%
D12*
%TO.C,Q37*%
X164790200Y-70154800D03*
D13*
X166060200Y-70154800D03*
X167330200Y-70154800D03*
%TD*%
D14*
%TO.C,J3*%
X140328000Y-125374400D03*
D15*
X142828000Y-125374400D03*
X145328000Y-125374400D03*
X147828000Y-125374400D03*
X150328000Y-125374400D03*
X152828000Y-125374400D03*
X155328000Y-125374400D03*
X157828000Y-125374400D03*
X160328000Y-125374400D03*
X162828000Y-125374400D03*
X165328000Y-125374400D03*
X167828000Y-125374400D03*
X170328000Y-125374400D03*
X172828000Y-125374400D03*
X175328000Y-125374400D03*
%TD*%
D12*
%TO.C,Q33*%
X159202200Y-83312000D03*
D13*
X160472200Y-83312000D03*
X161742200Y-83312000D03*
%TD*%
D16*
%TO.C,R4*%
X137968200Y-115570000D03*
X138608200Y-115570000D03*
%TD*%
%TO.C,R14*%
X178252600Y-115620800D03*
X178892600Y-115620800D03*
%TD*%
D12*
%TO.C,Q51*%
X181864000Y-56794400D03*
D13*
X183134000Y-56794400D03*
X184404000Y-56794400D03*
%TD*%
D12*
%TO.C,Q47*%
X176271000Y-70154800D03*
D13*
X177541000Y-70154800D03*
X178811000Y-70154800D03*
%TD*%
D12*
%TO.C,Q18*%
X141879400Y-83312000D03*
D13*
X143149400Y-83312000D03*
X144419400Y-83312000D03*
%TD*%
D16*
%TO.C,R1*%
X193786800Y-59944000D03*
X194426800Y-59944000D03*
%TD*%
%TO.C,R6*%
X193939200Y-82296000D03*
X194579200Y-82296000D03*
%TD*%
D12*
%TO.C,Q48*%
X176423400Y-83312000D03*
D13*
X177693400Y-83312000D03*
X178963400Y-83312000D03*
%TD*%
D10*
%TO.C,J60*%
X145745200Y-102565200D03*
D11*
X148285200Y-102565200D03*
X150825200Y-102565200D03*
X153365200Y-102565200D03*
X155905200Y-102565200D03*
X158445200Y-102565200D03*
X160985200Y-102565200D03*
X163525200Y-102565200D03*
X166065200Y-102565200D03*
X168605200Y-102565200D03*
%TD*%
D12*
%TO.C,Q34*%
X159151400Y-96113600D03*
D13*
X160421400Y-96113600D03*
X161691400Y-96113600D03*
%TD*%
D12*
%TO.C,Q21*%
X147675600Y-56794400D03*
D13*
X148945600Y-56794400D03*
X150215600Y-56794400D03*
%TD*%
D14*
%TO.C,J2*%
X120566800Y-122682000D03*
D15*
X123066800Y-122682000D03*
X125566800Y-122682000D03*
X128066800Y-122682000D03*
%TD*%
D12*
%TO.C,Q8*%
X192024000Y-71526400D03*
D13*
X193294000Y-71526400D03*
X194564000Y-71526400D03*
%TD*%
D12*
%TO.C,Q38*%
X164942600Y-83312000D03*
D13*
X166212600Y-83312000D03*
X167482600Y-83312000D03*
%TD*%
D12*
%TO.C,Q5*%
X136093200Y-56794400D03*
D13*
X137363200Y-56794400D03*
X138633200Y-56794400D03*
%TD*%
D12*
%TO.C,Q23*%
X147670600Y-83312000D03*
D13*
X148940600Y-83312000D03*
X150210600Y-83312000D03*
%TD*%
D16*
%TO.C,R5*%
X193939200Y-74777600D03*
X194579200Y-74777600D03*
%TD*%
D12*
%TO.C,Q36*%
X164795200Y-56794400D03*
D13*
X166065200Y-56794400D03*
X167335200Y-56794400D03*
%TD*%
D16*
%TO.C,R9*%
X149529400Y-115570000D03*
X150169400Y-115570000D03*
%TD*%
D12*
%TO.C,Q42*%
X170530600Y-70154800D03*
D13*
X171800600Y-70154800D03*
X173070600Y-70154800D03*
%TD*%
D16*
%TO.C,R12*%
X166725600Y-115570000D03*
X167365600Y-115570000D03*
%TD*%
%TO.C,R2*%
X193822400Y-67360800D03*
X194462400Y-67360800D03*
%TD*%
D12*
%TO.C,Q9*%
X130347800Y-83312000D03*
D13*
X131617800Y-83312000D03*
X132887800Y-83312000D03*
%TD*%
D12*
%TO.C,Q22*%
X147569000Y-70154800D03*
D13*
X148839000Y-70154800D03*
X150109000Y-70154800D03*
%TD*%
D12*
%TO.C,Q54*%
X182062200Y-96113600D03*
D13*
X183332200Y-96113600D03*
X184602200Y-96113600D03*
%TD*%
D14*
%TO.C,J55*%
X107694400Y-106684800D03*
D15*
X110194400Y-106684800D03*
X112694400Y-106684800D03*
X115194400Y-106684800D03*
X117694400Y-106684800D03*
X120194400Y-106684800D03*
%TD*%
D12*
%TO.C,Q25*%
X147624800Y-109677200D03*
D13*
X148894800Y-109677200D03*
X150164800Y-109677200D03*
%TD*%
D16*
%TO.C,R13*%
X172541800Y-115620800D03*
X173181800Y-115620800D03*
%TD*%
D12*
%TO.C,Q45*%
X170637200Y-109677200D03*
D13*
X171907200Y-109677200D03*
X173177200Y-109677200D03*
%TD*%
D12*
%TO.C,Q53*%
X182113000Y-83312000D03*
D13*
X183383000Y-83312000D03*
X184653000Y-83312000D03*
%TD*%
D12*
%TO.C,Q4*%
X130246200Y-70154800D03*
D13*
X131516200Y-70154800D03*
X132786200Y-70154800D03*
%TD*%
D16*
%TO.C,R15*%
X183993000Y-115620800D03*
X184633000Y-115620800D03*
%TD*%
D12*
%TO.C,Q20*%
X141732000Y-109677200D03*
D13*
X143002000Y-109677200D03*
X144272000Y-109677200D03*
%TD*%
D12*
%TO.C,Q30*%
X153416000Y-109677200D03*
D13*
X154686000Y-109677200D03*
X155956000Y-109677200D03*
%TD*%
D12*
%TO.C,Q43*%
X170683000Y-83312000D03*
D13*
X171953000Y-83312000D03*
X173223000Y-83312000D03*
%TD*%
D17*
%TO.C,P1*%
X106891400Y-116366200D03*
X107741400Y-116366200D03*
X108591400Y-116366200D03*
X109441400Y-116366200D03*
X110291400Y-116366200D03*
X111141400Y-116366200D03*
X111991400Y-116366200D03*
X112841400Y-116366200D03*
X112841400Y-117716200D03*
X111991400Y-117716200D03*
X111141400Y-117716200D03*
X110291400Y-117716200D03*
X109441400Y-117716200D03*
X108591400Y-117716200D03*
X107741400Y-117716200D03*
X106891400Y-117716200D03*
D18*
X105541400Y-117346200D03*
D19*
X105541400Y-120726200D03*
D18*
X114191400Y-117346200D03*
D19*
X114191400Y-120726200D03*
%TD*%
D12*
%TO.C,Q2*%
X191973200Y-64160400D03*
D13*
X193243200Y-64160400D03*
X194513200Y-64160400D03*
%TD*%
D10*
%TO.C,J59*%
X145892600Y-89611200D03*
D11*
X148432600Y-89611200D03*
X150972600Y-89611200D03*
X153512600Y-89611200D03*
X156052600Y-89611200D03*
X158592600Y-89611200D03*
X161132600Y-89611200D03*
X163672600Y-89611200D03*
X166212600Y-89611200D03*
X168752600Y-89611200D03*
%TD*%
D12*
%TO.C,Q28*%
X153461800Y-83312000D03*
D13*
X154731800Y-83312000D03*
X156001800Y-83312000D03*
%TD*%
D12*
%TO.C,Q41*%
X170484800Y-56794400D03*
D13*
X171754800Y-56794400D03*
X173024800Y-56794400D03*
%TD*%
D12*
%TO.C,Q12*%
X130347800Y-96113600D03*
D13*
X131617800Y-96113600D03*
X132887800Y-96113600D03*
%TD*%
D12*
%TO.C,Q27*%
X153360200Y-70154800D03*
D13*
X154630200Y-70154800D03*
X155900200Y-70154800D03*
%TD*%
D16*
%TO.C,R8*%
X143556200Y-115570000D03*
X144196200Y-115570000D03*
%TD*%
D12*
%TO.C,Q26*%
X153416000Y-56794400D03*
D13*
X154686000Y-56794400D03*
X155956000Y-56794400D03*
%TD*%
D12*
%TO.C,Q46*%
X176174400Y-56794400D03*
D13*
X177444400Y-56794400D03*
X178714400Y-56794400D03*
%TD*%
D12*
%TO.C,Q19*%
X141777800Y-96113600D03*
D13*
X143047800Y-96113600D03*
X144317800Y-96113600D03*
%TD*%
D14*
%TO.C,J53*%
X107694400Y-81584800D03*
D15*
X110194400Y-81584800D03*
X112694400Y-81584800D03*
X115194400Y-81584800D03*
X117694400Y-81584800D03*
X120194400Y-81584800D03*
%TD*%
D12*
%TO.C,Q6*%
X136037400Y-70154800D03*
D13*
X137307400Y-70154800D03*
X138577400Y-70154800D03*
%TD*%
D10*
%TO.C,J61*%
X146050000Y-119786400D03*
D11*
X148590000Y-119786400D03*
X151130000Y-119786400D03*
X153670000Y-119786400D03*
X156210000Y-119786400D03*
X158750000Y-119786400D03*
X161290000Y-119786400D03*
X163830000Y-119786400D03*
X166370000Y-119786400D03*
X168910000Y-119786400D03*
%TD*%
D12*
%TO.C,Q3*%
X130302000Y-56790000D03*
D13*
X131572000Y-56790000D03*
X132842000Y-56790000D03*
%TD*%
D12*
%TO.C,Q31*%
X159105600Y-56794400D03*
D13*
X160375600Y-56794400D03*
X161645600Y-56794400D03*
%TD*%
D16*
%TO.C,R7*%
X193954400Y-89966800D03*
X194594400Y-89966800D03*
%TD*%
D14*
%TO.C,J54*%
X107694400Y-93984800D03*
D15*
X110194400Y-93984800D03*
X112694400Y-93984800D03*
X115194400Y-93984800D03*
X117694400Y-93984800D03*
X120194400Y-93984800D03*
%TD*%
D12*
%TO.C,Q50*%
X176377600Y-109677200D03*
D13*
X177647600Y-109677200D03*
X178917600Y-109677200D03*
%TD*%
D12*
%TO.C,Q39*%
X164841000Y-96113600D03*
D13*
X166111000Y-96113600D03*
X167381000Y-96113600D03*
%TD*%
D10*
%TO.C,J57*%
X144678400Y-63296800D03*
D11*
X147218400Y-63296800D03*
X149758400Y-63296800D03*
X152298400Y-63296800D03*
X154838400Y-63296800D03*
X157378400Y-63296800D03*
X159918400Y-63296800D03*
X162458400Y-63296800D03*
X164998400Y-63296800D03*
X167538400Y-63296800D03*
%TD*%
D14*
%TO.C,J51*%
X107694400Y-55884800D03*
D15*
X110194400Y-55884800D03*
X112694400Y-55884800D03*
X115194400Y-55884800D03*
X117694400Y-55884800D03*
X120194400Y-55884800D03*
%TD*%
D16*
%TO.C,R10*%
X155371400Y-115620800D03*
X156011400Y-115620800D03*
%TD*%
D12*
%TO.C,Q7*%
X141884400Y-56794400D03*
D13*
X143154400Y-56794400D03*
X144424400Y-56794400D03*
%TD*%
D12*
%TO.C,Q49*%
X176372600Y-96113600D03*
D13*
X177642600Y-96113600D03*
X178912600Y-96113600D03*
%TD*%
M02*
