%TF.GenerationSoftware,KiCad,Pcbnew,7.0.8*%
%TF.CreationDate,2023-11-07T23:02:09+01:00*%
%TF.ProjectId,Schaltplan,53636861-6c74-4706-9c61-6e2e6b696361,rev?*%
%TF.SameCoordinates,Original*%
%TF.FileFunction,Legend,Top*%
%TF.FilePolarity,Positive*%
%FSLAX46Y46*%
G04 Gerber Fmt 4.6, Leading zero omitted, Abs format (unit mm)*
G04 Created by KiCad (PCBNEW 7.0.8) date 2023-11-07 23:02:09*
%MOMM*%
%LPD*%
G01*
G04 APERTURE LIST*
%ADD10C,0.150000*%
%ADD11C,0.120000*%
G04 APERTURE END LIST*
D10*
X141752419Y-77720723D02*
X142466704Y-77720723D01*
X142466704Y-77720723D02*
X142609561Y-77768342D01*
X142609561Y-77768342D02*
X142704800Y-77863580D01*
X142704800Y-77863580D02*
X142752419Y-78006437D01*
X142752419Y-78006437D02*
X142752419Y-78101675D01*
X141752419Y-76768342D02*
X141752419Y-77244532D01*
X141752419Y-77244532D02*
X142228609Y-77292151D01*
X142228609Y-77292151D02*
X142180990Y-77244532D01*
X142180990Y-77244532D02*
X142133371Y-77149294D01*
X142133371Y-77149294D02*
X142133371Y-76911199D01*
X142133371Y-76911199D02*
X142180990Y-76815961D01*
X142180990Y-76815961D02*
X142228609Y-76768342D01*
X142228609Y-76768342D02*
X142323847Y-76720723D01*
X142323847Y-76720723D02*
X142561942Y-76720723D01*
X142561942Y-76720723D02*
X142657180Y-76768342D01*
X142657180Y-76768342D02*
X142704800Y-76815961D01*
X142704800Y-76815961D02*
X142752419Y-76911199D01*
X142752419Y-76911199D02*
X142752419Y-77149294D01*
X142752419Y-77149294D02*
X142704800Y-77244532D01*
X142704800Y-77244532D02*
X142657180Y-77292151D01*
X142180990Y-76149294D02*
X142133371Y-76244532D01*
X142133371Y-76244532D02*
X142085752Y-76292151D01*
X142085752Y-76292151D02*
X141990514Y-76339770D01*
X141990514Y-76339770D02*
X141942895Y-76339770D01*
X141942895Y-76339770D02*
X141847657Y-76292151D01*
X141847657Y-76292151D02*
X141800038Y-76244532D01*
X141800038Y-76244532D02*
X141752419Y-76149294D01*
X141752419Y-76149294D02*
X141752419Y-75958818D01*
X141752419Y-75958818D02*
X141800038Y-75863580D01*
X141800038Y-75863580D02*
X141847657Y-75815961D01*
X141847657Y-75815961D02*
X141942895Y-75768342D01*
X141942895Y-75768342D02*
X141990514Y-75768342D01*
X141990514Y-75768342D02*
X142085752Y-75815961D01*
X142085752Y-75815961D02*
X142133371Y-75863580D01*
X142133371Y-75863580D02*
X142180990Y-75958818D01*
X142180990Y-75958818D02*
X142180990Y-76149294D01*
X142180990Y-76149294D02*
X142228609Y-76244532D01*
X142228609Y-76244532D02*
X142276228Y-76292151D01*
X142276228Y-76292151D02*
X142371466Y-76339770D01*
X142371466Y-76339770D02*
X142561942Y-76339770D01*
X142561942Y-76339770D02*
X142657180Y-76292151D01*
X142657180Y-76292151D02*
X142704800Y-76244532D01*
X142704800Y-76244532D02*
X142752419Y-76149294D01*
X142752419Y-76149294D02*
X142752419Y-75958818D01*
X142752419Y-75958818D02*
X142704800Y-75863580D01*
X142704800Y-75863580D02*
X142657180Y-75815961D01*
X142657180Y-75815961D02*
X142561942Y-75768342D01*
X142561942Y-75768342D02*
X142371466Y-75768342D01*
X142371466Y-75768342D02*
X142276228Y-75815961D01*
X142276228Y-75815961D02*
X142228609Y-75863580D01*
X142228609Y-75863580D02*
X142180990Y-75958818D01*
X136786771Y-93103657D02*
X136691533Y-93056038D01*
X136691533Y-93056038D02*
X136596295Y-92960800D01*
X136596295Y-92960800D02*
X136453438Y-92817942D01*
X136453438Y-92817942D02*
X136358200Y-92770323D01*
X136358200Y-92770323D02*
X136262962Y-92770323D01*
X136310581Y-93008419D02*
X136215343Y-92960800D01*
X136215343Y-92960800D02*
X136120105Y-92865561D01*
X136120105Y-92865561D02*
X136072486Y-92675085D01*
X136072486Y-92675085D02*
X136072486Y-92341752D01*
X136072486Y-92341752D02*
X136120105Y-92151276D01*
X136120105Y-92151276D02*
X136215343Y-92056038D01*
X136215343Y-92056038D02*
X136310581Y-92008419D01*
X136310581Y-92008419D02*
X136501057Y-92008419D01*
X136501057Y-92008419D02*
X136596295Y-92056038D01*
X136596295Y-92056038D02*
X136691533Y-92151276D01*
X136691533Y-92151276D02*
X136739152Y-92341752D01*
X136739152Y-92341752D02*
X136739152Y-92675085D01*
X136739152Y-92675085D02*
X136691533Y-92865561D01*
X136691533Y-92865561D02*
X136596295Y-92960800D01*
X136596295Y-92960800D02*
X136501057Y-93008419D01*
X136501057Y-93008419D02*
X136310581Y-93008419D01*
X137691533Y-93008419D02*
X137120105Y-93008419D01*
X137405819Y-93008419D02*
X137405819Y-92008419D01*
X137405819Y-92008419D02*
X137310581Y-92151276D01*
X137310581Y-92151276D02*
X137215343Y-92246514D01*
X137215343Y-92246514D02*
X137120105Y-92294133D01*
X138024867Y-92008419D02*
X138643914Y-92008419D01*
X138643914Y-92008419D02*
X138310581Y-92389371D01*
X138310581Y-92389371D02*
X138453438Y-92389371D01*
X138453438Y-92389371D02*
X138548676Y-92436990D01*
X138548676Y-92436990D02*
X138596295Y-92484609D01*
X138596295Y-92484609D02*
X138643914Y-92579847D01*
X138643914Y-92579847D02*
X138643914Y-92817942D01*
X138643914Y-92817942D02*
X138596295Y-92913180D01*
X138596295Y-92913180D02*
X138548676Y-92960800D01*
X138548676Y-92960800D02*
X138453438Y-93008419D01*
X138453438Y-93008419D02*
X138167724Y-93008419D01*
X138167724Y-93008419D02*
X138072486Y-92960800D01*
X138072486Y-92960800D02*
X138024867Y-92913180D01*
X159748371Y-67144857D02*
X159653133Y-67097238D01*
X159653133Y-67097238D02*
X159557895Y-67002000D01*
X159557895Y-67002000D02*
X159415038Y-66859142D01*
X159415038Y-66859142D02*
X159319800Y-66811523D01*
X159319800Y-66811523D02*
X159224562Y-66811523D01*
X159272181Y-67049619D02*
X159176943Y-67002000D01*
X159176943Y-67002000D02*
X159081705Y-66906761D01*
X159081705Y-66906761D02*
X159034086Y-66716285D01*
X159034086Y-66716285D02*
X159034086Y-66382952D01*
X159034086Y-66382952D02*
X159081705Y-66192476D01*
X159081705Y-66192476D02*
X159176943Y-66097238D01*
X159176943Y-66097238D02*
X159272181Y-66049619D01*
X159272181Y-66049619D02*
X159462657Y-66049619D01*
X159462657Y-66049619D02*
X159557895Y-66097238D01*
X159557895Y-66097238D02*
X159653133Y-66192476D01*
X159653133Y-66192476D02*
X159700752Y-66382952D01*
X159700752Y-66382952D02*
X159700752Y-66716285D01*
X159700752Y-66716285D02*
X159653133Y-66906761D01*
X159653133Y-66906761D02*
X159557895Y-67002000D01*
X159557895Y-67002000D02*
X159462657Y-67049619D01*
X159462657Y-67049619D02*
X159272181Y-67049619D01*
X160034086Y-66049619D02*
X160653133Y-66049619D01*
X160653133Y-66049619D02*
X160319800Y-66430571D01*
X160319800Y-66430571D02*
X160462657Y-66430571D01*
X160462657Y-66430571D02*
X160557895Y-66478190D01*
X160557895Y-66478190D02*
X160605514Y-66525809D01*
X160605514Y-66525809D02*
X160653133Y-66621047D01*
X160653133Y-66621047D02*
X160653133Y-66859142D01*
X160653133Y-66859142D02*
X160605514Y-66954380D01*
X160605514Y-66954380D02*
X160557895Y-67002000D01*
X160557895Y-67002000D02*
X160462657Y-67049619D01*
X160462657Y-67049619D02*
X160176943Y-67049619D01*
X160176943Y-67049619D02*
X160081705Y-67002000D01*
X160081705Y-67002000D02*
X160034086Y-66954380D01*
X161034086Y-66144857D02*
X161081705Y-66097238D01*
X161081705Y-66097238D02*
X161176943Y-66049619D01*
X161176943Y-66049619D02*
X161415038Y-66049619D01*
X161415038Y-66049619D02*
X161510276Y-66097238D01*
X161510276Y-66097238D02*
X161557895Y-66144857D01*
X161557895Y-66144857D02*
X161605514Y-66240095D01*
X161605514Y-66240095D02*
X161605514Y-66335333D01*
X161605514Y-66335333D02*
X161557895Y-66478190D01*
X161557895Y-66478190D02*
X160986467Y-67049619D01*
X160986467Y-67049619D02*
X161605514Y-67049619D01*
X192722571Y-83248457D02*
X192627333Y-83200838D01*
X192627333Y-83200838D02*
X192532095Y-83105600D01*
X192532095Y-83105600D02*
X192389238Y-82962742D01*
X192389238Y-82962742D02*
X192294000Y-82915123D01*
X192294000Y-82915123D02*
X192198762Y-82915123D01*
X192246381Y-83153219D02*
X192151143Y-83105600D01*
X192151143Y-83105600D02*
X192055905Y-83010361D01*
X192055905Y-83010361D02*
X192008286Y-82819885D01*
X192008286Y-82819885D02*
X192008286Y-82486552D01*
X192008286Y-82486552D02*
X192055905Y-82296076D01*
X192055905Y-82296076D02*
X192151143Y-82200838D01*
X192151143Y-82200838D02*
X192246381Y-82153219D01*
X192246381Y-82153219D02*
X192436857Y-82153219D01*
X192436857Y-82153219D02*
X192532095Y-82200838D01*
X192532095Y-82200838D02*
X192627333Y-82296076D01*
X192627333Y-82296076D02*
X192674952Y-82486552D01*
X192674952Y-82486552D02*
X192674952Y-82819885D01*
X192674952Y-82819885D02*
X192627333Y-83010361D01*
X192627333Y-83010361D02*
X192532095Y-83105600D01*
X192532095Y-83105600D02*
X192436857Y-83153219D01*
X192436857Y-83153219D02*
X192246381Y-83153219D01*
X193627333Y-83153219D02*
X193055905Y-83153219D01*
X193341619Y-83153219D02*
X193341619Y-82153219D01*
X193341619Y-82153219D02*
X193246381Y-82296076D01*
X193246381Y-82296076D02*
X193151143Y-82391314D01*
X193151143Y-82391314D02*
X193055905Y-82438933D01*
X194484476Y-82486552D02*
X194484476Y-83153219D01*
X194246381Y-82105600D02*
X194008286Y-82819885D01*
X194008286Y-82819885D02*
X194627333Y-82819885D01*
X159854971Y-106667257D02*
X159759733Y-106619638D01*
X159759733Y-106619638D02*
X159664495Y-106524400D01*
X159664495Y-106524400D02*
X159521638Y-106381542D01*
X159521638Y-106381542D02*
X159426400Y-106333923D01*
X159426400Y-106333923D02*
X159331162Y-106333923D01*
X159378781Y-106572019D02*
X159283543Y-106524400D01*
X159283543Y-106524400D02*
X159188305Y-106429161D01*
X159188305Y-106429161D02*
X159140686Y-106238685D01*
X159140686Y-106238685D02*
X159140686Y-105905352D01*
X159140686Y-105905352D02*
X159188305Y-105714876D01*
X159188305Y-105714876D02*
X159283543Y-105619638D01*
X159283543Y-105619638D02*
X159378781Y-105572019D01*
X159378781Y-105572019D02*
X159569257Y-105572019D01*
X159569257Y-105572019D02*
X159664495Y-105619638D01*
X159664495Y-105619638D02*
X159759733Y-105714876D01*
X159759733Y-105714876D02*
X159807352Y-105905352D01*
X159807352Y-105905352D02*
X159807352Y-106238685D01*
X159807352Y-106238685D02*
X159759733Y-106429161D01*
X159759733Y-106429161D02*
X159664495Y-106524400D01*
X159664495Y-106524400D02*
X159569257Y-106572019D01*
X159569257Y-106572019D02*
X159378781Y-106572019D01*
X160140686Y-105572019D02*
X160759733Y-105572019D01*
X160759733Y-105572019D02*
X160426400Y-105952971D01*
X160426400Y-105952971D02*
X160569257Y-105952971D01*
X160569257Y-105952971D02*
X160664495Y-106000590D01*
X160664495Y-106000590D02*
X160712114Y-106048209D01*
X160712114Y-106048209D02*
X160759733Y-106143447D01*
X160759733Y-106143447D02*
X160759733Y-106381542D01*
X160759733Y-106381542D02*
X160712114Y-106476780D01*
X160712114Y-106476780D02*
X160664495Y-106524400D01*
X160664495Y-106524400D02*
X160569257Y-106572019D01*
X160569257Y-106572019D02*
X160283543Y-106572019D01*
X160283543Y-106572019D02*
X160188305Y-106524400D01*
X160188305Y-106524400D02*
X160140686Y-106476780D01*
X161664495Y-105572019D02*
X161188305Y-105572019D01*
X161188305Y-105572019D02*
X161140686Y-106048209D01*
X161140686Y-106048209D02*
X161188305Y-106000590D01*
X161188305Y-106000590D02*
X161283543Y-105952971D01*
X161283543Y-105952971D02*
X161521638Y-105952971D01*
X161521638Y-105952971D02*
X161616876Y-106000590D01*
X161616876Y-106000590D02*
X161664495Y-106048209D01*
X161664495Y-106048209D02*
X161712114Y-106143447D01*
X161712114Y-106143447D02*
X161712114Y-106381542D01*
X161712114Y-106381542D02*
X161664495Y-106476780D01*
X161664495Y-106476780D02*
X161616876Y-106524400D01*
X161616876Y-106524400D02*
X161521638Y-106572019D01*
X161521638Y-106572019D02*
X161283543Y-106572019D01*
X161283543Y-106572019D02*
X161188305Y-106524400D01*
X161188305Y-106524400D02*
X161140686Y-106476780D01*
X136740971Y-106667257D02*
X136645733Y-106619638D01*
X136645733Y-106619638D02*
X136550495Y-106524400D01*
X136550495Y-106524400D02*
X136407638Y-106381542D01*
X136407638Y-106381542D02*
X136312400Y-106333923D01*
X136312400Y-106333923D02*
X136217162Y-106333923D01*
X136264781Y-106572019D02*
X136169543Y-106524400D01*
X136169543Y-106524400D02*
X136074305Y-106429161D01*
X136074305Y-106429161D02*
X136026686Y-106238685D01*
X136026686Y-106238685D02*
X136026686Y-105905352D01*
X136026686Y-105905352D02*
X136074305Y-105714876D01*
X136074305Y-105714876D02*
X136169543Y-105619638D01*
X136169543Y-105619638D02*
X136264781Y-105572019D01*
X136264781Y-105572019D02*
X136455257Y-105572019D01*
X136455257Y-105572019D02*
X136550495Y-105619638D01*
X136550495Y-105619638D02*
X136645733Y-105714876D01*
X136645733Y-105714876D02*
X136693352Y-105905352D01*
X136693352Y-105905352D02*
X136693352Y-106238685D01*
X136693352Y-106238685D02*
X136645733Y-106429161D01*
X136645733Y-106429161D02*
X136550495Y-106524400D01*
X136550495Y-106524400D02*
X136455257Y-106572019D01*
X136455257Y-106572019D02*
X136264781Y-106572019D01*
X137645733Y-106572019D02*
X137074305Y-106572019D01*
X137360019Y-106572019D02*
X137360019Y-105572019D01*
X137360019Y-105572019D02*
X137264781Y-105714876D01*
X137264781Y-105714876D02*
X137169543Y-105810114D01*
X137169543Y-105810114D02*
X137074305Y-105857733D01*
X138502876Y-105572019D02*
X138312400Y-105572019D01*
X138312400Y-105572019D02*
X138217162Y-105619638D01*
X138217162Y-105619638D02*
X138169543Y-105667257D01*
X138169543Y-105667257D02*
X138074305Y-105810114D01*
X138074305Y-105810114D02*
X138026686Y-106000590D01*
X138026686Y-106000590D02*
X138026686Y-106381542D01*
X138026686Y-106381542D02*
X138074305Y-106476780D01*
X138074305Y-106476780D02*
X138121924Y-106524400D01*
X138121924Y-106524400D02*
X138217162Y-106572019D01*
X138217162Y-106572019D02*
X138407638Y-106572019D01*
X138407638Y-106572019D02*
X138502876Y-106524400D01*
X138502876Y-106524400D02*
X138550495Y-106476780D01*
X138550495Y-106476780D02*
X138598114Y-106381542D01*
X138598114Y-106381542D02*
X138598114Y-106143447D01*
X138598114Y-106143447D02*
X138550495Y-106048209D01*
X138550495Y-106048209D02*
X138502876Y-106000590D01*
X138502876Y-106000590D02*
X138407638Y-105952971D01*
X138407638Y-105952971D02*
X138217162Y-105952971D01*
X138217162Y-105952971D02*
X138121924Y-106000590D01*
X138121924Y-106000590D02*
X138074305Y-106048209D01*
X138074305Y-106048209D02*
X138026686Y-106143447D01*
X148318371Y-93103657D02*
X148223133Y-93056038D01*
X148223133Y-93056038D02*
X148127895Y-92960800D01*
X148127895Y-92960800D02*
X147985038Y-92817942D01*
X147985038Y-92817942D02*
X147889800Y-92770323D01*
X147889800Y-92770323D02*
X147794562Y-92770323D01*
X147842181Y-93008419D02*
X147746943Y-92960800D01*
X147746943Y-92960800D02*
X147651705Y-92865561D01*
X147651705Y-92865561D02*
X147604086Y-92675085D01*
X147604086Y-92675085D02*
X147604086Y-92341752D01*
X147604086Y-92341752D02*
X147651705Y-92151276D01*
X147651705Y-92151276D02*
X147746943Y-92056038D01*
X147746943Y-92056038D02*
X147842181Y-92008419D01*
X147842181Y-92008419D02*
X148032657Y-92008419D01*
X148032657Y-92008419D02*
X148127895Y-92056038D01*
X148127895Y-92056038D02*
X148223133Y-92151276D01*
X148223133Y-92151276D02*
X148270752Y-92341752D01*
X148270752Y-92341752D02*
X148270752Y-92675085D01*
X148270752Y-92675085D02*
X148223133Y-92865561D01*
X148223133Y-92865561D02*
X148127895Y-92960800D01*
X148127895Y-92960800D02*
X148032657Y-93008419D01*
X148032657Y-93008419D02*
X147842181Y-93008419D01*
X148651705Y-92103657D02*
X148699324Y-92056038D01*
X148699324Y-92056038D02*
X148794562Y-92008419D01*
X148794562Y-92008419D02*
X149032657Y-92008419D01*
X149032657Y-92008419D02*
X149127895Y-92056038D01*
X149127895Y-92056038D02*
X149175514Y-92103657D01*
X149175514Y-92103657D02*
X149223133Y-92198895D01*
X149223133Y-92198895D02*
X149223133Y-92294133D01*
X149223133Y-92294133D02*
X149175514Y-92436990D01*
X149175514Y-92436990D02*
X148604086Y-93008419D01*
X148604086Y-93008419D02*
X149223133Y-93008419D01*
X150080276Y-92341752D02*
X150080276Y-93008419D01*
X149842181Y-91960800D02*
X149604086Y-92675085D01*
X149604086Y-92675085D02*
X150223133Y-92675085D01*
X165544571Y-106667257D02*
X165449333Y-106619638D01*
X165449333Y-106619638D02*
X165354095Y-106524400D01*
X165354095Y-106524400D02*
X165211238Y-106381542D01*
X165211238Y-106381542D02*
X165116000Y-106333923D01*
X165116000Y-106333923D02*
X165020762Y-106333923D01*
X165068381Y-106572019D02*
X164973143Y-106524400D01*
X164973143Y-106524400D02*
X164877905Y-106429161D01*
X164877905Y-106429161D02*
X164830286Y-106238685D01*
X164830286Y-106238685D02*
X164830286Y-105905352D01*
X164830286Y-105905352D02*
X164877905Y-105714876D01*
X164877905Y-105714876D02*
X164973143Y-105619638D01*
X164973143Y-105619638D02*
X165068381Y-105572019D01*
X165068381Y-105572019D02*
X165258857Y-105572019D01*
X165258857Y-105572019D02*
X165354095Y-105619638D01*
X165354095Y-105619638D02*
X165449333Y-105714876D01*
X165449333Y-105714876D02*
X165496952Y-105905352D01*
X165496952Y-105905352D02*
X165496952Y-106238685D01*
X165496952Y-106238685D02*
X165449333Y-106429161D01*
X165449333Y-106429161D02*
X165354095Y-106524400D01*
X165354095Y-106524400D02*
X165258857Y-106572019D01*
X165258857Y-106572019D02*
X165068381Y-106572019D01*
X166354095Y-105905352D02*
X166354095Y-106572019D01*
X166116000Y-105524400D02*
X165877905Y-106238685D01*
X165877905Y-106238685D02*
X166496952Y-106238685D01*
X167068381Y-105572019D02*
X167163619Y-105572019D01*
X167163619Y-105572019D02*
X167258857Y-105619638D01*
X167258857Y-105619638D02*
X167306476Y-105667257D01*
X167306476Y-105667257D02*
X167354095Y-105762495D01*
X167354095Y-105762495D02*
X167401714Y-105952971D01*
X167401714Y-105952971D02*
X167401714Y-106191066D01*
X167401714Y-106191066D02*
X167354095Y-106381542D01*
X167354095Y-106381542D02*
X167306476Y-106476780D01*
X167306476Y-106476780D02*
X167258857Y-106524400D01*
X167258857Y-106524400D02*
X167163619Y-106572019D01*
X167163619Y-106572019D02*
X167068381Y-106572019D01*
X167068381Y-106572019D02*
X166973143Y-106524400D01*
X166973143Y-106524400D02*
X166925524Y-106476780D01*
X166925524Y-106476780D02*
X166877905Y-106381542D01*
X166877905Y-106381542D02*
X166830286Y-106191066D01*
X166830286Y-106191066D02*
X166830286Y-105952971D01*
X166830286Y-105952971D02*
X166877905Y-105762495D01*
X166877905Y-105762495D02*
X166925524Y-105667257D01*
X166925524Y-105667257D02*
X166973143Y-105619638D01*
X166973143Y-105619638D02*
X167068381Y-105572019D01*
X136837571Y-80302057D02*
X136742333Y-80254438D01*
X136742333Y-80254438D02*
X136647095Y-80159200D01*
X136647095Y-80159200D02*
X136504238Y-80016342D01*
X136504238Y-80016342D02*
X136409000Y-79968723D01*
X136409000Y-79968723D02*
X136313762Y-79968723D01*
X136361381Y-80206819D02*
X136266143Y-80159200D01*
X136266143Y-80159200D02*
X136170905Y-80063961D01*
X136170905Y-80063961D02*
X136123286Y-79873485D01*
X136123286Y-79873485D02*
X136123286Y-79540152D01*
X136123286Y-79540152D02*
X136170905Y-79349676D01*
X136170905Y-79349676D02*
X136266143Y-79254438D01*
X136266143Y-79254438D02*
X136361381Y-79206819D01*
X136361381Y-79206819D02*
X136551857Y-79206819D01*
X136551857Y-79206819D02*
X136647095Y-79254438D01*
X136647095Y-79254438D02*
X136742333Y-79349676D01*
X136742333Y-79349676D02*
X136789952Y-79540152D01*
X136789952Y-79540152D02*
X136789952Y-79873485D01*
X136789952Y-79873485D02*
X136742333Y-80063961D01*
X136742333Y-80063961D02*
X136647095Y-80159200D01*
X136647095Y-80159200D02*
X136551857Y-80206819D01*
X136551857Y-80206819D02*
X136361381Y-80206819D01*
X137742333Y-80206819D02*
X137170905Y-80206819D01*
X137456619Y-80206819D02*
X137456619Y-79206819D01*
X137456619Y-79206819D02*
X137361381Y-79349676D01*
X137361381Y-79349676D02*
X137266143Y-79444914D01*
X137266143Y-79444914D02*
X137170905Y-79492533D01*
X138361381Y-79206819D02*
X138456619Y-79206819D01*
X138456619Y-79206819D02*
X138551857Y-79254438D01*
X138551857Y-79254438D02*
X138599476Y-79302057D01*
X138599476Y-79302057D02*
X138647095Y-79397295D01*
X138647095Y-79397295D02*
X138694714Y-79587771D01*
X138694714Y-79587771D02*
X138694714Y-79825866D01*
X138694714Y-79825866D02*
X138647095Y-80016342D01*
X138647095Y-80016342D02*
X138599476Y-80111580D01*
X138599476Y-80111580D02*
X138551857Y-80159200D01*
X138551857Y-80159200D02*
X138456619Y-80206819D01*
X138456619Y-80206819D02*
X138361381Y-80206819D01*
X138361381Y-80206819D02*
X138266143Y-80159200D01*
X138266143Y-80159200D02*
X138218524Y-80111580D01*
X138218524Y-80111580D02*
X138170905Y-80016342D01*
X138170905Y-80016342D02*
X138123286Y-79825866D01*
X138123286Y-79825866D02*
X138123286Y-79587771D01*
X138123286Y-79587771D02*
X138170905Y-79397295D01*
X138170905Y-79397295D02*
X138218524Y-79302057D01*
X138218524Y-79302057D02*
X138266143Y-79254438D01*
X138266143Y-79254438D02*
X138361381Y-79206819D01*
X192722571Y-75882457D02*
X192627333Y-75834838D01*
X192627333Y-75834838D02*
X192532095Y-75739600D01*
X192532095Y-75739600D02*
X192389238Y-75596742D01*
X192389238Y-75596742D02*
X192294000Y-75549123D01*
X192294000Y-75549123D02*
X192198762Y-75549123D01*
X192246381Y-75787219D02*
X192151143Y-75739600D01*
X192151143Y-75739600D02*
X192055905Y-75644361D01*
X192055905Y-75644361D02*
X192008286Y-75453885D01*
X192008286Y-75453885D02*
X192008286Y-75120552D01*
X192008286Y-75120552D02*
X192055905Y-74930076D01*
X192055905Y-74930076D02*
X192151143Y-74834838D01*
X192151143Y-74834838D02*
X192246381Y-74787219D01*
X192246381Y-74787219D02*
X192436857Y-74787219D01*
X192436857Y-74787219D02*
X192532095Y-74834838D01*
X192532095Y-74834838D02*
X192627333Y-74930076D01*
X192627333Y-74930076D02*
X192674952Y-75120552D01*
X192674952Y-75120552D02*
X192674952Y-75453885D01*
X192674952Y-75453885D02*
X192627333Y-75644361D01*
X192627333Y-75644361D02*
X192532095Y-75739600D01*
X192532095Y-75739600D02*
X192436857Y-75787219D01*
X192436857Y-75787219D02*
X192246381Y-75787219D01*
X193627333Y-75787219D02*
X193055905Y-75787219D01*
X193341619Y-75787219D02*
X193341619Y-74787219D01*
X193341619Y-74787219D02*
X193246381Y-74930076D01*
X193246381Y-74930076D02*
X193151143Y-75025314D01*
X193151143Y-75025314D02*
X193055905Y-75072933D01*
X194579714Y-75787219D02*
X194008286Y-75787219D01*
X194294000Y-75787219D02*
X194294000Y-74787219D01*
X194294000Y-74787219D02*
X194198762Y-74930076D01*
X194198762Y-74930076D02*
X194103524Y-75025314D01*
X194103524Y-75025314D02*
X194008286Y-75072933D01*
X193046361Y-53835257D02*
X192951123Y-53787638D01*
X192951123Y-53787638D02*
X192855885Y-53692400D01*
X192855885Y-53692400D02*
X192713028Y-53549542D01*
X192713028Y-53549542D02*
X192617790Y-53501923D01*
X192617790Y-53501923D02*
X192522552Y-53501923D01*
X192570171Y-53740019D02*
X192474933Y-53692400D01*
X192474933Y-53692400D02*
X192379695Y-53597161D01*
X192379695Y-53597161D02*
X192332076Y-53406685D01*
X192332076Y-53406685D02*
X192332076Y-53073352D01*
X192332076Y-53073352D02*
X192379695Y-52882876D01*
X192379695Y-52882876D02*
X192474933Y-52787638D01*
X192474933Y-52787638D02*
X192570171Y-52740019D01*
X192570171Y-52740019D02*
X192760647Y-52740019D01*
X192760647Y-52740019D02*
X192855885Y-52787638D01*
X192855885Y-52787638D02*
X192951123Y-52882876D01*
X192951123Y-52882876D02*
X192998742Y-53073352D01*
X192998742Y-53073352D02*
X192998742Y-53406685D01*
X192998742Y-53406685D02*
X192951123Y-53597161D01*
X192951123Y-53597161D02*
X192855885Y-53692400D01*
X192855885Y-53692400D02*
X192760647Y-53740019D01*
X192760647Y-53740019D02*
X192570171Y-53740019D01*
X193951123Y-53740019D02*
X193379695Y-53740019D01*
X193665409Y-53740019D02*
X193665409Y-52740019D01*
X193665409Y-52740019D02*
X193570171Y-52882876D01*
X193570171Y-52882876D02*
X193474933Y-52978114D01*
X193474933Y-52978114D02*
X193379695Y-53025733D01*
X171330771Y-93103657D02*
X171235533Y-93056038D01*
X171235533Y-93056038D02*
X171140295Y-92960800D01*
X171140295Y-92960800D02*
X170997438Y-92817942D01*
X170997438Y-92817942D02*
X170902200Y-92770323D01*
X170902200Y-92770323D02*
X170806962Y-92770323D01*
X170854581Y-93008419D02*
X170759343Y-92960800D01*
X170759343Y-92960800D02*
X170664105Y-92865561D01*
X170664105Y-92865561D02*
X170616486Y-92675085D01*
X170616486Y-92675085D02*
X170616486Y-92341752D01*
X170616486Y-92341752D02*
X170664105Y-92151276D01*
X170664105Y-92151276D02*
X170759343Y-92056038D01*
X170759343Y-92056038D02*
X170854581Y-92008419D01*
X170854581Y-92008419D02*
X171045057Y-92008419D01*
X171045057Y-92008419D02*
X171140295Y-92056038D01*
X171140295Y-92056038D02*
X171235533Y-92151276D01*
X171235533Y-92151276D02*
X171283152Y-92341752D01*
X171283152Y-92341752D02*
X171283152Y-92675085D01*
X171283152Y-92675085D02*
X171235533Y-92865561D01*
X171235533Y-92865561D02*
X171140295Y-92960800D01*
X171140295Y-92960800D02*
X171045057Y-93008419D01*
X171045057Y-93008419D02*
X170854581Y-93008419D01*
X172140295Y-92341752D02*
X172140295Y-93008419D01*
X171902200Y-91960800D02*
X171664105Y-92675085D01*
X171664105Y-92675085D02*
X172283152Y-92675085D01*
X173092676Y-92341752D02*
X173092676Y-93008419D01*
X172854581Y-91960800D02*
X172616486Y-92675085D01*
X172616486Y-92675085D02*
X173235533Y-92675085D01*
X154109571Y-93103657D02*
X154014333Y-93056038D01*
X154014333Y-93056038D02*
X153919095Y-92960800D01*
X153919095Y-92960800D02*
X153776238Y-92817942D01*
X153776238Y-92817942D02*
X153681000Y-92770323D01*
X153681000Y-92770323D02*
X153585762Y-92770323D01*
X153633381Y-93008419D02*
X153538143Y-92960800D01*
X153538143Y-92960800D02*
X153442905Y-92865561D01*
X153442905Y-92865561D02*
X153395286Y-92675085D01*
X153395286Y-92675085D02*
X153395286Y-92341752D01*
X153395286Y-92341752D02*
X153442905Y-92151276D01*
X153442905Y-92151276D02*
X153538143Y-92056038D01*
X153538143Y-92056038D02*
X153633381Y-92008419D01*
X153633381Y-92008419D02*
X153823857Y-92008419D01*
X153823857Y-92008419D02*
X153919095Y-92056038D01*
X153919095Y-92056038D02*
X154014333Y-92151276D01*
X154014333Y-92151276D02*
X154061952Y-92341752D01*
X154061952Y-92341752D02*
X154061952Y-92675085D01*
X154061952Y-92675085D02*
X154014333Y-92865561D01*
X154014333Y-92865561D02*
X153919095Y-92960800D01*
X153919095Y-92960800D02*
X153823857Y-93008419D01*
X153823857Y-93008419D02*
X153633381Y-93008419D01*
X154442905Y-92103657D02*
X154490524Y-92056038D01*
X154490524Y-92056038D02*
X154585762Y-92008419D01*
X154585762Y-92008419D02*
X154823857Y-92008419D01*
X154823857Y-92008419D02*
X154919095Y-92056038D01*
X154919095Y-92056038D02*
X154966714Y-92103657D01*
X154966714Y-92103657D02*
X155014333Y-92198895D01*
X155014333Y-92198895D02*
X155014333Y-92294133D01*
X155014333Y-92294133D02*
X154966714Y-92436990D01*
X154966714Y-92436990D02*
X154395286Y-93008419D01*
X154395286Y-93008419D02*
X155014333Y-93008419D01*
X155490524Y-93008419D02*
X155681000Y-93008419D01*
X155681000Y-93008419D02*
X155776238Y-92960800D01*
X155776238Y-92960800D02*
X155823857Y-92913180D01*
X155823857Y-92913180D02*
X155919095Y-92770323D01*
X155919095Y-92770323D02*
X155966714Y-92579847D01*
X155966714Y-92579847D02*
X155966714Y-92198895D01*
X155966714Y-92198895D02*
X155919095Y-92103657D01*
X155919095Y-92103657D02*
X155871476Y-92056038D01*
X155871476Y-92056038D02*
X155776238Y-92008419D01*
X155776238Y-92008419D02*
X155585762Y-92008419D01*
X155585762Y-92008419D02*
X155490524Y-92056038D01*
X155490524Y-92056038D02*
X155442905Y-92103657D01*
X155442905Y-92103657D02*
X155395286Y-92198895D01*
X155395286Y-92198895D02*
X155395286Y-92436990D01*
X155395286Y-92436990D02*
X155442905Y-92532228D01*
X155442905Y-92532228D02*
X155490524Y-92579847D01*
X155490524Y-92579847D02*
X155585762Y-92627466D01*
X155585762Y-92627466D02*
X155776238Y-92627466D01*
X155776238Y-92627466D02*
X155871476Y-92579847D01*
X155871476Y-92579847D02*
X155919095Y-92532228D01*
X155919095Y-92532228D02*
X155966714Y-92436990D01*
X113134876Y-65239619D02*
X113134876Y-65953904D01*
X113134876Y-65953904D02*
X113087257Y-66096761D01*
X113087257Y-66096761D02*
X112992019Y-66192000D01*
X112992019Y-66192000D02*
X112849162Y-66239619D01*
X112849162Y-66239619D02*
X112753924Y-66239619D01*
X114087257Y-65239619D02*
X113611067Y-65239619D01*
X113611067Y-65239619D02*
X113563448Y-65715809D01*
X113563448Y-65715809D02*
X113611067Y-65668190D01*
X113611067Y-65668190D02*
X113706305Y-65620571D01*
X113706305Y-65620571D02*
X113944400Y-65620571D01*
X113944400Y-65620571D02*
X114039638Y-65668190D01*
X114039638Y-65668190D02*
X114087257Y-65715809D01*
X114087257Y-65715809D02*
X114134876Y-65811047D01*
X114134876Y-65811047D02*
X114134876Y-66049142D01*
X114134876Y-66049142D02*
X114087257Y-66144380D01*
X114087257Y-66144380D02*
X114039638Y-66192000D01*
X114039638Y-66192000D02*
X113944400Y-66239619D01*
X113944400Y-66239619D02*
X113706305Y-66239619D01*
X113706305Y-66239619D02*
X113611067Y-66192000D01*
X113611067Y-66192000D02*
X113563448Y-66144380D01*
X114515829Y-65334857D02*
X114563448Y-65287238D01*
X114563448Y-65287238D02*
X114658686Y-65239619D01*
X114658686Y-65239619D02*
X114896781Y-65239619D01*
X114896781Y-65239619D02*
X114992019Y-65287238D01*
X114992019Y-65287238D02*
X115039638Y-65334857D01*
X115039638Y-65334857D02*
X115087257Y-65430095D01*
X115087257Y-65430095D02*
X115087257Y-65525333D01*
X115087257Y-65525333D02*
X115039638Y-65668190D01*
X115039638Y-65668190D02*
X114468210Y-66239619D01*
X114468210Y-66239619D02*
X115087257Y-66239619D01*
X132330333Y-115025619D02*
X131997000Y-114549428D01*
X131758905Y-115025619D02*
X131758905Y-114025619D01*
X131758905Y-114025619D02*
X132139857Y-114025619D01*
X132139857Y-114025619D02*
X132235095Y-114073238D01*
X132235095Y-114073238D02*
X132282714Y-114120857D01*
X132282714Y-114120857D02*
X132330333Y-114216095D01*
X132330333Y-114216095D02*
X132330333Y-114358952D01*
X132330333Y-114358952D02*
X132282714Y-114454190D01*
X132282714Y-114454190D02*
X132235095Y-114501809D01*
X132235095Y-114501809D02*
X132139857Y-114549428D01*
X132139857Y-114549428D02*
X131758905Y-114549428D01*
X132663667Y-114025619D02*
X133282714Y-114025619D01*
X133282714Y-114025619D02*
X132949381Y-114406571D01*
X132949381Y-114406571D02*
X133092238Y-114406571D01*
X133092238Y-114406571D02*
X133187476Y-114454190D01*
X133187476Y-114454190D02*
X133235095Y-114501809D01*
X133235095Y-114501809D02*
X133282714Y-114597047D01*
X133282714Y-114597047D02*
X133282714Y-114835142D01*
X133282714Y-114835142D02*
X133235095Y-114930380D01*
X133235095Y-114930380D02*
X133187476Y-114978000D01*
X133187476Y-114978000D02*
X133092238Y-115025619D01*
X133092238Y-115025619D02*
X132806524Y-115025619D01*
X132806524Y-115025619D02*
X132711286Y-114978000D01*
X132711286Y-114978000D02*
X132663667Y-114930380D01*
X131000571Y-106667257D02*
X130905333Y-106619638D01*
X130905333Y-106619638D02*
X130810095Y-106524400D01*
X130810095Y-106524400D02*
X130667238Y-106381542D01*
X130667238Y-106381542D02*
X130572000Y-106333923D01*
X130572000Y-106333923D02*
X130476762Y-106333923D01*
X130524381Y-106572019D02*
X130429143Y-106524400D01*
X130429143Y-106524400D02*
X130333905Y-106429161D01*
X130333905Y-106429161D02*
X130286286Y-106238685D01*
X130286286Y-106238685D02*
X130286286Y-105905352D01*
X130286286Y-105905352D02*
X130333905Y-105714876D01*
X130333905Y-105714876D02*
X130429143Y-105619638D01*
X130429143Y-105619638D02*
X130524381Y-105572019D01*
X130524381Y-105572019D02*
X130714857Y-105572019D01*
X130714857Y-105572019D02*
X130810095Y-105619638D01*
X130810095Y-105619638D02*
X130905333Y-105714876D01*
X130905333Y-105714876D02*
X130952952Y-105905352D01*
X130952952Y-105905352D02*
X130952952Y-106238685D01*
X130952952Y-106238685D02*
X130905333Y-106429161D01*
X130905333Y-106429161D02*
X130810095Y-106524400D01*
X130810095Y-106524400D02*
X130714857Y-106572019D01*
X130714857Y-106572019D02*
X130524381Y-106572019D01*
X131905333Y-106572019D02*
X131333905Y-106572019D01*
X131619619Y-106572019D02*
X131619619Y-105572019D01*
X131619619Y-105572019D02*
X131524381Y-105714876D01*
X131524381Y-105714876D02*
X131429143Y-105810114D01*
X131429143Y-105810114D02*
X131333905Y-105857733D01*
X132810095Y-105572019D02*
X132333905Y-105572019D01*
X132333905Y-105572019D02*
X132286286Y-106048209D01*
X132286286Y-106048209D02*
X132333905Y-106000590D01*
X132333905Y-106000590D02*
X132429143Y-105952971D01*
X132429143Y-105952971D02*
X132667238Y-105952971D01*
X132667238Y-105952971D02*
X132762476Y-106000590D01*
X132762476Y-106000590D02*
X132810095Y-106048209D01*
X132810095Y-106048209D02*
X132857714Y-106143447D01*
X132857714Y-106143447D02*
X132857714Y-106381542D01*
X132857714Y-106381542D02*
X132810095Y-106476780D01*
X132810095Y-106476780D02*
X132762476Y-106524400D01*
X132762476Y-106524400D02*
X132667238Y-106572019D01*
X132667238Y-106572019D02*
X132429143Y-106572019D01*
X132429143Y-106572019D02*
X132333905Y-106524400D01*
X132333905Y-106524400D02*
X132286286Y-106476780D01*
X142476371Y-67144857D02*
X142381133Y-67097238D01*
X142381133Y-67097238D02*
X142285895Y-67002000D01*
X142285895Y-67002000D02*
X142143038Y-66859142D01*
X142143038Y-66859142D02*
X142047800Y-66811523D01*
X142047800Y-66811523D02*
X141952562Y-66811523D01*
X142000181Y-67049619D02*
X141904943Y-67002000D01*
X141904943Y-67002000D02*
X141809705Y-66906761D01*
X141809705Y-66906761D02*
X141762086Y-66716285D01*
X141762086Y-66716285D02*
X141762086Y-66382952D01*
X141762086Y-66382952D02*
X141809705Y-66192476D01*
X141809705Y-66192476D02*
X141904943Y-66097238D01*
X141904943Y-66097238D02*
X142000181Y-66049619D01*
X142000181Y-66049619D02*
X142190657Y-66049619D01*
X142190657Y-66049619D02*
X142285895Y-66097238D01*
X142285895Y-66097238D02*
X142381133Y-66192476D01*
X142381133Y-66192476D02*
X142428752Y-66382952D01*
X142428752Y-66382952D02*
X142428752Y-66716285D01*
X142428752Y-66716285D02*
X142381133Y-66906761D01*
X142381133Y-66906761D02*
X142285895Y-67002000D01*
X142285895Y-67002000D02*
X142190657Y-67049619D01*
X142190657Y-67049619D02*
X142000181Y-67049619D01*
X143381133Y-67049619D02*
X142809705Y-67049619D01*
X143095419Y-67049619D02*
X143095419Y-66049619D01*
X143095419Y-66049619D02*
X143000181Y-66192476D01*
X143000181Y-66192476D02*
X142904943Y-66287714D01*
X142904943Y-66287714D02*
X142809705Y-66335333D01*
X143714467Y-66049619D02*
X144381133Y-66049619D01*
X144381133Y-66049619D02*
X143952562Y-67049619D01*
X182659171Y-67144857D02*
X182563933Y-67097238D01*
X182563933Y-67097238D02*
X182468695Y-67002000D01*
X182468695Y-67002000D02*
X182325838Y-66859142D01*
X182325838Y-66859142D02*
X182230600Y-66811523D01*
X182230600Y-66811523D02*
X182135362Y-66811523D01*
X182182981Y-67049619D02*
X182087743Y-67002000D01*
X182087743Y-67002000D02*
X181992505Y-66906761D01*
X181992505Y-66906761D02*
X181944886Y-66716285D01*
X181944886Y-66716285D02*
X181944886Y-66382952D01*
X181944886Y-66382952D02*
X181992505Y-66192476D01*
X181992505Y-66192476D02*
X182087743Y-66097238D01*
X182087743Y-66097238D02*
X182182981Y-66049619D01*
X182182981Y-66049619D02*
X182373457Y-66049619D01*
X182373457Y-66049619D02*
X182468695Y-66097238D01*
X182468695Y-66097238D02*
X182563933Y-66192476D01*
X182563933Y-66192476D02*
X182611552Y-66382952D01*
X182611552Y-66382952D02*
X182611552Y-66716285D01*
X182611552Y-66716285D02*
X182563933Y-66906761D01*
X182563933Y-66906761D02*
X182468695Y-67002000D01*
X182468695Y-67002000D02*
X182373457Y-67049619D01*
X182373457Y-67049619D02*
X182182981Y-67049619D01*
X183516314Y-66049619D02*
X183040124Y-66049619D01*
X183040124Y-66049619D02*
X182992505Y-66525809D01*
X182992505Y-66525809D02*
X183040124Y-66478190D01*
X183040124Y-66478190D02*
X183135362Y-66430571D01*
X183135362Y-66430571D02*
X183373457Y-66430571D01*
X183373457Y-66430571D02*
X183468695Y-66478190D01*
X183468695Y-66478190D02*
X183516314Y-66525809D01*
X183516314Y-66525809D02*
X183563933Y-66621047D01*
X183563933Y-66621047D02*
X183563933Y-66859142D01*
X183563933Y-66859142D02*
X183516314Y-66954380D01*
X183516314Y-66954380D02*
X183468695Y-67002000D01*
X183468695Y-67002000D02*
X183373457Y-67049619D01*
X183373457Y-67049619D02*
X183135362Y-67049619D01*
X183135362Y-67049619D02*
X183040124Y-67002000D01*
X183040124Y-67002000D02*
X182992505Y-66954380D01*
X183944886Y-66144857D02*
X183992505Y-66097238D01*
X183992505Y-66097238D02*
X184087743Y-66049619D01*
X184087743Y-66049619D02*
X184325838Y-66049619D01*
X184325838Y-66049619D02*
X184421076Y-66097238D01*
X184421076Y-66097238D02*
X184468695Y-66144857D01*
X184468695Y-66144857D02*
X184516314Y-66240095D01*
X184516314Y-66240095D02*
X184516314Y-66335333D01*
X184516314Y-66335333D02*
X184468695Y-66478190D01*
X184468695Y-66478190D02*
X183897267Y-67049619D01*
X183897267Y-67049619D02*
X184516314Y-67049619D01*
X182765771Y-106667257D02*
X182670533Y-106619638D01*
X182670533Y-106619638D02*
X182575295Y-106524400D01*
X182575295Y-106524400D02*
X182432438Y-106381542D01*
X182432438Y-106381542D02*
X182337200Y-106333923D01*
X182337200Y-106333923D02*
X182241962Y-106333923D01*
X182289581Y-106572019D02*
X182194343Y-106524400D01*
X182194343Y-106524400D02*
X182099105Y-106429161D01*
X182099105Y-106429161D02*
X182051486Y-106238685D01*
X182051486Y-106238685D02*
X182051486Y-105905352D01*
X182051486Y-105905352D02*
X182099105Y-105714876D01*
X182099105Y-105714876D02*
X182194343Y-105619638D01*
X182194343Y-105619638D02*
X182289581Y-105572019D01*
X182289581Y-105572019D02*
X182480057Y-105572019D01*
X182480057Y-105572019D02*
X182575295Y-105619638D01*
X182575295Y-105619638D02*
X182670533Y-105714876D01*
X182670533Y-105714876D02*
X182718152Y-105905352D01*
X182718152Y-105905352D02*
X182718152Y-106238685D01*
X182718152Y-106238685D02*
X182670533Y-106429161D01*
X182670533Y-106429161D02*
X182575295Y-106524400D01*
X182575295Y-106524400D02*
X182480057Y-106572019D01*
X182480057Y-106572019D02*
X182289581Y-106572019D01*
X183622914Y-105572019D02*
X183146724Y-105572019D01*
X183146724Y-105572019D02*
X183099105Y-106048209D01*
X183099105Y-106048209D02*
X183146724Y-106000590D01*
X183146724Y-106000590D02*
X183241962Y-105952971D01*
X183241962Y-105952971D02*
X183480057Y-105952971D01*
X183480057Y-105952971D02*
X183575295Y-106000590D01*
X183575295Y-106000590D02*
X183622914Y-106048209D01*
X183622914Y-106048209D02*
X183670533Y-106143447D01*
X183670533Y-106143447D02*
X183670533Y-106381542D01*
X183670533Y-106381542D02*
X183622914Y-106476780D01*
X183622914Y-106476780D02*
X183575295Y-106524400D01*
X183575295Y-106524400D02*
X183480057Y-106572019D01*
X183480057Y-106572019D02*
X183241962Y-106572019D01*
X183241962Y-106572019D02*
X183146724Y-106524400D01*
X183146724Y-106524400D02*
X183099105Y-106476780D01*
X184575295Y-105572019D02*
X184099105Y-105572019D01*
X184099105Y-105572019D02*
X184051486Y-106048209D01*
X184051486Y-106048209D02*
X184099105Y-106000590D01*
X184099105Y-106000590D02*
X184194343Y-105952971D01*
X184194343Y-105952971D02*
X184432438Y-105952971D01*
X184432438Y-105952971D02*
X184527676Y-106000590D01*
X184527676Y-106000590D02*
X184575295Y-106048209D01*
X184575295Y-106048209D02*
X184622914Y-106143447D01*
X184622914Y-106143447D02*
X184622914Y-106381542D01*
X184622914Y-106381542D02*
X184575295Y-106476780D01*
X184575295Y-106476780D02*
X184527676Y-106524400D01*
X184527676Y-106524400D02*
X184432438Y-106572019D01*
X184432438Y-106572019D02*
X184194343Y-106572019D01*
X184194343Y-106572019D02*
X184099105Y-106524400D01*
X184099105Y-106524400D02*
X184051486Y-106476780D01*
X160748742Y-114974819D02*
X160415409Y-114498628D01*
X160177314Y-114974819D02*
X160177314Y-113974819D01*
X160177314Y-113974819D02*
X160558266Y-113974819D01*
X160558266Y-113974819D02*
X160653504Y-114022438D01*
X160653504Y-114022438D02*
X160701123Y-114070057D01*
X160701123Y-114070057D02*
X160748742Y-114165295D01*
X160748742Y-114165295D02*
X160748742Y-114308152D01*
X160748742Y-114308152D02*
X160701123Y-114403390D01*
X160701123Y-114403390D02*
X160653504Y-114451009D01*
X160653504Y-114451009D02*
X160558266Y-114498628D01*
X160558266Y-114498628D02*
X160177314Y-114498628D01*
X161701123Y-114974819D02*
X161129695Y-114974819D01*
X161415409Y-114974819D02*
X161415409Y-113974819D01*
X161415409Y-113974819D02*
X161320171Y-114117676D01*
X161320171Y-114117676D02*
X161224933Y-114212914D01*
X161224933Y-114212914D02*
X161129695Y-114260533D01*
X162653504Y-114974819D02*
X162082076Y-114974819D01*
X162367790Y-114974819D02*
X162367790Y-113974819D01*
X162367790Y-113974819D02*
X162272552Y-114117676D01*
X162272552Y-114117676D02*
X162177314Y-114212914D01*
X162177314Y-114212914D02*
X162082076Y-114260533D01*
X165488771Y-67144857D02*
X165393533Y-67097238D01*
X165393533Y-67097238D02*
X165298295Y-67002000D01*
X165298295Y-67002000D02*
X165155438Y-66859142D01*
X165155438Y-66859142D02*
X165060200Y-66811523D01*
X165060200Y-66811523D02*
X164964962Y-66811523D01*
X165012581Y-67049619D02*
X164917343Y-67002000D01*
X164917343Y-67002000D02*
X164822105Y-66906761D01*
X164822105Y-66906761D02*
X164774486Y-66716285D01*
X164774486Y-66716285D02*
X164774486Y-66382952D01*
X164774486Y-66382952D02*
X164822105Y-66192476D01*
X164822105Y-66192476D02*
X164917343Y-66097238D01*
X164917343Y-66097238D02*
X165012581Y-66049619D01*
X165012581Y-66049619D02*
X165203057Y-66049619D01*
X165203057Y-66049619D02*
X165298295Y-66097238D01*
X165298295Y-66097238D02*
X165393533Y-66192476D01*
X165393533Y-66192476D02*
X165441152Y-66382952D01*
X165441152Y-66382952D02*
X165441152Y-66716285D01*
X165441152Y-66716285D02*
X165393533Y-66906761D01*
X165393533Y-66906761D02*
X165298295Y-67002000D01*
X165298295Y-67002000D02*
X165203057Y-67049619D01*
X165203057Y-67049619D02*
X165012581Y-67049619D01*
X165774486Y-66049619D02*
X166393533Y-66049619D01*
X166393533Y-66049619D02*
X166060200Y-66430571D01*
X166060200Y-66430571D02*
X166203057Y-66430571D01*
X166203057Y-66430571D02*
X166298295Y-66478190D01*
X166298295Y-66478190D02*
X166345914Y-66525809D01*
X166345914Y-66525809D02*
X166393533Y-66621047D01*
X166393533Y-66621047D02*
X166393533Y-66859142D01*
X166393533Y-66859142D02*
X166345914Y-66954380D01*
X166345914Y-66954380D02*
X166298295Y-67002000D01*
X166298295Y-67002000D02*
X166203057Y-67049619D01*
X166203057Y-67049619D02*
X165917343Y-67049619D01*
X165917343Y-67049619D02*
X165822105Y-67002000D01*
X165822105Y-67002000D02*
X165774486Y-66954380D01*
X166726867Y-66049619D02*
X167393533Y-66049619D01*
X167393533Y-66049619D02*
X166964962Y-67049619D01*
X157494666Y-122029219D02*
X157494666Y-122743504D01*
X157494666Y-122743504D02*
X157447047Y-122886361D01*
X157447047Y-122886361D02*
X157351809Y-122981600D01*
X157351809Y-122981600D02*
X157208952Y-123029219D01*
X157208952Y-123029219D02*
X157113714Y-123029219D01*
X157875619Y-122029219D02*
X158494666Y-122029219D01*
X158494666Y-122029219D02*
X158161333Y-122410171D01*
X158161333Y-122410171D02*
X158304190Y-122410171D01*
X158304190Y-122410171D02*
X158399428Y-122457790D01*
X158399428Y-122457790D02*
X158447047Y-122505409D01*
X158447047Y-122505409D02*
X158494666Y-122600647D01*
X158494666Y-122600647D02*
X158494666Y-122838742D01*
X158494666Y-122838742D02*
X158447047Y-122933980D01*
X158447047Y-122933980D02*
X158399428Y-122981600D01*
X158399428Y-122981600D02*
X158304190Y-123029219D01*
X158304190Y-123029219D02*
X158018476Y-123029219D01*
X158018476Y-123029219D02*
X157923238Y-122981600D01*
X157923238Y-122981600D02*
X157875619Y-122933980D01*
X159900771Y-80302057D02*
X159805533Y-80254438D01*
X159805533Y-80254438D02*
X159710295Y-80159200D01*
X159710295Y-80159200D02*
X159567438Y-80016342D01*
X159567438Y-80016342D02*
X159472200Y-79968723D01*
X159472200Y-79968723D02*
X159376962Y-79968723D01*
X159424581Y-80206819D02*
X159329343Y-80159200D01*
X159329343Y-80159200D02*
X159234105Y-80063961D01*
X159234105Y-80063961D02*
X159186486Y-79873485D01*
X159186486Y-79873485D02*
X159186486Y-79540152D01*
X159186486Y-79540152D02*
X159234105Y-79349676D01*
X159234105Y-79349676D02*
X159329343Y-79254438D01*
X159329343Y-79254438D02*
X159424581Y-79206819D01*
X159424581Y-79206819D02*
X159615057Y-79206819D01*
X159615057Y-79206819D02*
X159710295Y-79254438D01*
X159710295Y-79254438D02*
X159805533Y-79349676D01*
X159805533Y-79349676D02*
X159853152Y-79540152D01*
X159853152Y-79540152D02*
X159853152Y-79873485D01*
X159853152Y-79873485D02*
X159805533Y-80063961D01*
X159805533Y-80063961D02*
X159710295Y-80159200D01*
X159710295Y-80159200D02*
X159615057Y-80206819D01*
X159615057Y-80206819D02*
X159424581Y-80206819D01*
X160186486Y-79206819D02*
X160805533Y-79206819D01*
X160805533Y-79206819D02*
X160472200Y-79587771D01*
X160472200Y-79587771D02*
X160615057Y-79587771D01*
X160615057Y-79587771D02*
X160710295Y-79635390D01*
X160710295Y-79635390D02*
X160757914Y-79683009D01*
X160757914Y-79683009D02*
X160805533Y-79778247D01*
X160805533Y-79778247D02*
X160805533Y-80016342D01*
X160805533Y-80016342D02*
X160757914Y-80111580D01*
X160757914Y-80111580D02*
X160710295Y-80159200D01*
X160710295Y-80159200D02*
X160615057Y-80206819D01*
X160615057Y-80206819D02*
X160329343Y-80206819D01*
X160329343Y-80206819D02*
X160234105Y-80159200D01*
X160234105Y-80159200D02*
X160186486Y-80111580D01*
X161138867Y-79206819D02*
X161757914Y-79206819D01*
X161757914Y-79206819D02*
X161424581Y-79587771D01*
X161424581Y-79587771D02*
X161567438Y-79587771D01*
X161567438Y-79587771D02*
X161662676Y-79635390D01*
X161662676Y-79635390D02*
X161710295Y-79683009D01*
X161710295Y-79683009D02*
X161757914Y-79778247D01*
X161757914Y-79778247D02*
X161757914Y-80016342D01*
X161757914Y-80016342D02*
X161710295Y-80111580D01*
X161710295Y-80111580D02*
X161662676Y-80159200D01*
X161662676Y-80159200D02*
X161567438Y-80206819D01*
X161567438Y-80206819D02*
X161281724Y-80206819D01*
X161281724Y-80206819D02*
X161186486Y-80159200D01*
X161186486Y-80159200D02*
X161138867Y-80111580D01*
X138121533Y-114974819D02*
X137788200Y-114498628D01*
X137550105Y-114974819D02*
X137550105Y-113974819D01*
X137550105Y-113974819D02*
X137931057Y-113974819D01*
X137931057Y-113974819D02*
X138026295Y-114022438D01*
X138026295Y-114022438D02*
X138073914Y-114070057D01*
X138073914Y-114070057D02*
X138121533Y-114165295D01*
X138121533Y-114165295D02*
X138121533Y-114308152D01*
X138121533Y-114308152D02*
X138073914Y-114403390D01*
X138073914Y-114403390D02*
X138026295Y-114451009D01*
X138026295Y-114451009D02*
X137931057Y-114498628D01*
X137931057Y-114498628D02*
X137550105Y-114498628D01*
X138978676Y-114308152D02*
X138978676Y-114974819D01*
X138740581Y-113927200D02*
X138502486Y-114641485D01*
X138502486Y-114641485D02*
X139121533Y-114641485D01*
X177929742Y-115025619D02*
X177596409Y-114549428D01*
X177358314Y-115025619D02*
X177358314Y-114025619D01*
X177358314Y-114025619D02*
X177739266Y-114025619D01*
X177739266Y-114025619D02*
X177834504Y-114073238D01*
X177834504Y-114073238D02*
X177882123Y-114120857D01*
X177882123Y-114120857D02*
X177929742Y-114216095D01*
X177929742Y-114216095D02*
X177929742Y-114358952D01*
X177929742Y-114358952D02*
X177882123Y-114454190D01*
X177882123Y-114454190D02*
X177834504Y-114501809D01*
X177834504Y-114501809D02*
X177739266Y-114549428D01*
X177739266Y-114549428D02*
X177358314Y-114549428D01*
X178882123Y-115025619D02*
X178310695Y-115025619D01*
X178596409Y-115025619D02*
X178596409Y-114025619D01*
X178596409Y-114025619D02*
X178501171Y-114168476D01*
X178501171Y-114168476D02*
X178405933Y-114263714D01*
X178405933Y-114263714D02*
X178310695Y-114311333D01*
X179739266Y-114358952D02*
X179739266Y-115025619D01*
X179501171Y-113978000D02*
X179263076Y-114692285D01*
X179263076Y-114692285D02*
X179882123Y-114692285D01*
X182562571Y-53784457D02*
X182467333Y-53736838D01*
X182467333Y-53736838D02*
X182372095Y-53641600D01*
X182372095Y-53641600D02*
X182229238Y-53498742D01*
X182229238Y-53498742D02*
X182134000Y-53451123D01*
X182134000Y-53451123D02*
X182038762Y-53451123D01*
X182086381Y-53689219D02*
X181991143Y-53641600D01*
X181991143Y-53641600D02*
X181895905Y-53546361D01*
X181895905Y-53546361D02*
X181848286Y-53355885D01*
X181848286Y-53355885D02*
X181848286Y-53022552D01*
X181848286Y-53022552D02*
X181895905Y-52832076D01*
X181895905Y-52832076D02*
X181991143Y-52736838D01*
X181991143Y-52736838D02*
X182086381Y-52689219D01*
X182086381Y-52689219D02*
X182276857Y-52689219D01*
X182276857Y-52689219D02*
X182372095Y-52736838D01*
X182372095Y-52736838D02*
X182467333Y-52832076D01*
X182467333Y-52832076D02*
X182514952Y-53022552D01*
X182514952Y-53022552D02*
X182514952Y-53355885D01*
X182514952Y-53355885D02*
X182467333Y-53546361D01*
X182467333Y-53546361D02*
X182372095Y-53641600D01*
X182372095Y-53641600D02*
X182276857Y-53689219D01*
X182276857Y-53689219D02*
X182086381Y-53689219D01*
X183419714Y-52689219D02*
X182943524Y-52689219D01*
X182943524Y-52689219D02*
X182895905Y-53165409D01*
X182895905Y-53165409D02*
X182943524Y-53117790D01*
X182943524Y-53117790D02*
X183038762Y-53070171D01*
X183038762Y-53070171D02*
X183276857Y-53070171D01*
X183276857Y-53070171D02*
X183372095Y-53117790D01*
X183372095Y-53117790D02*
X183419714Y-53165409D01*
X183419714Y-53165409D02*
X183467333Y-53260647D01*
X183467333Y-53260647D02*
X183467333Y-53498742D01*
X183467333Y-53498742D02*
X183419714Y-53593980D01*
X183419714Y-53593980D02*
X183372095Y-53641600D01*
X183372095Y-53641600D02*
X183276857Y-53689219D01*
X183276857Y-53689219D02*
X183038762Y-53689219D01*
X183038762Y-53689219D02*
X182943524Y-53641600D01*
X182943524Y-53641600D02*
X182895905Y-53593980D01*
X184419714Y-53689219D02*
X183848286Y-53689219D01*
X184134000Y-53689219D02*
X184134000Y-52689219D01*
X184134000Y-52689219D02*
X184038762Y-52832076D01*
X184038762Y-52832076D02*
X183943524Y-52927314D01*
X183943524Y-52927314D02*
X183848286Y-52974933D01*
X176969571Y-67144857D02*
X176874333Y-67097238D01*
X176874333Y-67097238D02*
X176779095Y-67002000D01*
X176779095Y-67002000D02*
X176636238Y-66859142D01*
X176636238Y-66859142D02*
X176541000Y-66811523D01*
X176541000Y-66811523D02*
X176445762Y-66811523D01*
X176493381Y-67049619D02*
X176398143Y-67002000D01*
X176398143Y-67002000D02*
X176302905Y-66906761D01*
X176302905Y-66906761D02*
X176255286Y-66716285D01*
X176255286Y-66716285D02*
X176255286Y-66382952D01*
X176255286Y-66382952D02*
X176302905Y-66192476D01*
X176302905Y-66192476D02*
X176398143Y-66097238D01*
X176398143Y-66097238D02*
X176493381Y-66049619D01*
X176493381Y-66049619D02*
X176683857Y-66049619D01*
X176683857Y-66049619D02*
X176779095Y-66097238D01*
X176779095Y-66097238D02*
X176874333Y-66192476D01*
X176874333Y-66192476D02*
X176921952Y-66382952D01*
X176921952Y-66382952D02*
X176921952Y-66716285D01*
X176921952Y-66716285D02*
X176874333Y-66906761D01*
X176874333Y-66906761D02*
X176779095Y-67002000D01*
X176779095Y-67002000D02*
X176683857Y-67049619D01*
X176683857Y-67049619D02*
X176493381Y-67049619D01*
X177779095Y-66382952D02*
X177779095Y-67049619D01*
X177541000Y-66002000D02*
X177302905Y-66716285D01*
X177302905Y-66716285D02*
X177921952Y-66716285D01*
X178207667Y-66049619D02*
X178874333Y-66049619D01*
X178874333Y-66049619D02*
X178445762Y-67049619D01*
X142577971Y-80302057D02*
X142482733Y-80254438D01*
X142482733Y-80254438D02*
X142387495Y-80159200D01*
X142387495Y-80159200D02*
X142244638Y-80016342D01*
X142244638Y-80016342D02*
X142149400Y-79968723D01*
X142149400Y-79968723D02*
X142054162Y-79968723D01*
X142101781Y-80206819D02*
X142006543Y-80159200D01*
X142006543Y-80159200D02*
X141911305Y-80063961D01*
X141911305Y-80063961D02*
X141863686Y-79873485D01*
X141863686Y-79873485D02*
X141863686Y-79540152D01*
X141863686Y-79540152D02*
X141911305Y-79349676D01*
X141911305Y-79349676D02*
X142006543Y-79254438D01*
X142006543Y-79254438D02*
X142101781Y-79206819D01*
X142101781Y-79206819D02*
X142292257Y-79206819D01*
X142292257Y-79206819D02*
X142387495Y-79254438D01*
X142387495Y-79254438D02*
X142482733Y-79349676D01*
X142482733Y-79349676D02*
X142530352Y-79540152D01*
X142530352Y-79540152D02*
X142530352Y-79873485D01*
X142530352Y-79873485D02*
X142482733Y-80063961D01*
X142482733Y-80063961D02*
X142387495Y-80159200D01*
X142387495Y-80159200D02*
X142292257Y-80206819D01*
X142292257Y-80206819D02*
X142101781Y-80206819D01*
X143482733Y-80206819D02*
X142911305Y-80206819D01*
X143197019Y-80206819D02*
X143197019Y-79206819D01*
X143197019Y-79206819D02*
X143101781Y-79349676D01*
X143101781Y-79349676D02*
X143006543Y-79444914D01*
X143006543Y-79444914D02*
X142911305Y-79492533D01*
X144054162Y-79635390D02*
X143958924Y-79587771D01*
X143958924Y-79587771D02*
X143911305Y-79540152D01*
X143911305Y-79540152D02*
X143863686Y-79444914D01*
X143863686Y-79444914D02*
X143863686Y-79397295D01*
X143863686Y-79397295D02*
X143911305Y-79302057D01*
X143911305Y-79302057D02*
X143958924Y-79254438D01*
X143958924Y-79254438D02*
X144054162Y-79206819D01*
X144054162Y-79206819D02*
X144244638Y-79206819D01*
X144244638Y-79206819D02*
X144339876Y-79254438D01*
X144339876Y-79254438D02*
X144387495Y-79302057D01*
X144387495Y-79302057D02*
X144435114Y-79397295D01*
X144435114Y-79397295D02*
X144435114Y-79444914D01*
X144435114Y-79444914D02*
X144387495Y-79540152D01*
X144387495Y-79540152D02*
X144339876Y-79587771D01*
X144339876Y-79587771D02*
X144244638Y-79635390D01*
X144244638Y-79635390D02*
X144054162Y-79635390D01*
X144054162Y-79635390D02*
X143958924Y-79683009D01*
X143958924Y-79683009D02*
X143911305Y-79730628D01*
X143911305Y-79730628D02*
X143863686Y-79825866D01*
X143863686Y-79825866D02*
X143863686Y-80016342D01*
X143863686Y-80016342D02*
X143911305Y-80111580D01*
X143911305Y-80111580D02*
X143958924Y-80159200D01*
X143958924Y-80159200D02*
X144054162Y-80206819D01*
X144054162Y-80206819D02*
X144244638Y-80206819D01*
X144244638Y-80206819D02*
X144339876Y-80159200D01*
X144339876Y-80159200D02*
X144387495Y-80111580D01*
X144387495Y-80111580D02*
X144435114Y-80016342D01*
X144435114Y-80016342D02*
X144435114Y-79825866D01*
X144435114Y-79825866D02*
X144387495Y-79730628D01*
X144387495Y-79730628D02*
X144339876Y-79683009D01*
X144339876Y-79683009D02*
X144244638Y-79635390D01*
X193940133Y-59348819D02*
X193606800Y-58872628D01*
X193368705Y-59348819D02*
X193368705Y-58348819D01*
X193368705Y-58348819D02*
X193749657Y-58348819D01*
X193749657Y-58348819D02*
X193844895Y-58396438D01*
X193844895Y-58396438D02*
X193892514Y-58444057D01*
X193892514Y-58444057D02*
X193940133Y-58539295D01*
X193940133Y-58539295D02*
X193940133Y-58682152D01*
X193940133Y-58682152D02*
X193892514Y-58777390D01*
X193892514Y-58777390D02*
X193844895Y-58825009D01*
X193844895Y-58825009D02*
X193749657Y-58872628D01*
X193749657Y-58872628D02*
X193368705Y-58872628D01*
X194892514Y-59348819D02*
X194321086Y-59348819D01*
X194606800Y-59348819D02*
X194606800Y-58348819D01*
X194606800Y-58348819D02*
X194511562Y-58491676D01*
X194511562Y-58491676D02*
X194416324Y-58586914D01*
X194416324Y-58586914D02*
X194321086Y-58634533D01*
X194092533Y-81700819D02*
X193759200Y-81224628D01*
X193521105Y-81700819D02*
X193521105Y-80700819D01*
X193521105Y-80700819D02*
X193902057Y-80700819D01*
X193902057Y-80700819D02*
X193997295Y-80748438D01*
X193997295Y-80748438D02*
X194044914Y-80796057D01*
X194044914Y-80796057D02*
X194092533Y-80891295D01*
X194092533Y-80891295D02*
X194092533Y-81034152D01*
X194092533Y-81034152D02*
X194044914Y-81129390D01*
X194044914Y-81129390D02*
X193997295Y-81177009D01*
X193997295Y-81177009D02*
X193902057Y-81224628D01*
X193902057Y-81224628D02*
X193521105Y-81224628D01*
X194949676Y-80700819D02*
X194759200Y-80700819D01*
X194759200Y-80700819D02*
X194663962Y-80748438D01*
X194663962Y-80748438D02*
X194616343Y-80796057D01*
X194616343Y-80796057D02*
X194521105Y-80938914D01*
X194521105Y-80938914D02*
X194473486Y-81129390D01*
X194473486Y-81129390D02*
X194473486Y-81510342D01*
X194473486Y-81510342D02*
X194521105Y-81605580D01*
X194521105Y-81605580D02*
X194568724Y-81653200D01*
X194568724Y-81653200D02*
X194663962Y-81700819D01*
X194663962Y-81700819D02*
X194854438Y-81700819D01*
X194854438Y-81700819D02*
X194949676Y-81653200D01*
X194949676Y-81653200D02*
X194997295Y-81605580D01*
X194997295Y-81605580D02*
X195044914Y-81510342D01*
X195044914Y-81510342D02*
X195044914Y-81272247D01*
X195044914Y-81272247D02*
X194997295Y-81177009D01*
X194997295Y-81177009D02*
X194949676Y-81129390D01*
X194949676Y-81129390D02*
X194854438Y-81081771D01*
X194854438Y-81081771D02*
X194663962Y-81081771D01*
X194663962Y-81081771D02*
X194568724Y-81129390D01*
X194568724Y-81129390D02*
X194521105Y-81177009D01*
X194521105Y-81177009D02*
X194473486Y-81272247D01*
X177121971Y-80302057D02*
X177026733Y-80254438D01*
X177026733Y-80254438D02*
X176931495Y-80159200D01*
X176931495Y-80159200D02*
X176788638Y-80016342D01*
X176788638Y-80016342D02*
X176693400Y-79968723D01*
X176693400Y-79968723D02*
X176598162Y-79968723D01*
X176645781Y-80206819D02*
X176550543Y-80159200D01*
X176550543Y-80159200D02*
X176455305Y-80063961D01*
X176455305Y-80063961D02*
X176407686Y-79873485D01*
X176407686Y-79873485D02*
X176407686Y-79540152D01*
X176407686Y-79540152D02*
X176455305Y-79349676D01*
X176455305Y-79349676D02*
X176550543Y-79254438D01*
X176550543Y-79254438D02*
X176645781Y-79206819D01*
X176645781Y-79206819D02*
X176836257Y-79206819D01*
X176836257Y-79206819D02*
X176931495Y-79254438D01*
X176931495Y-79254438D02*
X177026733Y-79349676D01*
X177026733Y-79349676D02*
X177074352Y-79540152D01*
X177074352Y-79540152D02*
X177074352Y-79873485D01*
X177074352Y-79873485D02*
X177026733Y-80063961D01*
X177026733Y-80063961D02*
X176931495Y-80159200D01*
X176931495Y-80159200D02*
X176836257Y-80206819D01*
X176836257Y-80206819D02*
X176645781Y-80206819D01*
X177931495Y-79540152D02*
X177931495Y-80206819D01*
X177693400Y-79159200D02*
X177455305Y-79873485D01*
X177455305Y-79873485D02*
X178074352Y-79873485D01*
X178598162Y-79635390D02*
X178502924Y-79587771D01*
X178502924Y-79587771D02*
X178455305Y-79540152D01*
X178455305Y-79540152D02*
X178407686Y-79444914D01*
X178407686Y-79444914D02*
X178407686Y-79397295D01*
X178407686Y-79397295D02*
X178455305Y-79302057D01*
X178455305Y-79302057D02*
X178502924Y-79254438D01*
X178502924Y-79254438D02*
X178598162Y-79206819D01*
X178598162Y-79206819D02*
X178788638Y-79206819D01*
X178788638Y-79206819D02*
X178883876Y-79254438D01*
X178883876Y-79254438D02*
X178931495Y-79302057D01*
X178931495Y-79302057D02*
X178979114Y-79397295D01*
X178979114Y-79397295D02*
X178979114Y-79444914D01*
X178979114Y-79444914D02*
X178931495Y-79540152D01*
X178931495Y-79540152D02*
X178883876Y-79587771D01*
X178883876Y-79587771D02*
X178788638Y-79635390D01*
X178788638Y-79635390D02*
X178598162Y-79635390D01*
X178598162Y-79635390D02*
X178502924Y-79683009D01*
X178502924Y-79683009D02*
X178455305Y-79730628D01*
X178455305Y-79730628D02*
X178407686Y-79825866D01*
X178407686Y-79825866D02*
X178407686Y-80016342D01*
X178407686Y-80016342D02*
X178455305Y-80111580D01*
X178455305Y-80111580D02*
X178502924Y-80159200D01*
X178502924Y-80159200D02*
X178598162Y-80206819D01*
X178598162Y-80206819D02*
X178788638Y-80206819D01*
X178788638Y-80206819D02*
X178883876Y-80159200D01*
X178883876Y-80159200D02*
X178931495Y-80111580D01*
X178931495Y-80111580D02*
X178979114Y-80016342D01*
X178979114Y-80016342D02*
X178979114Y-79825866D01*
X178979114Y-79825866D02*
X178931495Y-79730628D01*
X178931495Y-79730628D02*
X178883876Y-79683009D01*
X178883876Y-79683009D02*
X178788638Y-79635390D01*
X142870019Y-103374723D02*
X143584304Y-103374723D01*
X143584304Y-103374723D02*
X143727161Y-103422342D01*
X143727161Y-103422342D02*
X143822400Y-103517580D01*
X143822400Y-103517580D02*
X143870019Y-103660437D01*
X143870019Y-103660437D02*
X143870019Y-103755675D01*
X142870019Y-102469961D02*
X142870019Y-102660437D01*
X142870019Y-102660437D02*
X142917638Y-102755675D01*
X142917638Y-102755675D02*
X142965257Y-102803294D01*
X142965257Y-102803294D02*
X143108114Y-102898532D01*
X143108114Y-102898532D02*
X143298590Y-102946151D01*
X143298590Y-102946151D02*
X143679542Y-102946151D01*
X143679542Y-102946151D02*
X143774780Y-102898532D01*
X143774780Y-102898532D02*
X143822400Y-102850913D01*
X143822400Y-102850913D02*
X143870019Y-102755675D01*
X143870019Y-102755675D02*
X143870019Y-102565199D01*
X143870019Y-102565199D02*
X143822400Y-102469961D01*
X143822400Y-102469961D02*
X143774780Y-102422342D01*
X143774780Y-102422342D02*
X143679542Y-102374723D01*
X143679542Y-102374723D02*
X143441447Y-102374723D01*
X143441447Y-102374723D02*
X143346209Y-102422342D01*
X143346209Y-102422342D02*
X143298590Y-102469961D01*
X143298590Y-102469961D02*
X143250971Y-102565199D01*
X143250971Y-102565199D02*
X143250971Y-102755675D01*
X143250971Y-102755675D02*
X143298590Y-102850913D01*
X143298590Y-102850913D02*
X143346209Y-102898532D01*
X143346209Y-102898532D02*
X143441447Y-102946151D01*
X142870019Y-101755675D02*
X142870019Y-101660437D01*
X142870019Y-101660437D02*
X142917638Y-101565199D01*
X142917638Y-101565199D02*
X142965257Y-101517580D01*
X142965257Y-101517580D02*
X143060495Y-101469961D01*
X143060495Y-101469961D02*
X143250971Y-101422342D01*
X143250971Y-101422342D02*
X143489066Y-101422342D01*
X143489066Y-101422342D02*
X143679542Y-101469961D01*
X143679542Y-101469961D02*
X143774780Y-101517580D01*
X143774780Y-101517580D02*
X143822400Y-101565199D01*
X143822400Y-101565199D02*
X143870019Y-101660437D01*
X143870019Y-101660437D02*
X143870019Y-101755675D01*
X143870019Y-101755675D02*
X143822400Y-101850913D01*
X143822400Y-101850913D02*
X143774780Y-101898532D01*
X143774780Y-101898532D02*
X143679542Y-101946151D01*
X143679542Y-101946151D02*
X143489066Y-101993770D01*
X143489066Y-101993770D02*
X143250971Y-101993770D01*
X143250971Y-101993770D02*
X143060495Y-101946151D01*
X143060495Y-101946151D02*
X142965257Y-101898532D01*
X142965257Y-101898532D02*
X142917638Y-101850913D01*
X142917638Y-101850913D02*
X142870019Y-101755675D01*
X159849971Y-93103657D02*
X159754733Y-93056038D01*
X159754733Y-93056038D02*
X159659495Y-92960800D01*
X159659495Y-92960800D02*
X159516638Y-92817942D01*
X159516638Y-92817942D02*
X159421400Y-92770323D01*
X159421400Y-92770323D02*
X159326162Y-92770323D01*
X159373781Y-93008419D02*
X159278543Y-92960800D01*
X159278543Y-92960800D02*
X159183305Y-92865561D01*
X159183305Y-92865561D02*
X159135686Y-92675085D01*
X159135686Y-92675085D02*
X159135686Y-92341752D01*
X159135686Y-92341752D02*
X159183305Y-92151276D01*
X159183305Y-92151276D02*
X159278543Y-92056038D01*
X159278543Y-92056038D02*
X159373781Y-92008419D01*
X159373781Y-92008419D02*
X159564257Y-92008419D01*
X159564257Y-92008419D02*
X159659495Y-92056038D01*
X159659495Y-92056038D02*
X159754733Y-92151276D01*
X159754733Y-92151276D02*
X159802352Y-92341752D01*
X159802352Y-92341752D02*
X159802352Y-92675085D01*
X159802352Y-92675085D02*
X159754733Y-92865561D01*
X159754733Y-92865561D02*
X159659495Y-92960800D01*
X159659495Y-92960800D02*
X159564257Y-93008419D01*
X159564257Y-93008419D02*
X159373781Y-93008419D01*
X160135686Y-92008419D02*
X160754733Y-92008419D01*
X160754733Y-92008419D02*
X160421400Y-92389371D01*
X160421400Y-92389371D02*
X160564257Y-92389371D01*
X160564257Y-92389371D02*
X160659495Y-92436990D01*
X160659495Y-92436990D02*
X160707114Y-92484609D01*
X160707114Y-92484609D02*
X160754733Y-92579847D01*
X160754733Y-92579847D02*
X160754733Y-92817942D01*
X160754733Y-92817942D02*
X160707114Y-92913180D01*
X160707114Y-92913180D02*
X160659495Y-92960800D01*
X160659495Y-92960800D02*
X160564257Y-93008419D01*
X160564257Y-93008419D02*
X160278543Y-93008419D01*
X160278543Y-93008419D02*
X160183305Y-92960800D01*
X160183305Y-92960800D02*
X160135686Y-92913180D01*
X161611876Y-92341752D02*
X161611876Y-93008419D01*
X161373781Y-91960800D02*
X161135686Y-92675085D01*
X161135686Y-92675085D02*
X161754733Y-92675085D01*
X148374171Y-53784457D02*
X148278933Y-53736838D01*
X148278933Y-53736838D02*
X148183695Y-53641600D01*
X148183695Y-53641600D02*
X148040838Y-53498742D01*
X148040838Y-53498742D02*
X147945600Y-53451123D01*
X147945600Y-53451123D02*
X147850362Y-53451123D01*
X147897981Y-53689219D02*
X147802743Y-53641600D01*
X147802743Y-53641600D02*
X147707505Y-53546361D01*
X147707505Y-53546361D02*
X147659886Y-53355885D01*
X147659886Y-53355885D02*
X147659886Y-53022552D01*
X147659886Y-53022552D02*
X147707505Y-52832076D01*
X147707505Y-52832076D02*
X147802743Y-52736838D01*
X147802743Y-52736838D02*
X147897981Y-52689219D01*
X147897981Y-52689219D02*
X148088457Y-52689219D01*
X148088457Y-52689219D02*
X148183695Y-52736838D01*
X148183695Y-52736838D02*
X148278933Y-52832076D01*
X148278933Y-52832076D02*
X148326552Y-53022552D01*
X148326552Y-53022552D02*
X148326552Y-53355885D01*
X148326552Y-53355885D02*
X148278933Y-53546361D01*
X148278933Y-53546361D02*
X148183695Y-53641600D01*
X148183695Y-53641600D02*
X148088457Y-53689219D01*
X148088457Y-53689219D02*
X147897981Y-53689219D01*
X148707505Y-52784457D02*
X148755124Y-52736838D01*
X148755124Y-52736838D02*
X148850362Y-52689219D01*
X148850362Y-52689219D02*
X149088457Y-52689219D01*
X149088457Y-52689219D02*
X149183695Y-52736838D01*
X149183695Y-52736838D02*
X149231314Y-52784457D01*
X149231314Y-52784457D02*
X149278933Y-52879695D01*
X149278933Y-52879695D02*
X149278933Y-52974933D01*
X149278933Y-52974933D02*
X149231314Y-53117790D01*
X149231314Y-53117790D02*
X148659886Y-53689219D01*
X148659886Y-53689219D02*
X149278933Y-53689219D01*
X150231314Y-53689219D02*
X149659886Y-53689219D01*
X149945600Y-53689219D02*
X149945600Y-52689219D01*
X149945600Y-52689219D02*
X149850362Y-52832076D01*
X149850362Y-52832076D02*
X149755124Y-52927314D01*
X149755124Y-52927314D02*
X149659886Y-52974933D01*
X123983466Y-119336819D02*
X123983466Y-120051104D01*
X123983466Y-120051104D02*
X123935847Y-120193961D01*
X123935847Y-120193961D02*
X123840609Y-120289200D01*
X123840609Y-120289200D02*
X123697752Y-120336819D01*
X123697752Y-120336819D02*
X123602514Y-120336819D01*
X124412038Y-119432057D02*
X124459657Y-119384438D01*
X124459657Y-119384438D02*
X124554895Y-119336819D01*
X124554895Y-119336819D02*
X124792990Y-119336819D01*
X124792990Y-119336819D02*
X124888228Y-119384438D01*
X124888228Y-119384438D02*
X124935847Y-119432057D01*
X124935847Y-119432057D02*
X124983466Y-119527295D01*
X124983466Y-119527295D02*
X124983466Y-119622533D01*
X124983466Y-119622533D02*
X124935847Y-119765390D01*
X124935847Y-119765390D02*
X124364419Y-120336819D01*
X124364419Y-120336819D02*
X124983466Y-120336819D01*
X193198761Y-68516457D02*
X193103523Y-68468838D01*
X193103523Y-68468838D02*
X193008285Y-68373600D01*
X193008285Y-68373600D02*
X192865428Y-68230742D01*
X192865428Y-68230742D02*
X192770190Y-68183123D01*
X192770190Y-68183123D02*
X192674952Y-68183123D01*
X192722571Y-68421219D02*
X192627333Y-68373600D01*
X192627333Y-68373600D02*
X192532095Y-68278361D01*
X192532095Y-68278361D02*
X192484476Y-68087885D01*
X192484476Y-68087885D02*
X192484476Y-67754552D01*
X192484476Y-67754552D02*
X192532095Y-67564076D01*
X192532095Y-67564076D02*
X192627333Y-67468838D01*
X192627333Y-67468838D02*
X192722571Y-67421219D01*
X192722571Y-67421219D02*
X192913047Y-67421219D01*
X192913047Y-67421219D02*
X193008285Y-67468838D01*
X193008285Y-67468838D02*
X193103523Y-67564076D01*
X193103523Y-67564076D02*
X193151142Y-67754552D01*
X193151142Y-67754552D02*
X193151142Y-68087885D01*
X193151142Y-68087885D02*
X193103523Y-68278361D01*
X193103523Y-68278361D02*
X193008285Y-68373600D01*
X193008285Y-68373600D02*
X192913047Y-68421219D01*
X192913047Y-68421219D02*
X192722571Y-68421219D01*
X193722571Y-67849790D02*
X193627333Y-67802171D01*
X193627333Y-67802171D02*
X193579714Y-67754552D01*
X193579714Y-67754552D02*
X193532095Y-67659314D01*
X193532095Y-67659314D02*
X193532095Y-67611695D01*
X193532095Y-67611695D02*
X193579714Y-67516457D01*
X193579714Y-67516457D02*
X193627333Y-67468838D01*
X193627333Y-67468838D02*
X193722571Y-67421219D01*
X193722571Y-67421219D02*
X193913047Y-67421219D01*
X193913047Y-67421219D02*
X194008285Y-67468838D01*
X194008285Y-67468838D02*
X194055904Y-67516457D01*
X194055904Y-67516457D02*
X194103523Y-67611695D01*
X194103523Y-67611695D02*
X194103523Y-67659314D01*
X194103523Y-67659314D02*
X194055904Y-67754552D01*
X194055904Y-67754552D02*
X194008285Y-67802171D01*
X194008285Y-67802171D02*
X193913047Y-67849790D01*
X193913047Y-67849790D02*
X193722571Y-67849790D01*
X193722571Y-67849790D02*
X193627333Y-67897409D01*
X193627333Y-67897409D02*
X193579714Y-67945028D01*
X193579714Y-67945028D02*
X193532095Y-68040266D01*
X193532095Y-68040266D02*
X193532095Y-68230742D01*
X193532095Y-68230742D02*
X193579714Y-68325980D01*
X193579714Y-68325980D02*
X193627333Y-68373600D01*
X193627333Y-68373600D02*
X193722571Y-68421219D01*
X193722571Y-68421219D02*
X193913047Y-68421219D01*
X193913047Y-68421219D02*
X194008285Y-68373600D01*
X194008285Y-68373600D02*
X194055904Y-68325980D01*
X194055904Y-68325980D02*
X194103523Y-68230742D01*
X194103523Y-68230742D02*
X194103523Y-68040266D01*
X194103523Y-68040266D02*
X194055904Y-67945028D01*
X194055904Y-67945028D02*
X194008285Y-67897409D01*
X194008285Y-67897409D02*
X193913047Y-67849790D01*
X165641171Y-80302057D02*
X165545933Y-80254438D01*
X165545933Y-80254438D02*
X165450695Y-80159200D01*
X165450695Y-80159200D02*
X165307838Y-80016342D01*
X165307838Y-80016342D02*
X165212600Y-79968723D01*
X165212600Y-79968723D02*
X165117362Y-79968723D01*
X165164981Y-80206819D02*
X165069743Y-80159200D01*
X165069743Y-80159200D02*
X164974505Y-80063961D01*
X164974505Y-80063961D02*
X164926886Y-79873485D01*
X164926886Y-79873485D02*
X164926886Y-79540152D01*
X164926886Y-79540152D02*
X164974505Y-79349676D01*
X164974505Y-79349676D02*
X165069743Y-79254438D01*
X165069743Y-79254438D02*
X165164981Y-79206819D01*
X165164981Y-79206819D02*
X165355457Y-79206819D01*
X165355457Y-79206819D02*
X165450695Y-79254438D01*
X165450695Y-79254438D02*
X165545933Y-79349676D01*
X165545933Y-79349676D02*
X165593552Y-79540152D01*
X165593552Y-79540152D02*
X165593552Y-79873485D01*
X165593552Y-79873485D02*
X165545933Y-80063961D01*
X165545933Y-80063961D02*
X165450695Y-80159200D01*
X165450695Y-80159200D02*
X165355457Y-80206819D01*
X165355457Y-80206819D02*
X165164981Y-80206819D01*
X165926886Y-79206819D02*
X166545933Y-79206819D01*
X166545933Y-79206819D02*
X166212600Y-79587771D01*
X166212600Y-79587771D02*
X166355457Y-79587771D01*
X166355457Y-79587771D02*
X166450695Y-79635390D01*
X166450695Y-79635390D02*
X166498314Y-79683009D01*
X166498314Y-79683009D02*
X166545933Y-79778247D01*
X166545933Y-79778247D02*
X166545933Y-80016342D01*
X166545933Y-80016342D02*
X166498314Y-80111580D01*
X166498314Y-80111580D02*
X166450695Y-80159200D01*
X166450695Y-80159200D02*
X166355457Y-80206819D01*
X166355457Y-80206819D02*
X166069743Y-80206819D01*
X166069743Y-80206819D02*
X165974505Y-80159200D01*
X165974505Y-80159200D02*
X165926886Y-80111580D01*
X167117362Y-79635390D02*
X167022124Y-79587771D01*
X167022124Y-79587771D02*
X166974505Y-79540152D01*
X166974505Y-79540152D02*
X166926886Y-79444914D01*
X166926886Y-79444914D02*
X166926886Y-79397295D01*
X166926886Y-79397295D02*
X166974505Y-79302057D01*
X166974505Y-79302057D02*
X167022124Y-79254438D01*
X167022124Y-79254438D02*
X167117362Y-79206819D01*
X167117362Y-79206819D02*
X167307838Y-79206819D01*
X167307838Y-79206819D02*
X167403076Y-79254438D01*
X167403076Y-79254438D02*
X167450695Y-79302057D01*
X167450695Y-79302057D02*
X167498314Y-79397295D01*
X167498314Y-79397295D02*
X167498314Y-79444914D01*
X167498314Y-79444914D02*
X167450695Y-79540152D01*
X167450695Y-79540152D02*
X167403076Y-79587771D01*
X167403076Y-79587771D02*
X167307838Y-79635390D01*
X167307838Y-79635390D02*
X167117362Y-79635390D01*
X167117362Y-79635390D02*
X167022124Y-79683009D01*
X167022124Y-79683009D02*
X166974505Y-79730628D01*
X166974505Y-79730628D02*
X166926886Y-79825866D01*
X166926886Y-79825866D02*
X166926886Y-80016342D01*
X166926886Y-80016342D02*
X166974505Y-80111580D01*
X166974505Y-80111580D02*
X167022124Y-80159200D01*
X167022124Y-80159200D02*
X167117362Y-80206819D01*
X167117362Y-80206819D02*
X167307838Y-80206819D01*
X167307838Y-80206819D02*
X167403076Y-80159200D01*
X167403076Y-80159200D02*
X167450695Y-80111580D01*
X167450695Y-80111580D02*
X167498314Y-80016342D01*
X167498314Y-80016342D02*
X167498314Y-79825866D01*
X167498314Y-79825866D02*
X167450695Y-79730628D01*
X167450695Y-79730628D02*
X167403076Y-79683009D01*
X167403076Y-79683009D02*
X167307838Y-79635390D01*
X137267961Y-53784457D02*
X137172723Y-53736838D01*
X137172723Y-53736838D02*
X137077485Y-53641600D01*
X137077485Y-53641600D02*
X136934628Y-53498742D01*
X136934628Y-53498742D02*
X136839390Y-53451123D01*
X136839390Y-53451123D02*
X136744152Y-53451123D01*
X136791771Y-53689219D02*
X136696533Y-53641600D01*
X136696533Y-53641600D02*
X136601295Y-53546361D01*
X136601295Y-53546361D02*
X136553676Y-53355885D01*
X136553676Y-53355885D02*
X136553676Y-53022552D01*
X136553676Y-53022552D02*
X136601295Y-52832076D01*
X136601295Y-52832076D02*
X136696533Y-52736838D01*
X136696533Y-52736838D02*
X136791771Y-52689219D01*
X136791771Y-52689219D02*
X136982247Y-52689219D01*
X136982247Y-52689219D02*
X137077485Y-52736838D01*
X137077485Y-52736838D02*
X137172723Y-52832076D01*
X137172723Y-52832076D02*
X137220342Y-53022552D01*
X137220342Y-53022552D02*
X137220342Y-53355885D01*
X137220342Y-53355885D02*
X137172723Y-53546361D01*
X137172723Y-53546361D02*
X137077485Y-53641600D01*
X137077485Y-53641600D02*
X136982247Y-53689219D01*
X136982247Y-53689219D02*
X136791771Y-53689219D01*
X138125104Y-52689219D02*
X137648914Y-52689219D01*
X137648914Y-52689219D02*
X137601295Y-53165409D01*
X137601295Y-53165409D02*
X137648914Y-53117790D01*
X137648914Y-53117790D02*
X137744152Y-53070171D01*
X137744152Y-53070171D02*
X137982247Y-53070171D01*
X137982247Y-53070171D02*
X138077485Y-53117790D01*
X138077485Y-53117790D02*
X138125104Y-53165409D01*
X138125104Y-53165409D02*
X138172723Y-53260647D01*
X138172723Y-53260647D02*
X138172723Y-53498742D01*
X138172723Y-53498742D02*
X138125104Y-53593980D01*
X138125104Y-53593980D02*
X138077485Y-53641600D01*
X138077485Y-53641600D02*
X137982247Y-53689219D01*
X137982247Y-53689219D02*
X137744152Y-53689219D01*
X137744152Y-53689219D02*
X137648914Y-53641600D01*
X137648914Y-53641600D02*
X137601295Y-53593980D01*
X148369171Y-80302057D02*
X148273933Y-80254438D01*
X148273933Y-80254438D02*
X148178695Y-80159200D01*
X148178695Y-80159200D02*
X148035838Y-80016342D01*
X148035838Y-80016342D02*
X147940600Y-79968723D01*
X147940600Y-79968723D02*
X147845362Y-79968723D01*
X147892981Y-80206819D02*
X147797743Y-80159200D01*
X147797743Y-80159200D02*
X147702505Y-80063961D01*
X147702505Y-80063961D02*
X147654886Y-79873485D01*
X147654886Y-79873485D02*
X147654886Y-79540152D01*
X147654886Y-79540152D02*
X147702505Y-79349676D01*
X147702505Y-79349676D02*
X147797743Y-79254438D01*
X147797743Y-79254438D02*
X147892981Y-79206819D01*
X147892981Y-79206819D02*
X148083457Y-79206819D01*
X148083457Y-79206819D02*
X148178695Y-79254438D01*
X148178695Y-79254438D02*
X148273933Y-79349676D01*
X148273933Y-79349676D02*
X148321552Y-79540152D01*
X148321552Y-79540152D02*
X148321552Y-79873485D01*
X148321552Y-79873485D02*
X148273933Y-80063961D01*
X148273933Y-80063961D02*
X148178695Y-80159200D01*
X148178695Y-80159200D02*
X148083457Y-80206819D01*
X148083457Y-80206819D02*
X147892981Y-80206819D01*
X148702505Y-79302057D02*
X148750124Y-79254438D01*
X148750124Y-79254438D02*
X148845362Y-79206819D01*
X148845362Y-79206819D02*
X149083457Y-79206819D01*
X149083457Y-79206819D02*
X149178695Y-79254438D01*
X149178695Y-79254438D02*
X149226314Y-79302057D01*
X149226314Y-79302057D02*
X149273933Y-79397295D01*
X149273933Y-79397295D02*
X149273933Y-79492533D01*
X149273933Y-79492533D02*
X149226314Y-79635390D01*
X149226314Y-79635390D02*
X148654886Y-80206819D01*
X148654886Y-80206819D02*
X149273933Y-80206819D01*
X149607267Y-79206819D02*
X150226314Y-79206819D01*
X150226314Y-79206819D02*
X149892981Y-79587771D01*
X149892981Y-79587771D02*
X150035838Y-79587771D01*
X150035838Y-79587771D02*
X150131076Y-79635390D01*
X150131076Y-79635390D02*
X150178695Y-79683009D01*
X150178695Y-79683009D02*
X150226314Y-79778247D01*
X150226314Y-79778247D02*
X150226314Y-80016342D01*
X150226314Y-80016342D02*
X150178695Y-80111580D01*
X150178695Y-80111580D02*
X150131076Y-80159200D01*
X150131076Y-80159200D02*
X150035838Y-80206819D01*
X150035838Y-80206819D02*
X149750124Y-80206819D01*
X149750124Y-80206819D02*
X149654886Y-80159200D01*
X149654886Y-80159200D02*
X149607267Y-80111580D01*
X194092533Y-74182419D02*
X193759200Y-73706228D01*
X193521105Y-74182419D02*
X193521105Y-73182419D01*
X193521105Y-73182419D02*
X193902057Y-73182419D01*
X193902057Y-73182419D02*
X193997295Y-73230038D01*
X193997295Y-73230038D02*
X194044914Y-73277657D01*
X194044914Y-73277657D02*
X194092533Y-73372895D01*
X194092533Y-73372895D02*
X194092533Y-73515752D01*
X194092533Y-73515752D02*
X194044914Y-73610990D01*
X194044914Y-73610990D02*
X193997295Y-73658609D01*
X193997295Y-73658609D02*
X193902057Y-73706228D01*
X193902057Y-73706228D02*
X193521105Y-73706228D01*
X194997295Y-73182419D02*
X194521105Y-73182419D01*
X194521105Y-73182419D02*
X194473486Y-73658609D01*
X194473486Y-73658609D02*
X194521105Y-73610990D01*
X194521105Y-73610990D02*
X194616343Y-73563371D01*
X194616343Y-73563371D02*
X194854438Y-73563371D01*
X194854438Y-73563371D02*
X194949676Y-73610990D01*
X194949676Y-73610990D02*
X194997295Y-73658609D01*
X194997295Y-73658609D02*
X195044914Y-73753847D01*
X195044914Y-73753847D02*
X195044914Y-73991942D01*
X195044914Y-73991942D02*
X194997295Y-74087180D01*
X194997295Y-74087180D02*
X194949676Y-74134800D01*
X194949676Y-74134800D02*
X194854438Y-74182419D01*
X194854438Y-74182419D02*
X194616343Y-74182419D01*
X194616343Y-74182419D02*
X194521105Y-74134800D01*
X194521105Y-74134800D02*
X194473486Y-74087180D01*
X165493771Y-53784457D02*
X165398533Y-53736838D01*
X165398533Y-53736838D02*
X165303295Y-53641600D01*
X165303295Y-53641600D02*
X165160438Y-53498742D01*
X165160438Y-53498742D02*
X165065200Y-53451123D01*
X165065200Y-53451123D02*
X164969962Y-53451123D01*
X165017581Y-53689219D02*
X164922343Y-53641600D01*
X164922343Y-53641600D02*
X164827105Y-53546361D01*
X164827105Y-53546361D02*
X164779486Y-53355885D01*
X164779486Y-53355885D02*
X164779486Y-53022552D01*
X164779486Y-53022552D02*
X164827105Y-52832076D01*
X164827105Y-52832076D02*
X164922343Y-52736838D01*
X164922343Y-52736838D02*
X165017581Y-52689219D01*
X165017581Y-52689219D02*
X165208057Y-52689219D01*
X165208057Y-52689219D02*
X165303295Y-52736838D01*
X165303295Y-52736838D02*
X165398533Y-52832076D01*
X165398533Y-52832076D02*
X165446152Y-53022552D01*
X165446152Y-53022552D02*
X165446152Y-53355885D01*
X165446152Y-53355885D02*
X165398533Y-53546361D01*
X165398533Y-53546361D02*
X165303295Y-53641600D01*
X165303295Y-53641600D02*
X165208057Y-53689219D01*
X165208057Y-53689219D02*
X165017581Y-53689219D01*
X165779486Y-52689219D02*
X166398533Y-52689219D01*
X166398533Y-52689219D02*
X166065200Y-53070171D01*
X166065200Y-53070171D02*
X166208057Y-53070171D01*
X166208057Y-53070171D02*
X166303295Y-53117790D01*
X166303295Y-53117790D02*
X166350914Y-53165409D01*
X166350914Y-53165409D02*
X166398533Y-53260647D01*
X166398533Y-53260647D02*
X166398533Y-53498742D01*
X166398533Y-53498742D02*
X166350914Y-53593980D01*
X166350914Y-53593980D02*
X166303295Y-53641600D01*
X166303295Y-53641600D02*
X166208057Y-53689219D01*
X166208057Y-53689219D02*
X165922343Y-53689219D01*
X165922343Y-53689219D02*
X165827105Y-53641600D01*
X165827105Y-53641600D02*
X165779486Y-53593980D01*
X167255676Y-52689219D02*
X167065200Y-52689219D01*
X167065200Y-52689219D02*
X166969962Y-52736838D01*
X166969962Y-52736838D02*
X166922343Y-52784457D01*
X166922343Y-52784457D02*
X166827105Y-52927314D01*
X166827105Y-52927314D02*
X166779486Y-53117790D01*
X166779486Y-53117790D02*
X166779486Y-53498742D01*
X166779486Y-53498742D02*
X166827105Y-53593980D01*
X166827105Y-53593980D02*
X166874724Y-53641600D01*
X166874724Y-53641600D02*
X166969962Y-53689219D01*
X166969962Y-53689219D02*
X167160438Y-53689219D01*
X167160438Y-53689219D02*
X167255676Y-53641600D01*
X167255676Y-53641600D02*
X167303295Y-53593980D01*
X167303295Y-53593980D02*
X167350914Y-53498742D01*
X167350914Y-53498742D02*
X167350914Y-53260647D01*
X167350914Y-53260647D02*
X167303295Y-53165409D01*
X167303295Y-53165409D02*
X167255676Y-53117790D01*
X167255676Y-53117790D02*
X167160438Y-53070171D01*
X167160438Y-53070171D02*
X166969962Y-53070171D01*
X166969962Y-53070171D02*
X166874724Y-53117790D01*
X166874724Y-53117790D02*
X166827105Y-53165409D01*
X166827105Y-53165409D02*
X166779486Y-53260647D01*
X149682733Y-114974819D02*
X149349400Y-114498628D01*
X149111305Y-114974819D02*
X149111305Y-113974819D01*
X149111305Y-113974819D02*
X149492257Y-113974819D01*
X149492257Y-113974819D02*
X149587495Y-114022438D01*
X149587495Y-114022438D02*
X149635114Y-114070057D01*
X149635114Y-114070057D02*
X149682733Y-114165295D01*
X149682733Y-114165295D02*
X149682733Y-114308152D01*
X149682733Y-114308152D02*
X149635114Y-114403390D01*
X149635114Y-114403390D02*
X149587495Y-114451009D01*
X149587495Y-114451009D02*
X149492257Y-114498628D01*
X149492257Y-114498628D02*
X149111305Y-114498628D01*
X150158924Y-114974819D02*
X150349400Y-114974819D01*
X150349400Y-114974819D02*
X150444638Y-114927200D01*
X150444638Y-114927200D02*
X150492257Y-114879580D01*
X150492257Y-114879580D02*
X150587495Y-114736723D01*
X150587495Y-114736723D02*
X150635114Y-114546247D01*
X150635114Y-114546247D02*
X150635114Y-114165295D01*
X150635114Y-114165295D02*
X150587495Y-114070057D01*
X150587495Y-114070057D02*
X150539876Y-114022438D01*
X150539876Y-114022438D02*
X150444638Y-113974819D01*
X150444638Y-113974819D02*
X150254162Y-113974819D01*
X150254162Y-113974819D02*
X150158924Y-114022438D01*
X150158924Y-114022438D02*
X150111305Y-114070057D01*
X150111305Y-114070057D02*
X150063686Y-114165295D01*
X150063686Y-114165295D02*
X150063686Y-114403390D01*
X150063686Y-114403390D02*
X150111305Y-114498628D01*
X150111305Y-114498628D02*
X150158924Y-114546247D01*
X150158924Y-114546247D02*
X150254162Y-114593866D01*
X150254162Y-114593866D02*
X150444638Y-114593866D01*
X150444638Y-114593866D02*
X150539876Y-114546247D01*
X150539876Y-114546247D02*
X150587495Y-114498628D01*
X150587495Y-114498628D02*
X150635114Y-114403390D01*
X171229171Y-67144857D02*
X171133933Y-67097238D01*
X171133933Y-67097238D02*
X171038695Y-67002000D01*
X171038695Y-67002000D02*
X170895838Y-66859142D01*
X170895838Y-66859142D02*
X170800600Y-66811523D01*
X170800600Y-66811523D02*
X170705362Y-66811523D01*
X170752981Y-67049619D02*
X170657743Y-67002000D01*
X170657743Y-67002000D02*
X170562505Y-66906761D01*
X170562505Y-66906761D02*
X170514886Y-66716285D01*
X170514886Y-66716285D02*
X170514886Y-66382952D01*
X170514886Y-66382952D02*
X170562505Y-66192476D01*
X170562505Y-66192476D02*
X170657743Y-66097238D01*
X170657743Y-66097238D02*
X170752981Y-66049619D01*
X170752981Y-66049619D02*
X170943457Y-66049619D01*
X170943457Y-66049619D02*
X171038695Y-66097238D01*
X171038695Y-66097238D02*
X171133933Y-66192476D01*
X171133933Y-66192476D02*
X171181552Y-66382952D01*
X171181552Y-66382952D02*
X171181552Y-66716285D01*
X171181552Y-66716285D02*
X171133933Y-66906761D01*
X171133933Y-66906761D02*
X171038695Y-67002000D01*
X171038695Y-67002000D02*
X170943457Y-67049619D01*
X170943457Y-67049619D02*
X170752981Y-67049619D01*
X172038695Y-66382952D02*
X172038695Y-67049619D01*
X171800600Y-66002000D02*
X171562505Y-66716285D01*
X171562505Y-66716285D02*
X172181552Y-66716285D01*
X172514886Y-66144857D02*
X172562505Y-66097238D01*
X172562505Y-66097238D02*
X172657743Y-66049619D01*
X172657743Y-66049619D02*
X172895838Y-66049619D01*
X172895838Y-66049619D02*
X172991076Y-66097238D01*
X172991076Y-66097238D02*
X173038695Y-66144857D01*
X173038695Y-66144857D02*
X173086314Y-66240095D01*
X173086314Y-66240095D02*
X173086314Y-66335333D01*
X173086314Y-66335333D02*
X173038695Y-66478190D01*
X173038695Y-66478190D02*
X172467267Y-67049619D01*
X172467267Y-67049619D02*
X173086314Y-67049619D01*
X166402742Y-114974819D02*
X166069409Y-114498628D01*
X165831314Y-114974819D02*
X165831314Y-113974819D01*
X165831314Y-113974819D02*
X166212266Y-113974819D01*
X166212266Y-113974819D02*
X166307504Y-114022438D01*
X166307504Y-114022438D02*
X166355123Y-114070057D01*
X166355123Y-114070057D02*
X166402742Y-114165295D01*
X166402742Y-114165295D02*
X166402742Y-114308152D01*
X166402742Y-114308152D02*
X166355123Y-114403390D01*
X166355123Y-114403390D02*
X166307504Y-114451009D01*
X166307504Y-114451009D02*
X166212266Y-114498628D01*
X166212266Y-114498628D02*
X165831314Y-114498628D01*
X167355123Y-114974819D02*
X166783695Y-114974819D01*
X167069409Y-114974819D02*
X167069409Y-113974819D01*
X167069409Y-113974819D02*
X166974171Y-114117676D01*
X166974171Y-114117676D02*
X166878933Y-114212914D01*
X166878933Y-114212914D02*
X166783695Y-114260533D01*
X167736076Y-114070057D02*
X167783695Y-114022438D01*
X167783695Y-114022438D02*
X167878933Y-113974819D01*
X167878933Y-113974819D02*
X168117028Y-113974819D01*
X168117028Y-113974819D02*
X168212266Y-114022438D01*
X168212266Y-114022438D02*
X168259885Y-114070057D01*
X168259885Y-114070057D02*
X168307504Y-114165295D01*
X168307504Y-114165295D02*
X168307504Y-114260533D01*
X168307504Y-114260533D02*
X168259885Y-114403390D01*
X168259885Y-114403390D02*
X167688457Y-114974819D01*
X167688457Y-114974819D02*
X168307504Y-114974819D01*
X193975733Y-66765619D02*
X193642400Y-66289428D01*
X193404305Y-66765619D02*
X193404305Y-65765619D01*
X193404305Y-65765619D02*
X193785257Y-65765619D01*
X193785257Y-65765619D02*
X193880495Y-65813238D01*
X193880495Y-65813238D02*
X193928114Y-65860857D01*
X193928114Y-65860857D02*
X193975733Y-65956095D01*
X193975733Y-65956095D02*
X193975733Y-66098952D01*
X193975733Y-66098952D02*
X193928114Y-66194190D01*
X193928114Y-66194190D02*
X193880495Y-66241809D01*
X193880495Y-66241809D02*
X193785257Y-66289428D01*
X193785257Y-66289428D02*
X193404305Y-66289428D01*
X194356686Y-65860857D02*
X194404305Y-65813238D01*
X194404305Y-65813238D02*
X194499543Y-65765619D01*
X194499543Y-65765619D02*
X194737638Y-65765619D01*
X194737638Y-65765619D02*
X194832876Y-65813238D01*
X194832876Y-65813238D02*
X194880495Y-65860857D01*
X194880495Y-65860857D02*
X194928114Y-65956095D01*
X194928114Y-65956095D02*
X194928114Y-66051333D01*
X194928114Y-66051333D02*
X194880495Y-66194190D01*
X194880495Y-66194190D02*
X194309067Y-66765619D01*
X194309067Y-66765619D02*
X194928114Y-66765619D01*
X131522561Y-80302057D02*
X131427323Y-80254438D01*
X131427323Y-80254438D02*
X131332085Y-80159200D01*
X131332085Y-80159200D02*
X131189228Y-80016342D01*
X131189228Y-80016342D02*
X131093990Y-79968723D01*
X131093990Y-79968723D02*
X130998752Y-79968723D01*
X131046371Y-80206819D02*
X130951133Y-80159200D01*
X130951133Y-80159200D02*
X130855895Y-80063961D01*
X130855895Y-80063961D02*
X130808276Y-79873485D01*
X130808276Y-79873485D02*
X130808276Y-79540152D01*
X130808276Y-79540152D02*
X130855895Y-79349676D01*
X130855895Y-79349676D02*
X130951133Y-79254438D01*
X130951133Y-79254438D02*
X131046371Y-79206819D01*
X131046371Y-79206819D02*
X131236847Y-79206819D01*
X131236847Y-79206819D02*
X131332085Y-79254438D01*
X131332085Y-79254438D02*
X131427323Y-79349676D01*
X131427323Y-79349676D02*
X131474942Y-79540152D01*
X131474942Y-79540152D02*
X131474942Y-79873485D01*
X131474942Y-79873485D02*
X131427323Y-80063961D01*
X131427323Y-80063961D02*
X131332085Y-80159200D01*
X131332085Y-80159200D02*
X131236847Y-80206819D01*
X131236847Y-80206819D02*
X131046371Y-80206819D01*
X131951133Y-80206819D02*
X132141609Y-80206819D01*
X132141609Y-80206819D02*
X132236847Y-80159200D01*
X132236847Y-80159200D02*
X132284466Y-80111580D01*
X132284466Y-80111580D02*
X132379704Y-79968723D01*
X132379704Y-79968723D02*
X132427323Y-79778247D01*
X132427323Y-79778247D02*
X132427323Y-79397295D01*
X132427323Y-79397295D02*
X132379704Y-79302057D01*
X132379704Y-79302057D02*
X132332085Y-79254438D01*
X132332085Y-79254438D02*
X132236847Y-79206819D01*
X132236847Y-79206819D02*
X132046371Y-79206819D01*
X132046371Y-79206819D02*
X131951133Y-79254438D01*
X131951133Y-79254438D02*
X131903514Y-79302057D01*
X131903514Y-79302057D02*
X131855895Y-79397295D01*
X131855895Y-79397295D02*
X131855895Y-79635390D01*
X131855895Y-79635390D02*
X131903514Y-79730628D01*
X131903514Y-79730628D02*
X131951133Y-79778247D01*
X131951133Y-79778247D02*
X132046371Y-79825866D01*
X132046371Y-79825866D02*
X132236847Y-79825866D01*
X132236847Y-79825866D02*
X132332085Y-79778247D01*
X132332085Y-79778247D02*
X132379704Y-79730628D01*
X132379704Y-79730628D02*
X132427323Y-79635390D01*
X148267571Y-67144857D02*
X148172333Y-67097238D01*
X148172333Y-67097238D02*
X148077095Y-67002000D01*
X148077095Y-67002000D02*
X147934238Y-66859142D01*
X147934238Y-66859142D02*
X147839000Y-66811523D01*
X147839000Y-66811523D02*
X147743762Y-66811523D01*
X147791381Y-67049619D02*
X147696143Y-67002000D01*
X147696143Y-67002000D02*
X147600905Y-66906761D01*
X147600905Y-66906761D02*
X147553286Y-66716285D01*
X147553286Y-66716285D02*
X147553286Y-66382952D01*
X147553286Y-66382952D02*
X147600905Y-66192476D01*
X147600905Y-66192476D02*
X147696143Y-66097238D01*
X147696143Y-66097238D02*
X147791381Y-66049619D01*
X147791381Y-66049619D02*
X147981857Y-66049619D01*
X147981857Y-66049619D02*
X148077095Y-66097238D01*
X148077095Y-66097238D02*
X148172333Y-66192476D01*
X148172333Y-66192476D02*
X148219952Y-66382952D01*
X148219952Y-66382952D02*
X148219952Y-66716285D01*
X148219952Y-66716285D02*
X148172333Y-66906761D01*
X148172333Y-66906761D02*
X148077095Y-67002000D01*
X148077095Y-67002000D02*
X147981857Y-67049619D01*
X147981857Y-67049619D02*
X147791381Y-67049619D01*
X148600905Y-66144857D02*
X148648524Y-66097238D01*
X148648524Y-66097238D02*
X148743762Y-66049619D01*
X148743762Y-66049619D02*
X148981857Y-66049619D01*
X148981857Y-66049619D02*
X149077095Y-66097238D01*
X149077095Y-66097238D02*
X149124714Y-66144857D01*
X149124714Y-66144857D02*
X149172333Y-66240095D01*
X149172333Y-66240095D02*
X149172333Y-66335333D01*
X149172333Y-66335333D02*
X149124714Y-66478190D01*
X149124714Y-66478190D02*
X148553286Y-67049619D01*
X148553286Y-67049619D02*
X149172333Y-67049619D01*
X149553286Y-66144857D02*
X149600905Y-66097238D01*
X149600905Y-66097238D02*
X149696143Y-66049619D01*
X149696143Y-66049619D02*
X149934238Y-66049619D01*
X149934238Y-66049619D02*
X150029476Y-66097238D01*
X150029476Y-66097238D02*
X150077095Y-66144857D01*
X150077095Y-66144857D02*
X150124714Y-66240095D01*
X150124714Y-66240095D02*
X150124714Y-66335333D01*
X150124714Y-66335333D02*
X150077095Y-66478190D01*
X150077095Y-66478190D02*
X149505667Y-67049619D01*
X149505667Y-67049619D02*
X150124714Y-67049619D01*
X182760771Y-93103657D02*
X182665533Y-93056038D01*
X182665533Y-93056038D02*
X182570295Y-92960800D01*
X182570295Y-92960800D02*
X182427438Y-92817942D01*
X182427438Y-92817942D02*
X182332200Y-92770323D01*
X182332200Y-92770323D02*
X182236962Y-92770323D01*
X182284581Y-93008419D02*
X182189343Y-92960800D01*
X182189343Y-92960800D02*
X182094105Y-92865561D01*
X182094105Y-92865561D02*
X182046486Y-92675085D01*
X182046486Y-92675085D02*
X182046486Y-92341752D01*
X182046486Y-92341752D02*
X182094105Y-92151276D01*
X182094105Y-92151276D02*
X182189343Y-92056038D01*
X182189343Y-92056038D02*
X182284581Y-92008419D01*
X182284581Y-92008419D02*
X182475057Y-92008419D01*
X182475057Y-92008419D02*
X182570295Y-92056038D01*
X182570295Y-92056038D02*
X182665533Y-92151276D01*
X182665533Y-92151276D02*
X182713152Y-92341752D01*
X182713152Y-92341752D02*
X182713152Y-92675085D01*
X182713152Y-92675085D02*
X182665533Y-92865561D01*
X182665533Y-92865561D02*
X182570295Y-92960800D01*
X182570295Y-92960800D02*
X182475057Y-93008419D01*
X182475057Y-93008419D02*
X182284581Y-93008419D01*
X183617914Y-92008419D02*
X183141724Y-92008419D01*
X183141724Y-92008419D02*
X183094105Y-92484609D01*
X183094105Y-92484609D02*
X183141724Y-92436990D01*
X183141724Y-92436990D02*
X183236962Y-92389371D01*
X183236962Y-92389371D02*
X183475057Y-92389371D01*
X183475057Y-92389371D02*
X183570295Y-92436990D01*
X183570295Y-92436990D02*
X183617914Y-92484609D01*
X183617914Y-92484609D02*
X183665533Y-92579847D01*
X183665533Y-92579847D02*
X183665533Y-92817942D01*
X183665533Y-92817942D02*
X183617914Y-92913180D01*
X183617914Y-92913180D02*
X183570295Y-92960800D01*
X183570295Y-92960800D02*
X183475057Y-93008419D01*
X183475057Y-93008419D02*
X183236962Y-93008419D01*
X183236962Y-93008419D02*
X183141724Y-92960800D01*
X183141724Y-92960800D02*
X183094105Y-92913180D01*
X184522676Y-92341752D02*
X184522676Y-93008419D01*
X184284581Y-91960800D02*
X184046486Y-92675085D01*
X184046486Y-92675085D02*
X184665533Y-92675085D01*
X113134876Y-103339619D02*
X113134876Y-104053904D01*
X113134876Y-104053904D02*
X113087257Y-104196761D01*
X113087257Y-104196761D02*
X112992019Y-104292000D01*
X112992019Y-104292000D02*
X112849162Y-104339619D01*
X112849162Y-104339619D02*
X112753924Y-104339619D01*
X114087257Y-103339619D02*
X113611067Y-103339619D01*
X113611067Y-103339619D02*
X113563448Y-103815809D01*
X113563448Y-103815809D02*
X113611067Y-103768190D01*
X113611067Y-103768190D02*
X113706305Y-103720571D01*
X113706305Y-103720571D02*
X113944400Y-103720571D01*
X113944400Y-103720571D02*
X114039638Y-103768190D01*
X114039638Y-103768190D02*
X114087257Y-103815809D01*
X114087257Y-103815809D02*
X114134876Y-103911047D01*
X114134876Y-103911047D02*
X114134876Y-104149142D01*
X114134876Y-104149142D02*
X114087257Y-104244380D01*
X114087257Y-104244380D02*
X114039638Y-104292000D01*
X114039638Y-104292000D02*
X113944400Y-104339619D01*
X113944400Y-104339619D02*
X113706305Y-104339619D01*
X113706305Y-104339619D02*
X113611067Y-104292000D01*
X113611067Y-104292000D02*
X113563448Y-104244380D01*
X115039638Y-103339619D02*
X114563448Y-103339619D01*
X114563448Y-103339619D02*
X114515829Y-103815809D01*
X114515829Y-103815809D02*
X114563448Y-103768190D01*
X114563448Y-103768190D02*
X114658686Y-103720571D01*
X114658686Y-103720571D02*
X114896781Y-103720571D01*
X114896781Y-103720571D02*
X114992019Y-103768190D01*
X114992019Y-103768190D02*
X115039638Y-103815809D01*
X115039638Y-103815809D02*
X115087257Y-103911047D01*
X115087257Y-103911047D02*
X115087257Y-104149142D01*
X115087257Y-104149142D02*
X115039638Y-104244380D01*
X115039638Y-104244380D02*
X114992019Y-104292000D01*
X114992019Y-104292000D02*
X114896781Y-104339619D01*
X114896781Y-104339619D02*
X114658686Y-104339619D01*
X114658686Y-104339619D02*
X114563448Y-104292000D01*
X114563448Y-104292000D02*
X114515829Y-104244380D01*
X148323371Y-106667257D02*
X148228133Y-106619638D01*
X148228133Y-106619638D02*
X148132895Y-106524400D01*
X148132895Y-106524400D02*
X147990038Y-106381542D01*
X147990038Y-106381542D02*
X147894800Y-106333923D01*
X147894800Y-106333923D02*
X147799562Y-106333923D01*
X147847181Y-106572019D02*
X147751943Y-106524400D01*
X147751943Y-106524400D02*
X147656705Y-106429161D01*
X147656705Y-106429161D02*
X147609086Y-106238685D01*
X147609086Y-106238685D02*
X147609086Y-105905352D01*
X147609086Y-105905352D02*
X147656705Y-105714876D01*
X147656705Y-105714876D02*
X147751943Y-105619638D01*
X147751943Y-105619638D02*
X147847181Y-105572019D01*
X147847181Y-105572019D02*
X148037657Y-105572019D01*
X148037657Y-105572019D02*
X148132895Y-105619638D01*
X148132895Y-105619638D02*
X148228133Y-105714876D01*
X148228133Y-105714876D02*
X148275752Y-105905352D01*
X148275752Y-105905352D02*
X148275752Y-106238685D01*
X148275752Y-106238685D02*
X148228133Y-106429161D01*
X148228133Y-106429161D02*
X148132895Y-106524400D01*
X148132895Y-106524400D02*
X148037657Y-106572019D01*
X148037657Y-106572019D02*
X147847181Y-106572019D01*
X148656705Y-105667257D02*
X148704324Y-105619638D01*
X148704324Y-105619638D02*
X148799562Y-105572019D01*
X148799562Y-105572019D02*
X149037657Y-105572019D01*
X149037657Y-105572019D02*
X149132895Y-105619638D01*
X149132895Y-105619638D02*
X149180514Y-105667257D01*
X149180514Y-105667257D02*
X149228133Y-105762495D01*
X149228133Y-105762495D02*
X149228133Y-105857733D01*
X149228133Y-105857733D02*
X149180514Y-106000590D01*
X149180514Y-106000590D02*
X148609086Y-106572019D01*
X148609086Y-106572019D02*
X149228133Y-106572019D01*
X150132895Y-105572019D02*
X149656705Y-105572019D01*
X149656705Y-105572019D02*
X149609086Y-106048209D01*
X149609086Y-106048209D02*
X149656705Y-106000590D01*
X149656705Y-106000590D02*
X149751943Y-105952971D01*
X149751943Y-105952971D02*
X149990038Y-105952971D01*
X149990038Y-105952971D02*
X150085276Y-106000590D01*
X150085276Y-106000590D02*
X150132895Y-106048209D01*
X150132895Y-106048209D02*
X150180514Y-106143447D01*
X150180514Y-106143447D02*
X150180514Y-106381542D01*
X150180514Y-106381542D02*
X150132895Y-106476780D01*
X150132895Y-106476780D02*
X150085276Y-106524400D01*
X150085276Y-106524400D02*
X149990038Y-106572019D01*
X149990038Y-106572019D02*
X149751943Y-106572019D01*
X149751943Y-106572019D02*
X149656705Y-106524400D01*
X149656705Y-106524400D02*
X149609086Y-106476780D01*
X172218942Y-115025619D02*
X171885609Y-114549428D01*
X171647514Y-115025619D02*
X171647514Y-114025619D01*
X171647514Y-114025619D02*
X172028466Y-114025619D01*
X172028466Y-114025619D02*
X172123704Y-114073238D01*
X172123704Y-114073238D02*
X172171323Y-114120857D01*
X172171323Y-114120857D02*
X172218942Y-114216095D01*
X172218942Y-114216095D02*
X172218942Y-114358952D01*
X172218942Y-114358952D02*
X172171323Y-114454190D01*
X172171323Y-114454190D02*
X172123704Y-114501809D01*
X172123704Y-114501809D02*
X172028466Y-114549428D01*
X172028466Y-114549428D02*
X171647514Y-114549428D01*
X173171323Y-115025619D02*
X172599895Y-115025619D01*
X172885609Y-115025619D02*
X172885609Y-114025619D01*
X172885609Y-114025619D02*
X172790371Y-114168476D01*
X172790371Y-114168476D02*
X172695133Y-114263714D01*
X172695133Y-114263714D02*
X172599895Y-114311333D01*
X173504657Y-114025619D02*
X174123704Y-114025619D01*
X174123704Y-114025619D02*
X173790371Y-114406571D01*
X173790371Y-114406571D02*
X173933228Y-114406571D01*
X173933228Y-114406571D02*
X174028466Y-114454190D01*
X174028466Y-114454190D02*
X174076085Y-114501809D01*
X174076085Y-114501809D02*
X174123704Y-114597047D01*
X174123704Y-114597047D02*
X174123704Y-114835142D01*
X174123704Y-114835142D02*
X174076085Y-114930380D01*
X174076085Y-114930380D02*
X174028466Y-114978000D01*
X174028466Y-114978000D02*
X173933228Y-115025619D01*
X173933228Y-115025619D02*
X173647514Y-115025619D01*
X173647514Y-115025619D02*
X173552276Y-114978000D01*
X173552276Y-114978000D02*
X173504657Y-114930380D01*
X171335771Y-106667257D02*
X171240533Y-106619638D01*
X171240533Y-106619638D02*
X171145295Y-106524400D01*
X171145295Y-106524400D02*
X171002438Y-106381542D01*
X171002438Y-106381542D02*
X170907200Y-106333923D01*
X170907200Y-106333923D02*
X170811962Y-106333923D01*
X170859581Y-106572019D02*
X170764343Y-106524400D01*
X170764343Y-106524400D02*
X170669105Y-106429161D01*
X170669105Y-106429161D02*
X170621486Y-106238685D01*
X170621486Y-106238685D02*
X170621486Y-105905352D01*
X170621486Y-105905352D02*
X170669105Y-105714876D01*
X170669105Y-105714876D02*
X170764343Y-105619638D01*
X170764343Y-105619638D02*
X170859581Y-105572019D01*
X170859581Y-105572019D02*
X171050057Y-105572019D01*
X171050057Y-105572019D02*
X171145295Y-105619638D01*
X171145295Y-105619638D02*
X171240533Y-105714876D01*
X171240533Y-105714876D02*
X171288152Y-105905352D01*
X171288152Y-105905352D02*
X171288152Y-106238685D01*
X171288152Y-106238685D02*
X171240533Y-106429161D01*
X171240533Y-106429161D02*
X171145295Y-106524400D01*
X171145295Y-106524400D02*
X171050057Y-106572019D01*
X171050057Y-106572019D02*
X170859581Y-106572019D01*
X172145295Y-105905352D02*
X172145295Y-106572019D01*
X171907200Y-105524400D02*
X171669105Y-106238685D01*
X171669105Y-106238685D02*
X172288152Y-106238685D01*
X173145295Y-105572019D02*
X172669105Y-105572019D01*
X172669105Y-105572019D02*
X172621486Y-106048209D01*
X172621486Y-106048209D02*
X172669105Y-106000590D01*
X172669105Y-106000590D02*
X172764343Y-105952971D01*
X172764343Y-105952971D02*
X173002438Y-105952971D01*
X173002438Y-105952971D02*
X173097676Y-106000590D01*
X173097676Y-106000590D02*
X173145295Y-106048209D01*
X173145295Y-106048209D02*
X173192914Y-106143447D01*
X173192914Y-106143447D02*
X173192914Y-106381542D01*
X173192914Y-106381542D02*
X173145295Y-106476780D01*
X173145295Y-106476780D02*
X173097676Y-106524400D01*
X173097676Y-106524400D02*
X173002438Y-106572019D01*
X173002438Y-106572019D02*
X172764343Y-106572019D01*
X172764343Y-106572019D02*
X172669105Y-106524400D01*
X172669105Y-106524400D02*
X172621486Y-106476780D01*
X182811571Y-80302057D02*
X182716333Y-80254438D01*
X182716333Y-80254438D02*
X182621095Y-80159200D01*
X182621095Y-80159200D02*
X182478238Y-80016342D01*
X182478238Y-80016342D02*
X182383000Y-79968723D01*
X182383000Y-79968723D02*
X182287762Y-79968723D01*
X182335381Y-80206819D02*
X182240143Y-80159200D01*
X182240143Y-80159200D02*
X182144905Y-80063961D01*
X182144905Y-80063961D02*
X182097286Y-79873485D01*
X182097286Y-79873485D02*
X182097286Y-79540152D01*
X182097286Y-79540152D02*
X182144905Y-79349676D01*
X182144905Y-79349676D02*
X182240143Y-79254438D01*
X182240143Y-79254438D02*
X182335381Y-79206819D01*
X182335381Y-79206819D02*
X182525857Y-79206819D01*
X182525857Y-79206819D02*
X182621095Y-79254438D01*
X182621095Y-79254438D02*
X182716333Y-79349676D01*
X182716333Y-79349676D02*
X182763952Y-79540152D01*
X182763952Y-79540152D02*
X182763952Y-79873485D01*
X182763952Y-79873485D02*
X182716333Y-80063961D01*
X182716333Y-80063961D02*
X182621095Y-80159200D01*
X182621095Y-80159200D02*
X182525857Y-80206819D01*
X182525857Y-80206819D02*
X182335381Y-80206819D01*
X183668714Y-79206819D02*
X183192524Y-79206819D01*
X183192524Y-79206819D02*
X183144905Y-79683009D01*
X183144905Y-79683009D02*
X183192524Y-79635390D01*
X183192524Y-79635390D02*
X183287762Y-79587771D01*
X183287762Y-79587771D02*
X183525857Y-79587771D01*
X183525857Y-79587771D02*
X183621095Y-79635390D01*
X183621095Y-79635390D02*
X183668714Y-79683009D01*
X183668714Y-79683009D02*
X183716333Y-79778247D01*
X183716333Y-79778247D02*
X183716333Y-80016342D01*
X183716333Y-80016342D02*
X183668714Y-80111580D01*
X183668714Y-80111580D02*
X183621095Y-80159200D01*
X183621095Y-80159200D02*
X183525857Y-80206819D01*
X183525857Y-80206819D02*
X183287762Y-80206819D01*
X183287762Y-80206819D02*
X183192524Y-80159200D01*
X183192524Y-80159200D02*
X183144905Y-80111580D01*
X184049667Y-79206819D02*
X184668714Y-79206819D01*
X184668714Y-79206819D02*
X184335381Y-79587771D01*
X184335381Y-79587771D02*
X184478238Y-79587771D01*
X184478238Y-79587771D02*
X184573476Y-79635390D01*
X184573476Y-79635390D02*
X184621095Y-79683009D01*
X184621095Y-79683009D02*
X184668714Y-79778247D01*
X184668714Y-79778247D02*
X184668714Y-80016342D01*
X184668714Y-80016342D02*
X184621095Y-80111580D01*
X184621095Y-80111580D02*
X184573476Y-80159200D01*
X184573476Y-80159200D02*
X184478238Y-80206819D01*
X184478238Y-80206819D02*
X184192524Y-80206819D01*
X184192524Y-80206819D02*
X184097286Y-80159200D01*
X184097286Y-80159200D02*
X184049667Y-80111580D01*
X131420961Y-67144857D02*
X131325723Y-67097238D01*
X131325723Y-67097238D02*
X131230485Y-67002000D01*
X131230485Y-67002000D02*
X131087628Y-66859142D01*
X131087628Y-66859142D02*
X130992390Y-66811523D01*
X130992390Y-66811523D02*
X130897152Y-66811523D01*
X130944771Y-67049619D02*
X130849533Y-67002000D01*
X130849533Y-67002000D02*
X130754295Y-66906761D01*
X130754295Y-66906761D02*
X130706676Y-66716285D01*
X130706676Y-66716285D02*
X130706676Y-66382952D01*
X130706676Y-66382952D02*
X130754295Y-66192476D01*
X130754295Y-66192476D02*
X130849533Y-66097238D01*
X130849533Y-66097238D02*
X130944771Y-66049619D01*
X130944771Y-66049619D02*
X131135247Y-66049619D01*
X131135247Y-66049619D02*
X131230485Y-66097238D01*
X131230485Y-66097238D02*
X131325723Y-66192476D01*
X131325723Y-66192476D02*
X131373342Y-66382952D01*
X131373342Y-66382952D02*
X131373342Y-66716285D01*
X131373342Y-66716285D02*
X131325723Y-66906761D01*
X131325723Y-66906761D02*
X131230485Y-67002000D01*
X131230485Y-67002000D02*
X131135247Y-67049619D01*
X131135247Y-67049619D02*
X130944771Y-67049619D01*
X132230485Y-66382952D02*
X132230485Y-67049619D01*
X131992390Y-66002000D02*
X131754295Y-66716285D01*
X131754295Y-66716285D02*
X132373342Y-66716285D01*
X183670142Y-115025619D02*
X183336809Y-114549428D01*
X183098714Y-115025619D02*
X183098714Y-114025619D01*
X183098714Y-114025619D02*
X183479666Y-114025619D01*
X183479666Y-114025619D02*
X183574904Y-114073238D01*
X183574904Y-114073238D02*
X183622523Y-114120857D01*
X183622523Y-114120857D02*
X183670142Y-114216095D01*
X183670142Y-114216095D02*
X183670142Y-114358952D01*
X183670142Y-114358952D02*
X183622523Y-114454190D01*
X183622523Y-114454190D02*
X183574904Y-114501809D01*
X183574904Y-114501809D02*
X183479666Y-114549428D01*
X183479666Y-114549428D02*
X183098714Y-114549428D01*
X184622523Y-115025619D02*
X184051095Y-115025619D01*
X184336809Y-115025619D02*
X184336809Y-114025619D01*
X184336809Y-114025619D02*
X184241571Y-114168476D01*
X184241571Y-114168476D02*
X184146333Y-114263714D01*
X184146333Y-114263714D02*
X184051095Y-114311333D01*
X185527285Y-114025619D02*
X185051095Y-114025619D01*
X185051095Y-114025619D02*
X185003476Y-114501809D01*
X185003476Y-114501809D02*
X185051095Y-114454190D01*
X185051095Y-114454190D02*
X185146333Y-114406571D01*
X185146333Y-114406571D02*
X185384428Y-114406571D01*
X185384428Y-114406571D02*
X185479666Y-114454190D01*
X185479666Y-114454190D02*
X185527285Y-114501809D01*
X185527285Y-114501809D02*
X185574904Y-114597047D01*
X185574904Y-114597047D02*
X185574904Y-114835142D01*
X185574904Y-114835142D02*
X185527285Y-114930380D01*
X185527285Y-114930380D02*
X185479666Y-114978000D01*
X185479666Y-114978000D02*
X185384428Y-115025619D01*
X185384428Y-115025619D02*
X185146333Y-115025619D01*
X185146333Y-115025619D02*
X185051095Y-114978000D01*
X185051095Y-114978000D02*
X185003476Y-114930380D01*
X142430571Y-106667257D02*
X142335333Y-106619638D01*
X142335333Y-106619638D02*
X142240095Y-106524400D01*
X142240095Y-106524400D02*
X142097238Y-106381542D01*
X142097238Y-106381542D02*
X142002000Y-106333923D01*
X142002000Y-106333923D02*
X141906762Y-106333923D01*
X141954381Y-106572019D02*
X141859143Y-106524400D01*
X141859143Y-106524400D02*
X141763905Y-106429161D01*
X141763905Y-106429161D02*
X141716286Y-106238685D01*
X141716286Y-106238685D02*
X141716286Y-105905352D01*
X141716286Y-105905352D02*
X141763905Y-105714876D01*
X141763905Y-105714876D02*
X141859143Y-105619638D01*
X141859143Y-105619638D02*
X141954381Y-105572019D01*
X141954381Y-105572019D02*
X142144857Y-105572019D01*
X142144857Y-105572019D02*
X142240095Y-105619638D01*
X142240095Y-105619638D02*
X142335333Y-105714876D01*
X142335333Y-105714876D02*
X142382952Y-105905352D01*
X142382952Y-105905352D02*
X142382952Y-106238685D01*
X142382952Y-106238685D02*
X142335333Y-106429161D01*
X142335333Y-106429161D02*
X142240095Y-106524400D01*
X142240095Y-106524400D02*
X142144857Y-106572019D01*
X142144857Y-106572019D02*
X141954381Y-106572019D01*
X142763905Y-105667257D02*
X142811524Y-105619638D01*
X142811524Y-105619638D02*
X142906762Y-105572019D01*
X142906762Y-105572019D02*
X143144857Y-105572019D01*
X143144857Y-105572019D02*
X143240095Y-105619638D01*
X143240095Y-105619638D02*
X143287714Y-105667257D01*
X143287714Y-105667257D02*
X143335333Y-105762495D01*
X143335333Y-105762495D02*
X143335333Y-105857733D01*
X143335333Y-105857733D02*
X143287714Y-106000590D01*
X143287714Y-106000590D02*
X142716286Y-106572019D01*
X142716286Y-106572019D02*
X143335333Y-106572019D01*
X143954381Y-105572019D02*
X144049619Y-105572019D01*
X144049619Y-105572019D02*
X144144857Y-105619638D01*
X144144857Y-105619638D02*
X144192476Y-105667257D01*
X144192476Y-105667257D02*
X144240095Y-105762495D01*
X144240095Y-105762495D02*
X144287714Y-105952971D01*
X144287714Y-105952971D02*
X144287714Y-106191066D01*
X144287714Y-106191066D02*
X144240095Y-106381542D01*
X144240095Y-106381542D02*
X144192476Y-106476780D01*
X144192476Y-106476780D02*
X144144857Y-106524400D01*
X144144857Y-106524400D02*
X144049619Y-106572019D01*
X144049619Y-106572019D02*
X143954381Y-106572019D01*
X143954381Y-106572019D02*
X143859143Y-106524400D01*
X143859143Y-106524400D02*
X143811524Y-106476780D01*
X143811524Y-106476780D02*
X143763905Y-106381542D01*
X143763905Y-106381542D02*
X143716286Y-106191066D01*
X143716286Y-106191066D02*
X143716286Y-105952971D01*
X143716286Y-105952971D02*
X143763905Y-105762495D01*
X143763905Y-105762495D02*
X143811524Y-105667257D01*
X143811524Y-105667257D02*
X143859143Y-105619638D01*
X143859143Y-105619638D02*
X143954381Y-105572019D01*
X154114571Y-106667257D02*
X154019333Y-106619638D01*
X154019333Y-106619638D02*
X153924095Y-106524400D01*
X153924095Y-106524400D02*
X153781238Y-106381542D01*
X153781238Y-106381542D02*
X153686000Y-106333923D01*
X153686000Y-106333923D02*
X153590762Y-106333923D01*
X153638381Y-106572019D02*
X153543143Y-106524400D01*
X153543143Y-106524400D02*
X153447905Y-106429161D01*
X153447905Y-106429161D02*
X153400286Y-106238685D01*
X153400286Y-106238685D02*
X153400286Y-105905352D01*
X153400286Y-105905352D02*
X153447905Y-105714876D01*
X153447905Y-105714876D02*
X153543143Y-105619638D01*
X153543143Y-105619638D02*
X153638381Y-105572019D01*
X153638381Y-105572019D02*
X153828857Y-105572019D01*
X153828857Y-105572019D02*
X153924095Y-105619638D01*
X153924095Y-105619638D02*
X154019333Y-105714876D01*
X154019333Y-105714876D02*
X154066952Y-105905352D01*
X154066952Y-105905352D02*
X154066952Y-106238685D01*
X154066952Y-106238685D02*
X154019333Y-106429161D01*
X154019333Y-106429161D02*
X153924095Y-106524400D01*
X153924095Y-106524400D02*
X153828857Y-106572019D01*
X153828857Y-106572019D02*
X153638381Y-106572019D01*
X154400286Y-105572019D02*
X155019333Y-105572019D01*
X155019333Y-105572019D02*
X154686000Y-105952971D01*
X154686000Y-105952971D02*
X154828857Y-105952971D01*
X154828857Y-105952971D02*
X154924095Y-106000590D01*
X154924095Y-106000590D02*
X154971714Y-106048209D01*
X154971714Y-106048209D02*
X155019333Y-106143447D01*
X155019333Y-106143447D02*
X155019333Y-106381542D01*
X155019333Y-106381542D02*
X154971714Y-106476780D01*
X154971714Y-106476780D02*
X154924095Y-106524400D01*
X154924095Y-106524400D02*
X154828857Y-106572019D01*
X154828857Y-106572019D02*
X154543143Y-106572019D01*
X154543143Y-106572019D02*
X154447905Y-106524400D01*
X154447905Y-106524400D02*
X154400286Y-106476780D01*
X155638381Y-105572019D02*
X155733619Y-105572019D01*
X155733619Y-105572019D02*
X155828857Y-105619638D01*
X155828857Y-105619638D02*
X155876476Y-105667257D01*
X155876476Y-105667257D02*
X155924095Y-105762495D01*
X155924095Y-105762495D02*
X155971714Y-105952971D01*
X155971714Y-105952971D02*
X155971714Y-106191066D01*
X155971714Y-106191066D02*
X155924095Y-106381542D01*
X155924095Y-106381542D02*
X155876476Y-106476780D01*
X155876476Y-106476780D02*
X155828857Y-106524400D01*
X155828857Y-106524400D02*
X155733619Y-106572019D01*
X155733619Y-106572019D02*
X155638381Y-106572019D01*
X155638381Y-106572019D02*
X155543143Y-106524400D01*
X155543143Y-106524400D02*
X155495524Y-106476780D01*
X155495524Y-106476780D02*
X155447905Y-106381542D01*
X155447905Y-106381542D02*
X155400286Y-106191066D01*
X155400286Y-106191066D02*
X155400286Y-105952971D01*
X155400286Y-105952971D02*
X155447905Y-105762495D01*
X155447905Y-105762495D02*
X155495524Y-105667257D01*
X155495524Y-105667257D02*
X155543143Y-105619638D01*
X155543143Y-105619638D02*
X155638381Y-105572019D01*
X171381571Y-80302057D02*
X171286333Y-80254438D01*
X171286333Y-80254438D02*
X171191095Y-80159200D01*
X171191095Y-80159200D02*
X171048238Y-80016342D01*
X171048238Y-80016342D02*
X170953000Y-79968723D01*
X170953000Y-79968723D02*
X170857762Y-79968723D01*
X170905381Y-80206819D02*
X170810143Y-80159200D01*
X170810143Y-80159200D02*
X170714905Y-80063961D01*
X170714905Y-80063961D02*
X170667286Y-79873485D01*
X170667286Y-79873485D02*
X170667286Y-79540152D01*
X170667286Y-79540152D02*
X170714905Y-79349676D01*
X170714905Y-79349676D02*
X170810143Y-79254438D01*
X170810143Y-79254438D02*
X170905381Y-79206819D01*
X170905381Y-79206819D02*
X171095857Y-79206819D01*
X171095857Y-79206819D02*
X171191095Y-79254438D01*
X171191095Y-79254438D02*
X171286333Y-79349676D01*
X171286333Y-79349676D02*
X171333952Y-79540152D01*
X171333952Y-79540152D02*
X171333952Y-79873485D01*
X171333952Y-79873485D02*
X171286333Y-80063961D01*
X171286333Y-80063961D02*
X171191095Y-80159200D01*
X171191095Y-80159200D02*
X171095857Y-80206819D01*
X171095857Y-80206819D02*
X170905381Y-80206819D01*
X172191095Y-79540152D02*
X172191095Y-80206819D01*
X171953000Y-79159200D02*
X171714905Y-79873485D01*
X171714905Y-79873485D02*
X172333952Y-79873485D01*
X172619667Y-79206819D02*
X173238714Y-79206819D01*
X173238714Y-79206819D02*
X172905381Y-79587771D01*
X172905381Y-79587771D02*
X173048238Y-79587771D01*
X173048238Y-79587771D02*
X173143476Y-79635390D01*
X173143476Y-79635390D02*
X173191095Y-79683009D01*
X173191095Y-79683009D02*
X173238714Y-79778247D01*
X173238714Y-79778247D02*
X173238714Y-80016342D01*
X173238714Y-80016342D02*
X173191095Y-80111580D01*
X173191095Y-80111580D02*
X173143476Y-80159200D01*
X173143476Y-80159200D02*
X173048238Y-80206819D01*
X173048238Y-80206819D02*
X172762524Y-80206819D01*
X172762524Y-80206819D02*
X172667286Y-80159200D01*
X172667286Y-80159200D02*
X172619667Y-80111580D01*
X109128305Y-115021019D02*
X109128305Y-114021019D01*
X109128305Y-114021019D02*
X109509257Y-114021019D01*
X109509257Y-114021019D02*
X109604495Y-114068638D01*
X109604495Y-114068638D02*
X109652114Y-114116257D01*
X109652114Y-114116257D02*
X109699733Y-114211495D01*
X109699733Y-114211495D02*
X109699733Y-114354352D01*
X109699733Y-114354352D02*
X109652114Y-114449590D01*
X109652114Y-114449590D02*
X109604495Y-114497209D01*
X109604495Y-114497209D02*
X109509257Y-114544828D01*
X109509257Y-114544828D02*
X109128305Y-114544828D01*
X110652114Y-115021019D02*
X110080686Y-115021019D01*
X110366400Y-115021019D02*
X110366400Y-114021019D01*
X110366400Y-114021019D02*
X110271162Y-114163876D01*
X110271162Y-114163876D02*
X110175924Y-114259114D01*
X110175924Y-114259114D02*
X110080686Y-114306733D01*
X193147961Y-61150457D02*
X193052723Y-61102838D01*
X193052723Y-61102838D02*
X192957485Y-61007600D01*
X192957485Y-61007600D02*
X192814628Y-60864742D01*
X192814628Y-60864742D02*
X192719390Y-60817123D01*
X192719390Y-60817123D02*
X192624152Y-60817123D01*
X192671771Y-61055219D02*
X192576533Y-61007600D01*
X192576533Y-61007600D02*
X192481295Y-60912361D01*
X192481295Y-60912361D02*
X192433676Y-60721885D01*
X192433676Y-60721885D02*
X192433676Y-60388552D01*
X192433676Y-60388552D02*
X192481295Y-60198076D01*
X192481295Y-60198076D02*
X192576533Y-60102838D01*
X192576533Y-60102838D02*
X192671771Y-60055219D01*
X192671771Y-60055219D02*
X192862247Y-60055219D01*
X192862247Y-60055219D02*
X192957485Y-60102838D01*
X192957485Y-60102838D02*
X193052723Y-60198076D01*
X193052723Y-60198076D02*
X193100342Y-60388552D01*
X193100342Y-60388552D02*
X193100342Y-60721885D01*
X193100342Y-60721885D02*
X193052723Y-60912361D01*
X193052723Y-60912361D02*
X192957485Y-61007600D01*
X192957485Y-61007600D02*
X192862247Y-61055219D01*
X192862247Y-61055219D02*
X192671771Y-61055219D01*
X193481295Y-60150457D02*
X193528914Y-60102838D01*
X193528914Y-60102838D02*
X193624152Y-60055219D01*
X193624152Y-60055219D02*
X193862247Y-60055219D01*
X193862247Y-60055219D02*
X193957485Y-60102838D01*
X193957485Y-60102838D02*
X194005104Y-60150457D01*
X194005104Y-60150457D02*
X194052723Y-60245695D01*
X194052723Y-60245695D02*
X194052723Y-60340933D01*
X194052723Y-60340933D02*
X194005104Y-60483790D01*
X194005104Y-60483790D02*
X193433676Y-61055219D01*
X193433676Y-61055219D02*
X194052723Y-61055219D01*
X143017419Y-90420723D02*
X143731704Y-90420723D01*
X143731704Y-90420723D02*
X143874561Y-90468342D01*
X143874561Y-90468342D02*
X143969800Y-90563580D01*
X143969800Y-90563580D02*
X144017419Y-90706437D01*
X144017419Y-90706437D02*
X144017419Y-90801675D01*
X143017419Y-89468342D02*
X143017419Y-89944532D01*
X143017419Y-89944532D02*
X143493609Y-89992151D01*
X143493609Y-89992151D02*
X143445990Y-89944532D01*
X143445990Y-89944532D02*
X143398371Y-89849294D01*
X143398371Y-89849294D02*
X143398371Y-89611199D01*
X143398371Y-89611199D02*
X143445990Y-89515961D01*
X143445990Y-89515961D02*
X143493609Y-89468342D01*
X143493609Y-89468342D02*
X143588847Y-89420723D01*
X143588847Y-89420723D02*
X143826942Y-89420723D01*
X143826942Y-89420723D02*
X143922180Y-89468342D01*
X143922180Y-89468342D02*
X143969800Y-89515961D01*
X143969800Y-89515961D02*
X144017419Y-89611199D01*
X144017419Y-89611199D02*
X144017419Y-89849294D01*
X144017419Y-89849294D02*
X143969800Y-89944532D01*
X143969800Y-89944532D02*
X143922180Y-89992151D01*
X144017419Y-88944532D02*
X144017419Y-88754056D01*
X144017419Y-88754056D02*
X143969800Y-88658818D01*
X143969800Y-88658818D02*
X143922180Y-88611199D01*
X143922180Y-88611199D02*
X143779323Y-88515961D01*
X143779323Y-88515961D02*
X143588847Y-88468342D01*
X143588847Y-88468342D02*
X143207895Y-88468342D01*
X143207895Y-88468342D02*
X143112657Y-88515961D01*
X143112657Y-88515961D02*
X143065038Y-88563580D01*
X143065038Y-88563580D02*
X143017419Y-88658818D01*
X143017419Y-88658818D02*
X143017419Y-88849294D01*
X143017419Y-88849294D02*
X143065038Y-88944532D01*
X143065038Y-88944532D02*
X143112657Y-88992151D01*
X143112657Y-88992151D02*
X143207895Y-89039770D01*
X143207895Y-89039770D02*
X143445990Y-89039770D01*
X143445990Y-89039770D02*
X143541228Y-88992151D01*
X143541228Y-88992151D02*
X143588847Y-88944532D01*
X143588847Y-88944532D02*
X143636466Y-88849294D01*
X143636466Y-88849294D02*
X143636466Y-88658818D01*
X143636466Y-88658818D02*
X143588847Y-88563580D01*
X143588847Y-88563580D02*
X143541228Y-88515961D01*
X143541228Y-88515961D02*
X143445990Y-88468342D01*
X154160371Y-80302057D02*
X154065133Y-80254438D01*
X154065133Y-80254438D02*
X153969895Y-80159200D01*
X153969895Y-80159200D02*
X153827038Y-80016342D01*
X153827038Y-80016342D02*
X153731800Y-79968723D01*
X153731800Y-79968723D02*
X153636562Y-79968723D01*
X153684181Y-80206819D02*
X153588943Y-80159200D01*
X153588943Y-80159200D02*
X153493705Y-80063961D01*
X153493705Y-80063961D02*
X153446086Y-79873485D01*
X153446086Y-79873485D02*
X153446086Y-79540152D01*
X153446086Y-79540152D02*
X153493705Y-79349676D01*
X153493705Y-79349676D02*
X153588943Y-79254438D01*
X153588943Y-79254438D02*
X153684181Y-79206819D01*
X153684181Y-79206819D02*
X153874657Y-79206819D01*
X153874657Y-79206819D02*
X153969895Y-79254438D01*
X153969895Y-79254438D02*
X154065133Y-79349676D01*
X154065133Y-79349676D02*
X154112752Y-79540152D01*
X154112752Y-79540152D02*
X154112752Y-79873485D01*
X154112752Y-79873485D02*
X154065133Y-80063961D01*
X154065133Y-80063961D02*
X153969895Y-80159200D01*
X153969895Y-80159200D02*
X153874657Y-80206819D01*
X153874657Y-80206819D02*
X153684181Y-80206819D01*
X154493705Y-79302057D02*
X154541324Y-79254438D01*
X154541324Y-79254438D02*
X154636562Y-79206819D01*
X154636562Y-79206819D02*
X154874657Y-79206819D01*
X154874657Y-79206819D02*
X154969895Y-79254438D01*
X154969895Y-79254438D02*
X155017514Y-79302057D01*
X155017514Y-79302057D02*
X155065133Y-79397295D01*
X155065133Y-79397295D02*
X155065133Y-79492533D01*
X155065133Y-79492533D02*
X155017514Y-79635390D01*
X155017514Y-79635390D02*
X154446086Y-80206819D01*
X154446086Y-80206819D02*
X155065133Y-80206819D01*
X155636562Y-79635390D02*
X155541324Y-79587771D01*
X155541324Y-79587771D02*
X155493705Y-79540152D01*
X155493705Y-79540152D02*
X155446086Y-79444914D01*
X155446086Y-79444914D02*
X155446086Y-79397295D01*
X155446086Y-79397295D02*
X155493705Y-79302057D01*
X155493705Y-79302057D02*
X155541324Y-79254438D01*
X155541324Y-79254438D02*
X155636562Y-79206819D01*
X155636562Y-79206819D02*
X155827038Y-79206819D01*
X155827038Y-79206819D02*
X155922276Y-79254438D01*
X155922276Y-79254438D02*
X155969895Y-79302057D01*
X155969895Y-79302057D02*
X156017514Y-79397295D01*
X156017514Y-79397295D02*
X156017514Y-79444914D01*
X156017514Y-79444914D02*
X155969895Y-79540152D01*
X155969895Y-79540152D02*
X155922276Y-79587771D01*
X155922276Y-79587771D02*
X155827038Y-79635390D01*
X155827038Y-79635390D02*
X155636562Y-79635390D01*
X155636562Y-79635390D02*
X155541324Y-79683009D01*
X155541324Y-79683009D02*
X155493705Y-79730628D01*
X155493705Y-79730628D02*
X155446086Y-79825866D01*
X155446086Y-79825866D02*
X155446086Y-80016342D01*
X155446086Y-80016342D02*
X155493705Y-80111580D01*
X155493705Y-80111580D02*
X155541324Y-80159200D01*
X155541324Y-80159200D02*
X155636562Y-80206819D01*
X155636562Y-80206819D02*
X155827038Y-80206819D01*
X155827038Y-80206819D02*
X155922276Y-80159200D01*
X155922276Y-80159200D02*
X155969895Y-80111580D01*
X155969895Y-80111580D02*
X156017514Y-80016342D01*
X156017514Y-80016342D02*
X156017514Y-79825866D01*
X156017514Y-79825866D02*
X155969895Y-79730628D01*
X155969895Y-79730628D02*
X155922276Y-79683009D01*
X155922276Y-79683009D02*
X155827038Y-79635390D01*
X171183371Y-53784457D02*
X171088133Y-53736838D01*
X171088133Y-53736838D02*
X170992895Y-53641600D01*
X170992895Y-53641600D02*
X170850038Y-53498742D01*
X170850038Y-53498742D02*
X170754800Y-53451123D01*
X170754800Y-53451123D02*
X170659562Y-53451123D01*
X170707181Y-53689219D02*
X170611943Y-53641600D01*
X170611943Y-53641600D02*
X170516705Y-53546361D01*
X170516705Y-53546361D02*
X170469086Y-53355885D01*
X170469086Y-53355885D02*
X170469086Y-53022552D01*
X170469086Y-53022552D02*
X170516705Y-52832076D01*
X170516705Y-52832076D02*
X170611943Y-52736838D01*
X170611943Y-52736838D02*
X170707181Y-52689219D01*
X170707181Y-52689219D02*
X170897657Y-52689219D01*
X170897657Y-52689219D02*
X170992895Y-52736838D01*
X170992895Y-52736838D02*
X171088133Y-52832076D01*
X171088133Y-52832076D02*
X171135752Y-53022552D01*
X171135752Y-53022552D02*
X171135752Y-53355885D01*
X171135752Y-53355885D02*
X171088133Y-53546361D01*
X171088133Y-53546361D02*
X170992895Y-53641600D01*
X170992895Y-53641600D02*
X170897657Y-53689219D01*
X170897657Y-53689219D02*
X170707181Y-53689219D01*
X171992895Y-53022552D02*
X171992895Y-53689219D01*
X171754800Y-52641600D02*
X171516705Y-53355885D01*
X171516705Y-53355885D02*
X172135752Y-53355885D01*
X173040514Y-53689219D02*
X172469086Y-53689219D01*
X172754800Y-53689219D02*
X172754800Y-52689219D01*
X172754800Y-52689219D02*
X172659562Y-52832076D01*
X172659562Y-52832076D02*
X172564324Y-52927314D01*
X172564324Y-52927314D02*
X172469086Y-52974933D01*
X131046371Y-93103657D02*
X130951133Y-93056038D01*
X130951133Y-93056038D02*
X130855895Y-92960800D01*
X130855895Y-92960800D02*
X130713038Y-92817942D01*
X130713038Y-92817942D02*
X130617800Y-92770323D01*
X130617800Y-92770323D02*
X130522562Y-92770323D01*
X130570181Y-93008419D02*
X130474943Y-92960800D01*
X130474943Y-92960800D02*
X130379705Y-92865561D01*
X130379705Y-92865561D02*
X130332086Y-92675085D01*
X130332086Y-92675085D02*
X130332086Y-92341752D01*
X130332086Y-92341752D02*
X130379705Y-92151276D01*
X130379705Y-92151276D02*
X130474943Y-92056038D01*
X130474943Y-92056038D02*
X130570181Y-92008419D01*
X130570181Y-92008419D02*
X130760657Y-92008419D01*
X130760657Y-92008419D02*
X130855895Y-92056038D01*
X130855895Y-92056038D02*
X130951133Y-92151276D01*
X130951133Y-92151276D02*
X130998752Y-92341752D01*
X130998752Y-92341752D02*
X130998752Y-92675085D01*
X130998752Y-92675085D02*
X130951133Y-92865561D01*
X130951133Y-92865561D02*
X130855895Y-92960800D01*
X130855895Y-92960800D02*
X130760657Y-93008419D01*
X130760657Y-93008419D02*
X130570181Y-93008419D01*
X131951133Y-93008419D02*
X131379705Y-93008419D01*
X131665419Y-93008419D02*
X131665419Y-92008419D01*
X131665419Y-92008419D02*
X131570181Y-92151276D01*
X131570181Y-92151276D02*
X131474943Y-92246514D01*
X131474943Y-92246514D02*
X131379705Y-92294133D01*
X132332086Y-92103657D02*
X132379705Y-92056038D01*
X132379705Y-92056038D02*
X132474943Y-92008419D01*
X132474943Y-92008419D02*
X132713038Y-92008419D01*
X132713038Y-92008419D02*
X132808276Y-92056038D01*
X132808276Y-92056038D02*
X132855895Y-92103657D01*
X132855895Y-92103657D02*
X132903514Y-92198895D01*
X132903514Y-92198895D02*
X132903514Y-92294133D01*
X132903514Y-92294133D02*
X132855895Y-92436990D01*
X132855895Y-92436990D02*
X132284467Y-93008419D01*
X132284467Y-93008419D02*
X132903514Y-93008419D01*
X154058771Y-67144857D02*
X153963533Y-67097238D01*
X153963533Y-67097238D02*
X153868295Y-67002000D01*
X153868295Y-67002000D02*
X153725438Y-66859142D01*
X153725438Y-66859142D02*
X153630200Y-66811523D01*
X153630200Y-66811523D02*
X153534962Y-66811523D01*
X153582581Y-67049619D02*
X153487343Y-67002000D01*
X153487343Y-67002000D02*
X153392105Y-66906761D01*
X153392105Y-66906761D02*
X153344486Y-66716285D01*
X153344486Y-66716285D02*
X153344486Y-66382952D01*
X153344486Y-66382952D02*
X153392105Y-66192476D01*
X153392105Y-66192476D02*
X153487343Y-66097238D01*
X153487343Y-66097238D02*
X153582581Y-66049619D01*
X153582581Y-66049619D02*
X153773057Y-66049619D01*
X153773057Y-66049619D02*
X153868295Y-66097238D01*
X153868295Y-66097238D02*
X153963533Y-66192476D01*
X153963533Y-66192476D02*
X154011152Y-66382952D01*
X154011152Y-66382952D02*
X154011152Y-66716285D01*
X154011152Y-66716285D02*
X153963533Y-66906761D01*
X153963533Y-66906761D02*
X153868295Y-67002000D01*
X153868295Y-67002000D02*
X153773057Y-67049619D01*
X153773057Y-67049619D02*
X153582581Y-67049619D01*
X154392105Y-66144857D02*
X154439724Y-66097238D01*
X154439724Y-66097238D02*
X154534962Y-66049619D01*
X154534962Y-66049619D02*
X154773057Y-66049619D01*
X154773057Y-66049619D02*
X154868295Y-66097238D01*
X154868295Y-66097238D02*
X154915914Y-66144857D01*
X154915914Y-66144857D02*
X154963533Y-66240095D01*
X154963533Y-66240095D02*
X154963533Y-66335333D01*
X154963533Y-66335333D02*
X154915914Y-66478190D01*
X154915914Y-66478190D02*
X154344486Y-67049619D01*
X154344486Y-67049619D02*
X154963533Y-67049619D01*
X155296867Y-66049619D02*
X155963533Y-66049619D01*
X155963533Y-66049619D02*
X155534962Y-67049619D01*
X143709533Y-114974819D02*
X143376200Y-114498628D01*
X143138105Y-114974819D02*
X143138105Y-113974819D01*
X143138105Y-113974819D02*
X143519057Y-113974819D01*
X143519057Y-113974819D02*
X143614295Y-114022438D01*
X143614295Y-114022438D02*
X143661914Y-114070057D01*
X143661914Y-114070057D02*
X143709533Y-114165295D01*
X143709533Y-114165295D02*
X143709533Y-114308152D01*
X143709533Y-114308152D02*
X143661914Y-114403390D01*
X143661914Y-114403390D02*
X143614295Y-114451009D01*
X143614295Y-114451009D02*
X143519057Y-114498628D01*
X143519057Y-114498628D02*
X143138105Y-114498628D01*
X144280962Y-114403390D02*
X144185724Y-114355771D01*
X144185724Y-114355771D02*
X144138105Y-114308152D01*
X144138105Y-114308152D02*
X144090486Y-114212914D01*
X144090486Y-114212914D02*
X144090486Y-114165295D01*
X144090486Y-114165295D02*
X144138105Y-114070057D01*
X144138105Y-114070057D02*
X144185724Y-114022438D01*
X144185724Y-114022438D02*
X144280962Y-113974819D01*
X144280962Y-113974819D02*
X144471438Y-113974819D01*
X144471438Y-113974819D02*
X144566676Y-114022438D01*
X144566676Y-114022438D02*
X144614295Y-114070057D01*
X144614295Y-114070057D02*
X144661914Y-114165295D01*
X144661914Y-114165295D02*
X144661914Y-114212914D01*
X144661914Y-114212914D02*
X144614295Y-114308152D01*
X144614295Y-114308152D02*
X144566676Y-114355771D01*
X144566676Y-114355771D02*
X144471438Y-114403390D01*
X144471438Y-114403390D02*
X144280962Y-114403390D01*
X144280962Y-114403390D02*
X144185724Y-114451009D01*
X144185724Y-114451009D02*
X144138105Y-114498628D01*
X144138105Y-114498628D02*
X144090486Y-114593866D01*
X144090486Y-114593866D02*
X144090486Y-114784342D01*
X144090486Y-114784342D02*
X144138105Y-114879580D01*
X144138105Y-114879580D02*
X144185724Y-114927200D01*
X144185724Y-114927200D02*
X144280962Y-114974819D01*
X144280962Y-114974819D02*
X144471438Y-114974819D01*
X144471438Y-114974819D02*
X144566676Y-114927200D01*
X144566676Y-114927200D02*
X144614295Y-114879580D01*
X144614295Y-114879580D02*
X144661914Y-114784342D01*
X144661914Y-114784342D02*
X144661914Y-114593866D01*
X144661914Y-114593866D02*
X144614295Y-114498628D01*
X144614295Y-114498628D02*
X144566676Y-114451009D01*
X144566676Y-114451009D02*
X144471438Y-114403390D01*
X154114571Y-53784457D02*
X154019333Y-53736838D01*
X154019333Y-53736838D02*
X153924095Y-53641600D01*
X153924095Y-53641600D02*
X153781238Y-53498742D01*
X153781238Y-53498742D02*
X153686000Y-53451123D01*
X153686000Y-53451123D02*
X153590762Y-53451123D01*
X153638381Y-53689219D02*
X153543143Y-53641600D01*
X153543143Y-53641600D02*
X153447905Y-53546361D01*
X153447905Y-53546361D02*
X153400286Y-53355885D01*
X153400286Y-53355885D02*
X153400286Y-53022552D01*
X153400286Y-53022552D02*
X153447905Y-52832076D01*
X153447905Y-52832076D02*
X153543143Y-52736838D01*
X153543143Y-52736838D02*
X153638381Y-52689219D01*
X153638381Y-52689219D02*
X153828857Y-52689219D01*
X153828857Y-52689219D02*
X153924095Y-52736838D01*
X153924095Y-52736838D02*
X154019333Y-52832076D01*
X154019333Y-52832076D02*
X154066952Y-53022552D01*
X154066952Y-53022552D02*
X154066952Y-53355885D01*
X154066952Y-53355885D02*
X154019333Y-53546361D01*
X154019333Y-53546361D02*
X153924095Y-53641600D01*
X153924095Y-53641600D02*
X153828857Y-53689219D01*
X153828857Y-53689219D02*
X153638381Y-53689219D01*
X154447905Y-52784457D02*
X154495524Y-52736838D01*
X154495524Y-52736838D02*
X154590762Y-52689219D01*
X154590762Y-52689219D02*
X154828857Y-52689219D01*
X154828857Y-52689219D02*
X154924095Y-52736838D01*
X154924095Y-52736838D02*
X154971714Y-52784457D01*
X154971714Y-52784457D02*
X155019333Y-52879695D01*
X155019333Y-52879695D02*
X155019333Y-52974933D01*
X155019333Y-52974933D02*
X154971714Y-53117790D01*
X154971714Y-53117790D02*
X154400286Y-53689219D01*
X154400286Y-53689219D02*
X155019333Y-53689219D01*
X155876476Y-52689219D02*
X155686000Y-52689219D01*
X155686000Y-52689219D02*
X155590762Y-52736838D01*
X155590762Y-52736838D02*
X155543143Y-52784457D01*
X155543143Y-52784457D02*
X155447905Y-52927314D01*
X155447905Y-52927314D02*
X155400286Y-53117790D01*
X155400286Y-53117790D02*
X155400286Y-53498742D01*
X155400286Y-53498742D02*
X155447905Y-53593980D01*
X155447905Y-53593980D02*
X155495524Y-53641600D01*
X155495524Y-53641600D02*
X155590762Y-53689219D01*
X155590762Y-53689219D02*
X155781238Y-53689219D01*
X155781238Y-53689219D02*
X155876476Y-53641600D01*
X155876476Y-53641600D02*
X155924095Y-53593980D01*
X155924095Y-53593980D02*
X155971714Y-53498742D01*
X155971714Y-53498742D02*
X155971714Y-53260647D01*
X155971714Y-53260647D02*
X155924095Y-53165409D01*
X155924095Y-53165409D02*
X155876476Y-53117790D01*
X155876476Y-53117790D02*
X155781238Y-53070171D01*
X155781238Y-53070171D02*
X155590762Y-53070171D01*
X155590762Y-53070171D02*
X155495524Y-53117790D01*
X155495524Y-53117790D02*
X155447905Y-53165409D01*
X155447905Y-53165409D02*
X155400286Y-53260647D01*
X176872971Y-53784457D02*
X176777733Y-53736838D01*
X176777733Y-53736838D02*
X176682495Y-53641600D01*
X176682495Y-53641600D02*
X176539638Y-53498742D01*
X176539638Y-53498742D02*
X176444400Y-53451123D01*
X176444400Y-53451123D02*
X176349162Y-53451123D01*
X176396781Y-53689219D02*
X176301543Y-53641600D01*
X176301543Y-53641600D02*
X176206305Y-53546361D01*
X176206305Y-53546361D02*
X176158686Y-53355885D01*
X176158686Y-53355885D02*
X176158686Y-53022552D01*
X176158686Y-53022552D02*
X176206305Y-52832076D01*
X176206305Y-52832076D02*
X176301543Y-52736838D01*
X176301543Y-52736838D02*
X176396781Y-52689219D01*
X176396781Y-52689219D02*
X176587257Y-52689219D01*
X176587257Y-52689219D02*
X176682495Y-52736838D01*
X176682495Y-52736838D02*
X176777733Y-52832076D01*
X176777733Y-52832076D02*
X176825352Y-53022552D01*
X176825352Y-53022552D02*
X176825352Y-53355885D01*
X176825352Y-53355885D02*
X176777733Y-53546361D01*
X176777733Y-53546361D02*
X176682495Y-53641600D01*
X176682495Y-53641600D02*
X176587257Y-53689219D01*
X176587257Y-53689219D02*
X176396781Y-53689219D01*
X177682495Y-53022552D02*
X177682495Y-53689219D01*
X177444400Y-52641600D02*
X177206305Y-53355885D01*
X177206305Y-53355885D02*
X177825352Y-53355885D01*
X178634876Y-52689219D02*
X178444400Y-52689219D01*
X178444400Y-52689219D02*
X178349162Y-52736838D01*
X178349162Y-52736838D02*
X178301543Y-52784457D01*
X178301543Y-52784457D02*
X178206305Y-52927314D01*
X178206305Y-52927314D02*
X178158686Y-53117790D01*
X178158686Y-53117790D02*
X178158686Y-53498742D01*
X178158686Y-53498742D02*
X178206305Y-53593980D01*
X178206305Y-53593980D02*
X178253924Y-53641600D01*
X178253924Y-53641600D02*
X178349162Y-53689219D01*
X178349162Y-53689219D02*
X178539638Y-53689219D01*
X178539638Y-53689219D02*
X178634876Y-53641600D01*
X178634876Y-53641600D02*
X178682495Y-53593980D01*
X178682495Y-53593980D02*
X178730114Y-53498742D01*
X178730114Y-53498742D02*
X178730114Y-53260647D01*
X178730114Y-53260647D02*
X178682495Y-53165409D01*
X178682495Y-53165409D02*
X178634876Y-53117790D01*
X178634876Y-53117790D02*
X178539638Y-53070171D01*
X178539638Y-53070171D02*
X178349162Y-53070171D01*
X178349162Y-53070171D02*
X178253924Y-53117790D01*
X178253924Y-53117790D02*
X178206305Y-53165409D01*
X178206305Y-53165409D02*
X178158686Y-53260647D01*
X142476371Y-93103657D02*
X142381133Y-93056038D01*
X142381133Y-93056038D02*
X142285895Y-92960800D01*
X142285895Y-92960800D02*
X142143038Y-92817942D01*
X142143038Y-92817942D02*
X142047800Y-92770323D01*
X142047800Y-92770323D02*
X141952562Y-92770323D01*
X142000181Y-93008419D02*
X141904943Y-92960800D01*
X141904943Y-92960800D02*
X141809705Y-92865561D01*
X141809705Y-92865561D02*
X141762086Y-92675085D01*
X141762086Y-92675085D02*
X141762086Y-92341752D01*
X141762086Y-92341752D02*
X141809705Y-92151276D01*
X141809705Y-92151276D02*
X141904943Y-92056038D01*
X141904943Y-92056038D02*
X142000181Y-92008419D01*
X142000181Y-92008419D02*
X142190657Y-92008419D01*
X142190657Y-92008419D02*
X142285895Y-92056038D01*
X142285895Y-92056038D02*
X142381133Y-92151276D01*
X142381133Y-92151276D02*
X142428752Y-92341752D01*
X142428752Y-92341752D02*
X142428752Y-92675085D01*
X142428752Y-92675085D02*
X142381133Y-92865561D01*
X142381133Y-92865561D02*
X142285895Y-92960800D01*
X142285895Y-92960800D02*
X142190657Y-93008419D01*
X142190657Y-93008419D02*
X142000181Y-93008419D01*
X143381133Y-93008419D02*
X142809705Y-93008419D01*
X143095419Y-93008419D02*
X143095419Y-92008419D01*
X143095419Y-92008419D02*
X143000181Y-92151276D01*
X143000181Y-92151276D02*
X142904943Y-92246514D01*
X142904943Y-92246514D02*
X142809705Y-92294133D01*
X143857324Y-93008419D02*
X144047800Y-93008419D01*
X144047800Y-93008419D02*
X144143038Y-92960800D01*
X144143038Y-92960800D02*
X144190657Y-92913180D01*
X144190657Y-92913180D02*
X144285895Y-92770323D01*
X144285895Y-92770323D02*
X144333514Y-92579847D01*
X144333514Y-92579847D02*
X144333514Y-92198895D01*
X144333514Y-92198895D02*
X144285895Y-92103657D01*
X144285895Y-92103657D02*
X144238276Y-92056038D01*
X144238276Y-92056038D02*
X144143038Y-92008419D01*
X144143038Y-92008419D02*
X143952562Y-92008419D01*
X143952562Y-92008419D02*
X143857324Y-92056038D01*
X143857324Y-92056038D02*
X143809705Y-92103657D01*
X143809705Y-92103657D02*
X143762086Y-92198895D01*
X143762086Y-92198895D02*
X143762086Y-92436990D01*
X143762086Y-92436990D02*
X143809705Y-92532228D01*
X143809705Y-92532228D02*
X143857324Y-92579847D01*
X143857324Y-92579847D02*
X143952562Y-92627466D01*
X143952562Y-92627466D02*
X144143038Y-92627466D01*
X144143038Y-92627466D02*
X144238276Y-92579847D01*
X144238276Y-92579847D02*
X144285895Y-92532228D01*
X144285895Y-92532228D02*
X144333514Y-92436990D01*
X113134876Y-78239619D02*
X113134876Y-78953904D01*
X113134876Y-78953904D02*
X113087257Y-79096761D01*
X113087257Y-79096761D02*
X112992019Y-79192000D01*
X112992019Y-79192000D02*
X112849162Y-79239619D01*
X112849162Y-79239619D02*
X112753924Y-79239619D01*
X114087257Y-78239619D02*
X113611067Y-78239619D01*
X113611067Y-78239619D02*
X113563448Y-78715809D01*
X113563448Y-78715809D02*
X113611067Y-78668190D01*
X113611067Y-78668190D02*
X113706305Y-78620571D01*
X113706305Y-78620571D02*
X113944400Y-78620571D01*
X113944400Y-78620571D02*
X114039638Y-78668190D01*
X114039638Y-78668190D02*
X114087257Y-78715809D01*
X114087257Y-78715809D02*
X114134876Y-78811047D01*
X114134876Y-78811047D02*
X114134876Y-79049142D01*
X114134876Y-79049142D02*
X114087257Y-79144380D01*
X114087257Y-79144380D02*
X114039638Y-79192000D01*
X114039638Y-79192000D02*
X113944400Y-79239619D01*
X113944400Y-79239619D02*
X113706305Y-79239619D01*
X113706305Y-79239619D02*
X113611067Y-79192000D01*
X113611067Y-79192000D02*
X113563448Y-79144380D01*
X114468210Y-78239619D02*
X115087257Y-78239619D01*
X115087257Y-78239619D02*
X114753924Y-78620571D01*
X114753924Y-78620571D02*
X114896781Y-78620571D01*
X114896781Y-78620571D02*
X114992019Y-78668190D01*
X114992019Y-78668190D02*
X115039638Y-78715809D01*
X115039638Y-78715809D02*
X115087257Y-78811047D01*
X115087257Y-78811047D02*
X115087257Y-79049142D01*
X115087257Y-79049142D02*
X115039638Y-79144380D01*
X115039638Y-79144380D02*
X114992019Y-79192000D01*
X114992019Y-79192000D02*
X114896781Y-79239619D01*
X114896781Y-79239619D02*
X114611067Y-79239619D01*
X114611067Y-79239619D02*
X114515829Y-79192000D01*
X114515829Y-79192000D02*
X114468210Y-79144380D01*
X137212161Y-67144857D02*
X137116923Y-67097238D01*
X137116923Y-67097238D02*
X137021685Y-67002000D01*
X137021685Y-67002000D02*
X136878828Y-66859142D01*
X136878828Y-66859142D02*
X136783590Y-66811523D01*
X136783590Y-66811523D02*
X136688352Y-66811523D01*
X136735971Y-67049619D02*
X136640733Y-67002000D01*
X136640733Y-67002000D02*
X136545495Y-66906761D01*
X136545495Y-66906761D02*
X136497876Y-66716285D01*
X136497876Y-66716285D02*
X136497876Y-66382952D01*
X136497876Y-66382952D02*
X136545495Y-66192476D01*
X136545495Y-66192476D02*
X136640733Y-66097238D01*
X136640733Y-66097238D02*
X136735971Y-66049619D01*
X136735971Y-66049619D02*
X136926447Y-66049619D01*
X136926447Y-66049619D02*
X137021685Y-66097238D01*
X137021685Y-66097238D02*
X137116923Y-66192476D01*
X137116923Y-66192476D02*
X137164542Y-66382952D01*
X137164542Y-66382952D02*
X137164542Y-66716285D01*
X137164542Y-66716285D02*
X137116923Y-66906761D01*
X137116923Y-66906761D02*
X137021685Y-67002000D01*
X137021685Y-67002000D02*
X136926447Y-67049619D01*
X136926447Y-67049619D02*
X136735971Y-67049619D01*
X138021685Y-66049619D02*
X137831209Y-66049619D01*
X137831209Y-66049619D02*
X137735971Y-66097238D01*
X137735971Y-66097238D02*
X137688352Y-66144857D01*
X137688352Y-66144857D02*
X137593114Y-66287714D01*
X137593114Y-66287714D02*
X137545495Y-66478190D01*
X137545495Y-66478190D02*
X137545495Y-66859142D01*
X137545495Y-66859142D02*
X137593114Y-66954380D01*
X137593114Y-66954380D02*
X137640733Y-67002000D01*
X137640733Y-67002000D02*
X137735971Y-67049619D01*
X137735971Y-67049619D02*
X137926447Y-67049619D01*
X137926447Y-67049619D02*
X138021685Y-67002000D01*
X138021685Y-67002000D02*
X138069304Y-66954380D01*
X138069304Y-66954380D02*
X138116923Y-66859142D01*
X138116923Y-66859142D02*
X138116923Y-66621047D01*
X138116923Y-66621047D02*
X138069304Y-66525809D01*
X138069304Y-66525809D02*
X138021685Y-66478190D01*
X138021685Y-66478190D02*
X137926447Y-66430571D01*
X137926447Y-66430571D02*
X137735971Y-66430571D01*
X137735971Y-66430571D02*
X137640733Y-66478190D01*
X137640733Y-66478190D02*
X137593114Y-66525809D01*
X137593114Y-66525809D02*
X137545495Y-66621047D01*
X143174819Y-120595923D02*
X143889104Y-120595923D01*
X143889104Y-120595923D02*
X144031961Y-120643542D01*
X144031961Y-120643542D02*
X144127200Y-120738780D01*
X144127200Y-120738780D02*
X144174819Y-120881637D01*
X144174819Y-120881637D02*
X144174819Y-120976875D01*
X143174819Y-119691161D02*
X143174819Y-119881637D01*
X143174819Y-119881637D02*
X143222438Y-119976875D01*
X143222438Y-119976875D02*
X143270057Y-120024494D01*
X143270057Y-120024494D02*
X143412914Y-120119732D01*
X143412914Y-120119732D02*
X143603390Y-120167351D01*
X143603390Y-120167351D02*
X143984342Y-120167351D01*
X143984342Y-120167351D02*
X144079580Y-120119732D01*
X144079580Y-120119732D02*
X144127200Y-120072113D01*
X144127200Y-120072113D02*
X144174819Y-119976875D01*
X144174819Y-119976875D02*
X144174819Y-119786399D01*
X144174819Y-119786399D02*
X144127200Y-119691161D01*
X144127200Y-119691161D02*
X144079580Y-119643542D01*
X144079580Y-119643542D02*
X143984342Y-119595923D01*
X143984342Y-119595923D02*
X143746247Y-119595923D01*
X143746247Y-119595923D02*
X143651009Y-119643542D01*
X143651009Y-119643542D02*
X143603390Y-119691161D01*
X143603390Y-119691161D02*
X143555771Y-119786399D01*
X143555771Y-119786399D02*
X143555771Y-119976875D01*
X143555771Y-119976875D02*
X143603390Y-120072113D01*
X143603390Y-120072113D02*
X143651009Y-120119732D01*
X143651009Y-120119732D02*
X143746247Y-120167351D01*
X144174819Y-118643542D02*
X144174819Y-119214970D01*
X144174819Y-118929256D02*
X143174819Y-118929256D01*
X143174819Y-118929256D02*
X143317676Y-119024494D01*
X143317676Y-119024494D02*
X143412914Y-119119732D01*
X143412914Y-119119732D02*
X143460533Y-119214970D01*
X131476761Y-53780057D02*
X131381523Y-53732438D01*
X131381523Y-53732438D02*
X131286285Y-53637200D01*
X131286285Y-53637200D02*
X131143428Y-53494342D01*
X131143428Y-53494342D02*
X131048190Y-53446723D01*
X131048190Y-53446723D02*
X130952952Y-53446723D01*
X131000571Y-53684819D02*
X130905333Y-53637200D01*
X130905333Y-53637200D02*
X130810095Y-53541961D01*
X130810095Y-53541961D02*
X130762476Y-53351485D01*
X130762476Y-53351485D02*
X130762476Y-53018152D01*
X130762476Y-53018152D02*
X130810095Y-52827676D01*
X130810095Y-52827676D02*
X130905333Y-52732438D01*
X130905333Y-52732438D02*
X131000571Y-52684819D01*
X131000571Y-52684819D02*
X131191047Y-52684819D01*
X131191047Y-52684819D02*
X131286285Y-52732438D01*
X131286285Y-52732438D02*
X131381523Y-52827676D01*
X131381523Y-52827676D02*
X131429142Y-53018152D01*
X131429142Y-53018152D02*
X131429142Y-53351485D01*
X131429142Y-53351485D02*
X131381523Y-53541961D01*
X131381523Y-53541961D02*
X131286285Y-53637200D01*
X131286285Y-53637200D02*
X131191047Y-53684819D01*
X131191047Y-53684819D02*
X131000571Y-53684819D01*
X131762476Y-52684819D02*
X132381523Y-52684819D01*
X132381523Y-52684819D02*
X132048190Y-53065771D01*
X132048190Y-53065771D02*
X132191047Y-53065771D01*
X132191047Y-53065771D02*
X132286285Y-53113390D01*
X132286285Y-53113390D02*
X132333904Y-53161009D01*
X132333904Y-53161009D02*
X132381523Y-53256247D01*
X132381523Y-53256247D02*
X132381523Y-53494342D01*
X132381523Y-53494342D02*
X132333904Y-53589580D01*
X132333904Y-53589580D02*
X132286285Y-53637200D01*
X132286285Y-53637200D02*
X132191047Y-53684819D01*
X132191047Y-53684819D02*
X131905333Y-53684819D01*
X131905333Y-53684819D02*
X131810095Y-53637200D01*
X131810095Y-53637200D02*
X131762476Y-53589580D01*
X159804171Y-53784457D02*
X159708933Y-53736838D01*
X159708933Y-53736838D02*
X159613695Y-53641600D01*
X159613695Y-53641600D02*
X159470838Y-53498742D01*
X159470838Y-53498742D02*
X159375600Y-53451123D01*
X159375600Y-53451123D02*
X159280362Y-53451123D01*
X159327981Y-53689219D02*
X159232743Y-53641600D01*
X159232743Y-53641600D02*
X159137505Y-53546361D01*
X159137505Y-53546361D02*
X159089886Y-53355885D01*
X159089886Y-53355885D02*
X159089886Y-53022552D01*
X159089886Y-53022552D02*
X159137505Y-52832076D01*
X159137505Y-52832076D02*
X159232743Y-52736838D01*
X159232743Y-52736838D02*
X159327981Y-52689219D01*
X159327981Y-52689219D02*
X159518457Y-52689219D01*
X159518457Y-52689219D02*
X159613695Y-52736838D01*
X159613695Y-52736838D02*
X159708933Y-52832076D01*
X159708933Y-52832076D02*
X159756552Y-53022552D01*
X159756552Y-53022552D02*
X159756552Y-53355885D01*
X159756552Y-53355885D02*
X159708933Y-53546361D01*
X159708933Y-53546361D02*
X159613695Y-53641600D01*
X159613695Y-53641600D02*
X159518457Y-53689219D01*
X159518457Y-53689219D02*
X159327981Y-53689219D01*
X160089886Y-52689219D02*
X160708933Y-52689219D01*
X160708933Y-52689219D02*
X160375600Y-53070171D01*
X160375600Y-53070171D02*
X160518457Y-53070171D01*
X160518457Y-53070171D02*
X160613695Y-53117790D01*
X160613695Y-53117790D02*
X160661314Y-53165409D01*
X160661314Y-53165409D02*
X160708933Y-53260647D01*
X160708933Y-53260647D02*
X160708933Y-53498742D01*
X160708933Y-53498742D02*
X160661314Y-53593980D01*
X160661314Y-53593980D02*
X160613695Y-53641600D01*
X160613695Y-53641600D02*
X160518457Y-53689219D01*
X160518457Y-53689219D02*
X160232743Y-53689219D01*
X160232743Y-53689219D02*
X160137505Y-53641600D01*
X160137505Y-53641600D02*
X160089886Y-53593980D01*
X161661314Y-53689219D02*
X161089886Y-53689219D01*
X161375600Y-53689219D02*
X161375600Y-52689219D01*
X161375600Y-52689219D02*
X161280362Y-52832076D01*
X161280362Y-52832076D02*
X161185124Y-52927314D01*
X161185124Y-52927314D02*
X161089886Y-52974933D01*
X194107733Y-89371619D02*
X193774400Y-88895428D01*
X193536305Y-89371619D02*
X193536305Y-88371619D01*
X193536305Y-88371619D02*
X193917257Y-88371619D01*
X193917257Y-88371619D02*
X194012495Y-88419238D01*
X194012495Y-88419238D02*
X194060114Y-88466857D01*
X194060114Y-88466857D02*
X194107733Y-88562095D01*
X194107733Y-88562095D02*
X194107733Y-88704952D01*
X194107733Y-88704952D02*
X194060114Y-88800190D01*
X194060114Y-88800190D02*
X194012495Y-88847809D01*
X194012495Y-88847809D02*
X193917257Y-88895428D01*
X193917257Y-88895428D02*
X193536305Y-88895428D01*
X194441067Y-88371619D02*
X195107733Y-88371619D01*
X195107733Y-88371619D02*
X194679162Y-89371619D01*
X113134876Y-90639619D02*
X113134876Y-91353904D01*
X113134876Y-91353904D02*
X113087257Y-91496761D01*
X113087257Y-91496761D02*
X112992019Y-91592000D01*
X112992019Y-91592000D02*
X112849162Y-91639619D01*
X112849162Y-91639619D02*
X112753924Y-91639619D01*
X114087257Y-90639619D02*
X113611067Y-90639619D01*
X113611067Y-90639619D02*
X113563448Y-91115809D01*
X113563448Y-91115809D02*
X113611067Y-91068190D01*
X113611067Y-91068190D02*
X113706305Y-91020571D01*
X113706305Y-91020571D02*
X113944400Y-91020571D01*
X113944400Y-91020571D02*
X114039638Y-91068190D01*
X114039638Y-91068190D02*
X114087257Y-91115809D01*
X114087257Y-91115809D02*
X114134876Y-91211047D01*
X114134876Y-91211047D02*
X114134876Y-91449142D01*
X114134876Y-91449142D02*
X114087257Y-91544380D01*
X114087257Y-91544380D02*
X114039638Y-91592000D01*
X114039638Y-91592000D02*
X113944400Y-91639619D01*
X113944400Y-91639619D02*
X113706305Y-91639619D01*
X113706305Y-91639619D02*
X113611067Y-91592000D01*
X113611067Y-91592000D02*
X113563448Y-91544380D01*
X114992019Y-90972952D02*
X114992019Y-91639619D01*
X114753924Y-90592000D02*
X114515829Y-91306285D01*
X114515829Y-91306285D02*
X115134876Y-91306285D01*
X177076171Y-106667257D02*
X176980933Y-106619638D01*
X176980933Y-106619638D02*
X176885695Y-106524400D01*
X176885695Y-106524400D02*
X176742838Y-106381542D01*
X176742838Y-106381542D02*
X176647600Y-106333923D01*
X176647600Y-106333923D02*
X176552362Y-106333923D01*
X176599981Y-106572019D02*
X176504743Y-106524400D01*
X176504743Y-106524400D02*
X176409505Y-106429161D01*
X176409505Y-106429161D02*
X176361886Y-106238685D01*
X176361886Y-106238685D02*
X176361886Y-105905352D01*
X176361886Y-105905352D02*
X176409505Y-105714876D01*
X176409505Y-105714876D02*
X176504743Y-105619638D01*
X176504743Y-105619638D02*
X176599981Y-105572019D01*
X176599981Y-105572019D02*
X176790457Y-105572019D01*
X176790457Y-105572019D02*
X176885695Y-105619638D01*
X176885695Y-105619638D02*
X176980933Y-105714876D01*
X176980933Y-105714876D02*
X177028552Y-105905352D01*
X177028552Y-105905352D02*
X177028552Y-106238685D01*
X177028552Y-106238685D02*
X176980933Y-106429161D01*
X176980933Y-106429161D02*
X176885695Y-106524400D01*
X176885695Y-106524400D02*
X176790457Y-106572019D01*
X176790457Y-106572019D02*
X176599981Y-106572019D01*
X177933314Y-105572019D02*
X177457124Y-105572019D01*
X177457124Y-105572019D02*
X177409505Y-106048209D01*
X177409505Y-106048209D02*
X177457124Y-106000590D01*
X177457124Y-106000590D02*
X177552362Y-105952971D01*
X177552362Y-105952971D02*
X177790457Y-105952971D01*
X177790457Y-105952971D02*
X177885695Y-106000590D01*
X177885695Y-106000590D02*
X177933314Y-106048209D01*
X177933314Y-106048209D02*
X177980933Y-106143447D01*
X177980933Y-106143447D02*
X177980933Y-106381542D01*
X177980933Y-106381542D02*
X177933314Y-106476780D01*
X177933314Y-106476780D02*
X177885695Y-106524400D01*
X177885695Y-106524400D02*
X177790457Y-106572019D01*
X177790457Y-106572019D02*
X177552362Y-106572019D01*
X177552362Y-106572019D02*
X177457124Y-106524400D01*
X177457124Y-106524400D02*
X177409505Y-106476780D01*
X178599981Y-105572019D02*
X178695219Y-105572019D01*
X178695219Y-105572019D02*
X178790457Y-105619638D01*
X178790457Y-105619638D02*
X178838076Y-105667257D01*
X178838076Y-105667257D02*
X178885695Y-105762495D01*
X178885695Y-105762495D02*
X178933314Y-105952971D01*
X178933314Y-105952971D02*
X178933314Y-106191066D01*
X178933314Y-106191066D02*
X178885695Y-106381542D01*
X178885695Y-106381542D02*
X178838076Y-106476780D01*
X178838076Y-106476780D02*
X178790457Y-106524400D01*
X178790457Y-106524400D02*
X178695219Y-106572019D01*
X178695219Y-106572019D02*
X178599981Y-106572019D01*
X178599981Y-106572019D02*
X178504743Y-106524400D01*
X178504743Y-106524400D02*
X178457124Y-106476780D01*
X178457124Y-106476780D02*
X178409505Y-106381542D01*
X178409505Y-106381542D02*
X178361886Y-106191066D01*
X178361886Y-106191066D02*
X178361886Y-105952971D01*
X178361886Y-105952971D02*
X178409505Y-105762495D01*
X178409505Y-105762495D02*
X178457124Y-105667257D01*
X178457124Y-105667257D02*
X178504743Y-105619638D01*
X178504743Y-105619638D02*
X178599981Y-105572019D01*
X165539571Y-93103657D02*
X165444333Y-93056038D01*
X165444333Y-93056038D02*
X165349095Y-92960800D01*
X165349095Y-92960800D02*
X165206238Y-92817942D01*
X165206238Y-92817942D02*
X165111000Y-92770323D01*
X165111000Y-92770323D02*
X165015762Y-92770323D01*
X165063381Y-93008419D02*
X164968143Y-92960800D01*
X164968143Y-92960800D02*
X164872905Y-92865561D01*
X164872905Y-92865561D02*
X164825286Y-92675085D01*
X164825286Y-92675085D02*
X164825286Y-92341752D01*
X164825286Y-92341752D02*
X164872905Y-92151276D01*
X164872905Y-92151276D02*
X164968143Y-92056038D01*
X164968143Y-92056038D02*
X165063381Y-92008419D01*
X165063381Y-92008419D02*
X165253857Y-92008419D01*
X165253857Y-92008419D02*
X165349095Y-92056038D01*
X165349095Y-92056038D02*
X165444333Y-92151276D01*
X165444333Y-92151276D02*
X165491952Y-92341752D01*
X165491952Y-92341752D02*
X165491952Y-92675085D01*
X165491952Y-92675085D02*
X165444333Y-92865561D01*
X165444333Y-92865561D02*
X165349095Y-92960800D01*
X165349095Y-92960800D02*
X165253857Y-93008419D01*
X165253857Y-93008419D02*
X165063381Y-93008419D01*
X165825286Y-92008419D02*
X166444333Y-92008419D01*
X166444333Y-92008419D02*
X166111000Y-92389371D01*
X166111000Y-92389371D02*
X166253857Y-92389371D01*
X166253857Y-92389371D02*
X166349095Y-92436990D01*
X166349095Y-92436990D02*
X166396714Y-92484609D01*
X166396714Y-92484609D02*
X166444333Y-92579847D01*
X166444333Y-92579847D02*
X166444333Y-92817942D01*
X166444333Y-92817942D02*
X166396714Y-92913180D01*
X166396714Y-92913180D02*
X166349095Y-92960800D01*
X166349095Y-92960800D02*
X166253857Y-93008419D01*
X166253857Y-93008419D02*
X165968143Y-93008419D01*
X165968143Y-93008419D02*
X165872905Y-92960800D01*
X165872905Y-92960800D02*
X165825286Y-92913180D01*
X166920524Y-93008419D02*
X167111000Y-93008419D01*
X167111000Y-93008419D02*
X167206238Y-92960800D01*
X167206238Y-92960800D02*
X167253857Y-92913180D01*
X167253857Y-92913180D02*
X167349095Y-92770323D01*
X167349095Y-92770323D02*
X167396714Y-92579847D01*
X167396714Y-92579847D02*
X167396714Y-92198895D01*
X167396714Y-92198895D02*
X167349095Y-92103657D01*
X167349095Y-92103657D02*
X167301476Y-92056038D01*
X167301476Y-92056038D02*
X167206238Y-92008419D01*
X167206238Y-92008419D02*
X167015762Y-92008419D01*
X167015762Y-92008419D02*
X166920524Y-92056038D01*
X166920524Y-92056038D02*
X166872905Y-92103657D01*
X166872905Y-92103657D02*
X166825286Y-92198895D01*
X166825286Y-92198895D02*
X166825286Y-92436990D01*
X166825286Y-92436990D02*
X166872905Y-92532228D01*
X166872905Y-92532228D02*
X166920524Y-92579847D01*
X166920524Y-92579847D02*
X167015762Y-92627466D01*
X167015762Y-92627466D02*
X167206238Y-92627466D01*
X167206238Y-92627466D02*
X167301476Y-92579847D01*
X167301476Y-92579847D02*
X167349095Y-92532228D01*
X167349095Y-92532228D02*
X167396714Y-92436990D01*
X141803219Y-64106323D02*
X142517504Y-64106323D01*
X142517504Y-64106323D02*
X142660361Y-64153942D01*
X142660361Y-64153942D02*
X142755600Y-64249180D01*
X142755600Y-64249180D02*
X142803219Y-64392037D01*
X142803219Y-64392037D02*
X142803219Y-64487275D01*
X141803219Y-63153942D02*
X141803219Y-63630132D01*
X141803219Y-63630132D02*
X142279409Y-63677751D01*
X142279409Y-63677751D02*
X142231790Y-63630132D01*
X142231790Y-63630132D02*
X142184171Y-63534894D01*
X142184171Y-63534894D02*
X142184171Y-63296799D01*
X142184171Y-63296799D02*
X142231790Y-63201561D01*
X142231790Y-63201561D02*
X142279409Y-63153942D01*
X142279409Y-63153942D02*
X142374647Y-63106323D01*
X142374647Y-63106323D02*
X142612742Y-63106323D01*
X142612742Y-63106323D02*
X142707980Y-63153942D01*
X142707980Y-63153942D02*
X142755600Y-63201561D01*
X142755600Y-63201561D02*
X142803219Y-63296799D01*
X142803219Y-63296799D02*
X142803219Y-63534894D01*
X142803219Y-63534894D02*
X142755600Y-63630132D01*
X142755600Y-63630132D02*
X142707980Y-63677751D01*
X141803219Y-62772989D02*
X141803219Y-62106323D01*
X141803219Y-62106323D02*
X142803219Y-62534894D01*
X113134876Y-52539619D02*
X113134876Y-53253904D01*
X113134876Y-53253904D02*
X113087257Y-53396761D01*
X113087257Y-53396761D02*
X112992019Y-53492000D01*
X112992019Y-53492000D02*
X112849162Y-53539619D01*
X112849162Y-53539619D02*
X112753924Y-53539619D01*
X114087257Y-52539619D02*
X113611067Y-52539619D01*
X113611067Y-52539619D02*
X113563448Y-53015809D01*
X113563448Y-53015809D02*
X113611067Y-52968190D01*
X113611067Y-52968190D02*
X113706305Y-52920571D01*
X113706305Y-52920571D02*
X113944400Y-52920571D01*
X113944400Y-52920571D02*
X114039638Y-52968190D01*
X114039638Y-52968190D02*
X114087257Y-53015809D01*
X114087257Y-53015809D02*
X114134876Y-53111047D01*
X114134876Y-53111047D02*
X114134876Y-53349142D01*
X114134876Y-53349142D02*
X114087257Y-53444380D01*
X114087257Y-53444380D02*
X114039638Y-53492000D01*
X114039638Y-53492000D02*
X113944400Y-53539619D01*
X113944400Y-53539619D02*
X113706305Y-53539619D01*
X113706305Y-53539619D02*
X113611067Y-53492000D01*
X113611067Y-53492000D02*
X113563448Y-53444380D01*
X115087257Y-53539619D02*
X114515829Y-53539619D01*
X114801543Y-53539619D02*
X114801543Y-52539619D01*
X114801543Y-52539619D02*
X114706305Y-52682476D01*
X114706305Y-52682476D02*
X114611067Y-52777714D01*
X114611067Y-52777714D02*
X114515829Y-52825333D01*
X155048542Y-115025619D02*
X154715209Y-114549428D01*
X154477114Y-115025619D02*
X154477114Y-114025619D01*
X154477114Y-114025619D02*
X154858066Y-114025619D01*
X154858066Y-114025619D02*
X154953304Y-114073238D01*
X154953304Y-114073238D02*
X155000923Y-114120857D01*
X155000923Y-114120857D02*
X155048542Y-114216095D01*
X155048542Y-114216095D02*
X155048542Y-114358952D01*
X155048542Y-114358952D02*
X155000923Y-114454190D01*
X155000923Y-114454190D02*
X154953304Y-114501809D01*
X154953304Y-114501809D02*
X154858066Y-114549428D01*
X154858066Y-114549428D02*
X154477114Y-114549428D01*
X156000923Y-115025619D02*
X155429495Y-115025619D01*
X155715209Y-115025619D02*
X155715209Y-114025619D01*
X155715209Y-114025619D02*
X155619971Y-114168476D01*
X155619971Y-114168476D02*
X155524733Y-114263714D01*
X155524733Y-114263714D02*
X155429495Y-114311333D01*
X156619971Y-114025619D02*
X156715209Y-114025619D01*
X156715209Y-114025619D02*
X156810447Y-114073238D01*
X156810447Y-114073238D02*
X156858066Y-114120857D01*
X156858066Y-114120857D02*
X156905685Y-114216095D01*
X156905685Y-114216095D02*
X156953304Y-114406571D01*
X156953304Y-114406571D02*
X156953304Y-114644666D01*
X156953304Y-114644666D02*
X156905685Y-114835142D01*
X156905685Y-114835142D02*
X156858066Y-114930380D01*
X156858066Y-114930380D02*
X156810447Y-114978000D01*
X156810447Y-114978000D02*
X156715209Y-115025619D01*
X156715209Y-115025619D02*
X156619971Y-115025619D01*
X156619971Y-115025619D02*
X156524733Y-114978000D01*
X156524733Y-114978000D02*
X156477114Y-114930380D01*
X156477114Y-114930380D02*
X156429495Y-114835142D01*
X156429495Y-114835142D02*
X156381876Y-114644666D01*
X156381876Y-114644666D02*
X156381876Y-114406571D01*
X156381876Y-114406571D02*
X156429495Y-114216095D01*
X156429495Y-114216095D02*
X156477114Y-114120857D01*
X156477114Y-114120857D02*
X156524733Y-114073238D01*
X156524733Y-114073238D02*
X156619971Y-114025619D01*
X143059161Y-53784457D02*
X142963923Y-53736838D01*
X142963923Y-53736838D02*
X142868685Y-53641600D01*
X142868685Y-53641600D02*
X142725828Y-53498742D01*
X142725828Y-53498742D02*
X142630590Y-53451123D01*
X142630590Y-53451123D02*
X142535352Y-53451123D01*
X142582971Y-53689219D02*
X142487733Y-53641600D01*
X142487733Y-53641600D02*
X142392495Y-53546361D01*
X142392495Y-53546361D02*
X142344876Y-53355885D01*
X142344876Y-53355885D02*
X142344876Y-53022552D01*
X142344876Y-53022552D02*
X142392495Y-52832076D01*
X142392495Y-52832076D02*
X142487733Y-52736838D01*
X142487733Y-52736838D02*
X142582971Y-52689219D01*
X142582971Y-52689219D02*
X142773447Y-52689219D01*
X142773447Y-52689219D02*
X142868685Y-52736838D01*
X142868685Y-52736838D02*
X142963923Y-52832076D01*
X142963923Y-52832076D02*
X143011542Y-53022552D01*
X143011542Y-53022552D02*
X143011542Y-53355885D01*
X143011542Y-53355885D02*
X142963923Y-53546361D01*
X142963923Y-53546361D02*
X142868685Y-53641600D01*
X142868685Y-53641600D02*
X142773447Y-53689219D01*
X142773447Y-53689219D02*
X142582971Y-53689219D01*
X143344876Y-52689219D02*
X144011542Y-52689219D01*
X144011542Y-52689219D02*
X143582971Y-53689219D01*
X177071171Y-93103657D02*
X176975933Y-93056038D01*
X176975933Y-93056038D02*
X176880695Y-92960800D01*
X176880695Y-92960800D02*
X176737838Y-92817942D01*
X176737838Y-92817942D02*
X176642600Y-92770323D01*
X176642600Y-92770323D02*
X176547362Y-92770323D01*
X176594981Y-93008419D02*
X176499743Y-92960800D01*
X176499743Y-92960800D02*
X176404505Y-92865561D01*
X176404505Y-92865561D02*
X176356886Y-92675085D01*
X176356886Y-92675085D02*
X176356886Y-92341752D01*
X176356886Y-92341752D02*
X176404505Y-92151276D01*
X176404505Y-92151276D02*
X176499743Y-92056038D01*
X176499743Y-92056038D02*
X176594981Y-92008419D01*
X176594981Y-92008419D02*
X176785457Y-92008419D01*
X176785457Y-92008419D02*
X176880695Y-92056038D01*
X176880695Y-92056038D02*
X176975933Y-92151276D01*
X176975933Y-92151276D02*
X177023552Y-92341752D01*
X177023552Y-92341752D02*
X177023552Y-92675085D01*
X177023552Y-92675085D02*
X176975933Y-92865561D01*
X176975933Y-92865561D02*
X176880695Y-92960800D01*
X176880695Y-92960800D02*
X176785457Y-93008419D01*
X176785457Y-93008419D02*
X176594981Y-93008419D01*
X177880695Y-92341752D02*
X177880695Y-93008419D01*
X177642600Y-91960800D02*
X177404505Y-92675085D01*
X177404505Y-92675085D02*
X178023552Y-92675085D01*
X178452124Y-93008419D02*
X178642600Y-93008419D01*
X178642600Y-93008419D02*
X178737838Y-92960800D01*
X178737838Y-92960800D02*
X178785457Y-92913180D01*
X178785457Y-92913180D02*
X178880695Y-92770323D01*
X178880695Y-92770323D02*
X178928314Y-92579847D01*
X178928314Y-92579847D02*
X178928314Y-92198895D01*
X178928314Y-92198895D02*
X178880695Y-92103657D01*
X178880695Y-92103657D02*
X178833076Y-92056038D01*
X178833076Y-92056038D02*
X178737838Y-92008419D01*
X178737838Y-92008419D02*
X178547362Y-92008419D01*
X178547362Y-92008419D02*
X178452124Y-92056038D01*
X178452124Y-92056038D02*
X178404505Y-92103657D01*
X178404505Y-92103657D02*
X178356886Y-92198895D01*
X178356886Y-92198895D02*
X178356886Y-92436990D01*
X178356886Y-92436990D02*
X178404505Y-92532228D01*
X178404505Y-92532228D02*
X178452124Y-92579847D01*
X178452124Y-92579847D02*
X178547362Y-92627466D01*
X178547362Y-92627466D02*
X178737838Y-92627466D01*
X178737838Y-92627466D02*
X178833076Y-92579847D01*
X178833076Y-92579847D02*
X178880695Y-92532228D01*
X178880695Y-92532228D02*
X178928314Y-92436990D01*
D11*
%TO.C,J58*%
X143297600Y-78241200D02*
X143297600Y-76911200D01*
X144627600Y-78241200D02*
X143297600Y-78241200D01*
X145897600Y-78241200D02*
X168817600Y-78241200D01*
X145897600Y-78241200D02*
X145897600Y-75581200D01*
X168817600Y-78241200D02*
X168817600Y-75581200D01*
X145897600Y-75581200D02*
X168817600Y-75581200D01*
%TO.C,Q13*%
X135558200Y-97963600D02*
X139158200Y-97963600D01*
X137358200Y-93513600D02*
G75*
G03*
X135519722Y-97952078I0J-2600000D01*
G01*
X139196678Y-97952078D02*
G75*
G03*
X137358200Y-93513600I-1838478J1838478D01*
G01*
%TO.C,Q32*%
X158519800Y-72004800D02*
X162119800Y-72004800D01*
X160319800Y-67554800D02*
G75*
G03*
X158481322Y-71993278I0J-2600000D01*
G01*
X162158278Y-71993278D02*
G75*
G03*
X160319800Y-67554800I-1838478J1838478D01*
G01*
%TO.C,Q14*%
X191494000Y-88108400D02*
X195094000Y-88108400D01*
X193294000Y-83658400D02*
G75*
G03*
X191455522Y-88096878I0J-2600000D01*
G01*
X195132478Y-88096878D02*
G75*
G03*
X193294000Y-83658400I-1838478J1838478D01*
G01*
%TO.C,Q35*%
X158626400Y-111527200D02*
X162226400Y-111527200D01*
X160426400Y-107077200D02*
G75*
G03*
X158587922Y-111515678I0J-2600000D01*
G01*
X162264878Y-111515678D02*
G75*
G03*
X160426400Y-107077200I-1838478J1838478D01*
G01*
%TO.C,Q16*%
X135512400Y-111527200D02*
X139112400Y-111527200D01*
X137312400Y-107077200D02*
G75*
G03*
X135473922Y-111515678I0J-2600000D01*
G01*
X139150878Y-111515678D02*
G75*
G03*
X137312400Y-107077200I-1838478J1838478D01*
G01*
%TO.C,Q24*%
X147089800Y-97963600D02*
X150689800Y-97963600D01*
X148889800Y-93513600D02*
G75*
G03*
X147051322Y-97952078I0J-2600000D01*
G01*
X150728278Y-97952078D02*
G75*
G03*
X148889800Y-93513600I-1838478J1838478D01*
G01*
%TO.C,Q40*%
X164316000Y-111527200D02*
X167916000Y-111527200D01*
X166116000Y-107077200D02*
G75*
G03*
X164277522Y-111515678I0J-2600000D01*
G01*
X167954478Y-111515678D02*
G75*
G03*
X166116000Y-107077200I-1838478J1838478D01*
G01*
%TO.C,Q10*%
X135609000Y-85162000D02*
X139209000Y-85162000D01*
X137409000Y-80712000D02*
G75*
G03*
X135570522Y-85150478I0J-2600000D01*
G01*
X139247478Y-85150478D02*
G75*
G03*
X137409000Y-80712000I-1838478J1838478D01*
G01*
%TO.C,Q11*%
X191494000Y-80742400D02*
X195094000Y-80742400D01*
X193294000Y-76292400D02*
G75*
G03*
X191455522Y-80730878I0J-2600000D01*
G01*
X195132478Y-80730878D02*
G75*
G03*
X193294000Y-76292400I-1838478J1838478D01*
G01*
%TO.C,Q1*%
X191341600Y-58695200D02*
X194941600Y-58695200D01*
X193141600Y-54245200D02*
G75*
G03*
X191303122Y-58683678I0J-2600000D01*
G01*
X194980078Y-58683678D02*
G75*
G03*
X193141600Y-54245200I-1838478J1838478D01*
G01*
%TO.C,Q44*%
X170102200Y-97963600D02*
X173702200Y-97963600D01*
X171902200Y-93513600D02*
G75*
G03*
X170063722Y-97952078I0J-2600000D01*
G01*
X173740678Y-97952078D02*
G75*
G03*
X171902200Y-93513600I-1838478J1838478D01*
G01*
%TO.C,Q29*%
X152881000Y-97963600D02*
X156481000Y-97963600D01*
X154681000Y-93513600D02*
G75*
G03*
X152842522Y-97952078I0J-2600000D01*
G01*
X156519478Y-97952078D02*
G75*
G03*
X154681000Y-93513600I-1838478J1838478D01*
G01*
%TO.C,J52*%
X104784400Y-68694800D02*
X104784400Y-71194800D01*
X104784400Y-71194800D02*
X107284400Y-71194800D01*
X105084400Y-66874800D02*
X105084400Y-70894800D01*
X105084400Y-68584800D02*
X105584400Y-68584800D01*
X105084400Y-69394800D02*
X106084400Y-69394800D01*
X105084400Y-70894800D02*
X122804400Y-70894800D01*
X105584400Y-67374800D02*
X122304400Y-67374800D01*
X105584400Y-68584800D02*
X105584400Y-67374800D01*
X106084400Y-69394800D02*
X106084400Y-70894800D01*
X121804400Y-69394800D02*
X121804400Y-70894800D01*
X122304400Y-67374800D02*
X122304400Y-68584800D01*
X122304400Y-68584800D02*
X122804400Y-68584800D01*
X122804400Y-66874800D02*
X105084400Y-66874800D01*
X122804400Y-69394800D02*
X121804400Y-69394800D01*
X122804400Y-70894800D02*
X122804400Y-66874800D01*
%TO.C,Q15*%
X129772000Y-111527200D02*
X133372000Y-111527200D01*
X131572000Y-107077200D02*
G75*
G03*
X129733522Y-111515678I0J-2600000D01*
G01*
X133410478Y-111515678D02*
G75*
G03*
X131572000Y-107077200I-1838478J1838478D01*
G01*
%TO.C,Q17*%
X141247800Y-72004800D02*
X144847800Y-72004800D01*
X143047800Y-67554800D02*
G75*
G03*
X141209322Y-71993278I0J-2600000D01*
G01*
X144886278Y-71993278D02*
G75*
G03*
X143047800Y-67554800I-1838478J1838478D01*
G01*
%TO.C,Q52*%
X181430600Y-72004800D02*
X185030600Y-72004800D01*
X183230600Y-67554800D02*
G75*
G03*
X181392122Y-71993278I0J-2600000D01*
G01*
X185069078Y-71993278D02*
G75*
G03*
X183230600Y-67554800I-1838478J1838478D01*
G01*
%TO.C,Q55*%
X181537200Y-111527200D02*
X185137200Y-111527200D01*
X183337200Y-107077200D02*
G75*
G03*
X181498722Y-111515678I0J-2600000D01*
G01*
X185175678Y-111515678D02*
G75*
G03*
X183337200Y-107077200I-1838478J1838478D01*
G01*
%TO.C,Q37*%
X164260200Y-72004800D02*
X167860200Y-72004800D01*
X166060200Y-67554800D02*
G75*
G03*
X164221722Y-71993278I0J-2600000D01*
G01*
X167898678Y-71993278D02*
G75*
G03*
X166060200Y-67554800I-1838478J1838478D01*
G01*
%TO.C,J3*%
X137418000Y-125484400D02*
X137418000Y-127984400D01*
X137418000Y-127984400D02*
X139918000Y-127984400D01*
X137718000Y-123664400D02*
X137718000Y-127684400D01*
X137718000Y-125374400D02*
X138218000Y-125374400D01*
X137718000Y-126184400D02*
X138718000Y-126184400D01*
X137718000Y-127684400D02*
X177938000Y-127684400D01*
X138218000Y-124164400D02*
X177438000Y-124164400D01*
X138218000Y-125374400D02*
X138218000Y-124164400D01*
X138718000Y-126184400D02*
X138718000Y-127684400D01*
X176938000Y-126184400D02*
X176938000Y-127684400D01*
X177438000Y-124164400D02*
X177438000Y-125374400D01*
X177438000Y-125374400D02*
X177938000Y-125374400D01*
X177938000Y-123664400D02*
X137718000Y-123664400D01*
X177938000Y-126184400D02*
X176938000Y-126184400D01*
X177938000Y-127684400D02*
X177938000Y-123664400D01*
%TO.C,Q33*%
X158672200Y-85162000D02*
X162272200Y-85162000D01*
X160472200Y-80712000D02*
G75*
G03*
X158633722Y-85150478I0J-2600000D01*
G01*
X162310678Y-85150478D02*
G75*
G03*
X160472200Y-80712000I-1838478J1838478D01*
G01*
%TO.C,Q51*%
X181334000Y-58644400D02*
X184934000Y-58644400D01*
X183134000Y-54194400D02*
G75*
G03*
X181295522Y-58632878I0J-2600000D01*
G01*
X184972478Y-58632878D02*
G75*
G03*
X183134000Y-54194400I-1838478J1838478D01*
G01*
%TO.C,Q47*%
X175741000Y-72004800D02*
X179341000Y-72004800D01*
X177541000Y-67554800D02*
G75*
G03*
X175702522Y-71993278I0J-2600000D01*
G01*
X179379478Y-71993278D02*
G75*
G03*
X177541000Y-67554800I-1838478J1838478D01*
G01*
%TO.C,Q18*%
X141349400Y-85162000D02*
X144949400Y-85162000D01*
X143149400Y-80712000D02*
G75*
G03*
X141310922Y-85150478I0J-2600000D01*
G01*
X144987878Y-85150478D02*
G75*
G03*
X143149400Y-80712000I-1838478J1838478D01*
G01*
%TO.C,Q48*%
X175893400Y-85162000D02*
X179493400Y-85162000D01*
X177693400Y-80712000D02*
G75*
G03*
X175854922Y-85150478I0J-2600000D01*
G01*
X179531878Y-85150478D02*
G75*
G03*
X177693400Y-80712000I-1838478J1838478D01*
G01*
%TO.C,J60*%
X144415200Y-103895200D02*
X144415200Y-102565200D01*
X145745200Y-103895200D02*
X144415200Y-103895200D01*
X147015200Y-103895200D02*
X169935200Y-103895200D01*
X147015200Y-103895200D02*
X147015200Y-101235200D01*
X169935200Y-103895200D02*
X169935200Y-101235200D01*
X147015200Y-101235200D02*
X169935200Y-101235200D01*
%TO.C,Q34*%
X158621400Y-97963600D02*
X162221400Y-97963600D01*
X160421400Y-93513600D02*
G75*
G03*
X158582922Y-97952078I0J-2600000D01*
G01*
X162259878Y-97952078D02*
G75*
G03*
X160421400Y-93513600I-1838478J1838478D01*
G01*
%TO.C,Q21*%
X147145600Y-58644400D02*
X150745600Y-58644400D01*
X148945600Y-54194400D02*
G75*
G03*
X147107122Y-58632878I0J-2600000D01*
G01*
X150784078Y-58632878D02*
G75*
G03*
X148945600Y-54194400I-1838478J1838478D01*
G01*
%TO.C,J2*%
X117656800Y-122792000D02*
X117656800Y-125292000D01*
X117656800Y-125292000D02*
X120156800Y-125292000D01*
X117956800Y-120972000D02*
X117956800Y-124992000D01*
X117956800Y-122682000D02*
X118456800Y-122682000D01*
X117956800Y-123492000D02*
X118956800Y-123492000D01*
X117956800Y-124992000D02*
X130676800Y-124992000D01*
X118456800Y-121472000D02*
X130176800Y-121472000D01*
X118456800Y-122682000D02*
X118456800Y-121472000D01*
X118956800Y-123492000D02*
X118956800Y-124992000D01*
X129676800Y-123492000D02*
X129676800Y-124992000D01*
X130176800Y-121472000D02*
X130176800Y-122682000D01*
X130176800Y-122682000D02*
X130676800Y-122682000D01*
X130676800Y-120972000D02*
X117956800Y-120972000D01*
X130676800Y-123492000D02*
X129676800Y-123492000D01*
X130676800Y-124992000D02*
X130676800Y-120972000D01*
%TO.C,Q8*%
X191494000Y-73376400D02*
X195094000Y-73376400D01*
X193294000Y-68926400D02*
G75*
G03*
X191455522Y-73364878I0J-2600000D01*
G01*
X195132478Y-73364878D02*
G75*
G03*
X193294000Y-68926400I-1838478J1838478D01*
G01*
%TO.C,Q38*%
X164412600Y-85162000D02*
X168012600Y-85162000D01*
X166212600Y-80712000D02*
G75*
G03*
X164374122Y-85150478I0J-2600000D01*
G01*
X168051078Y-85150478D02*
G75*
G03*
X166212600Y-80712000I-1838478J1838478D01*
G01*
%TO.C,Q5*%
X135563200Y-58644400D02*
X139163200Y-58644400D01*
X137363200Y-54194400D02*
G75*
G03*
X135524722Y-58632878I0J-2600000D01*
G01*
X139201678Y-58632878D02*
G75*
G03*
X137363200Y-54194400I-1838478J1838478D01*
G01*
%TO.C,Q23*%
X147140600Y-85162000D02*
X150740600Y-85162000D01*
X148940600Y-80712000D02*
G75*
G03*
X147102122Y-85150478I0J-2600000D01*
G01*
X150779078Y-85150478D02*
G75*
G03*
X148940600Y-80712000I-1838478J1838478D01*
G01*
%TO.C,Q36*%
X164265200Y-58644400D02*
X167865200Y-58644400D01*
X166065200Y-54194400D02*
G75*
G03*
X164226722Y-58632878I0J-2600000D01*
G01*
X167903678Y-58632878D02*
G75*
G03*
X166065200Y-54194400I-1838478J1838478D01*
G01*
%TO.C,Q42*%
X170000600Y-72004800D02*
X173600600Y-72004800D01*
X171800600Y-67554800D02*
G75*
G03*
X169962122Y-71993278I0J-2600000D01*
G01*
X173639078Y-71993278D02*
G75*
G03*
X171800600Y-67554800I-1838478J1838478D01*
G01*
%TO.C,Q9*%
X129817800Y-85162000D02*
X133417800Y-85162000D01*
X131617800Y-80712000D02*
G75*
G03*
X129779322Y-85150478I0J-2600000D01*
G01*
X133456278Y-85150478D02*
G75*
G03*
X131617800Y-80712000I-1838478J1838478D01*
G01*
%TO.C,Q22*%
X147039000Y-72004800D02*
X150639000Y-72004800D01*
X148839000Y-67554800D02*
G75*
G03*
X147000522Y-71993278I0J-2600000D01*
G01*
X150677478Y-71993278D02*
G75*
G03*
X148839000Y-67554800I-1838478J1838478D01*
G01*
%TO.C,Q54*%
X181532200Y-97963600D02*
X185132200Y-97963600D01*
X183332200Y-93513600D02*
G75*
G03*
X181493722Y-97952078I0J-2600000D01*
G01*
X185170678Y-97952078D02*
G75*
G03*
X183332200Y-93513600I-1838478J1838478D01*
G01*
%TO.C,J55*%
X104784400Y-106794800D02*
X104784400Y-109294800D01*
X104784400Y-109294800D02*
X107284400Y-109294800D01*
X105084400Y-104974800D02*
X105084400Y-108994800D01*
X105084400Y-106684800D02*
X105584400Y-106684800D01*
X105084400Y-107494800D02*
X106084400Y-107494800D01*
X105084400Y-108994800D02*
X122804400Y-108994800D01*
X105584400Y-105474800D02*
X122304400Y-105474800D01*
X105584400Y-106684800D02*
X105584400Y-105474800D01*
X106084400Y-107494800D02*
X106084400Y-108994800D01*
X121804400Y-107494800D02*
X121804400Y-108994800D01*
X122304400Y-105474800D02*
X122304400Y-106684800D01*
X122304400Y-106684800D02*
X122804400Y-106684800D01*
X122804400Y-104974800D02*
X105084400Y-104974800D01*
X122804400Y-107494800D02*
X121804400Y-107494800D01*
X122804400Y-108994800D02*
X122804400Y-104974800D01*
%TO.C,Q25*%
X147094800Y-111527200D02*
X150694800Y-111527200D01*
X148894800Y-107077200D02*
G75*
G03*
X147056322Y-111515678I0J-2600000D01*
G01*
X150733278Y-111515678D02*
G75*
G03*
X148894800Y-107077200I-1838478J1838478D01*
G01*
%TO.C,Q45*%
X170107200Y-111527200D02*
X173707200Y-111527200D01*
X171907200Y-107077200D02*
G75*
G03*
X170068722Y-111515678I0J-2600000D01*
G01*
X173745678Y-111515678D02*
G75*
G03*
X171907200Y-107077200I-1838478J1838478D01*
G01*
%TO.C,Q53*%
X181583000Y-85162000D02*
X185183000Y-85162000D01*
X183383000Y-80712000D02*
G75*
G03*
X181544522Y-85150478I0J-2600000D01*
G01*
X185221478Y-85150478D02*
G75*
G03*
X183383000Y-80712000I-1838478J1838478D01*
G01*
%TO.C,Q4*%
X129716200Y-72004800D02*
X133316200Y-72004800D01*
X131516200Y-67554800D02*
G75*
G03*
X129677722Y-71993278I0J-2600000D01*
G01*
X133354678Y-71993278D02*
G75*
G03*
X131516200Y-67554800I-1838478J1838478D01*
G01*
%TO.C,Q20*%
X141202000Y-111527200D02*
X144802000Y-111527200D01*
X143002000Y-107077200D02*
G75*
G03*
X141163522Y-111515678I0J-2600000D01*
G01*
X144840478Y-111515678D02*
G75*
G03*
X143002000Y-107077200I-1838478J1838478D01*
G01*
%TO.C,Q30*%
X152886000Y-111527200D02*
X156486000Y-111527200D01*
X154686000Y-107077200D02*
G75*
G03*
X152847522Y-111515678I0J-2600000D01*
G01*
X156524478Y-111515678D02*
G75*
G03*
X154686000Y-107077200I-1838478J1838478D01*
G01*
%TO.C,Q43*%
X170153000Y-85162000D02*
X173753000Y-85162000D01*
X171953000Y-80712000D02*
G75*
G03*
X170114522Y-85150478I0J-2600000D01*
G01*
X173791478Y-85150478D02*
G75*
G03*
X171953000Y-80712000I-1838478J1838478D01*
G01*
%TO.C,P1*%
X105271400Y-118766200D02*
X105271400Y-119666200D01*
X105271400Y-122366200D02*
X105271400Y-125096200D01*
X105271400Y-125096200D02*
X114461400Y-125096200D01*
X105391400Y-115686200D02*
X114341400Y-115686200D01*
X114461400Y-118766200D02*
X114461400Y-119666200D01*
X114461400Y-122366200D02*
X114461400Y-125096200D01*
%TO.C,Q2*%
X191443200Y-66010400D02*
X195043200Y-66010400D01*
X193243200Y-61560400D02*
G75*
G03*
X191404722Y-65998878I0J-2600000D01*
G01*
X195081678Y-65998878D02*
G75*
G03*
X193243200Y-61560400I-1838478J1838478D01*
G01*
%TO.C,J59*%
X144562600Y-90941200D02*
X144562600Y-89611200D01*
X145892600Y-90941200D02*
X144562600Y-90941200D01*
X147162600Y-90941200D02*
X170082600Y-90941200D01*
X147162600Y-90941200D02*
X147162600Y-88281200D01*
X170082600Y-90941200D02*
X170082600Y-88281200D01*
X147162600Y-88281200D02*
X170082600Y-88281200D01*
%TO.C,Q28*%
X152931800Y-85162000D02*
X156531800Y-85162000D01*
X154731800Y-80712000D02*
G75*
G03*
X152893322Y-85150478I0J-2600000D01*
G01*
X156570278Y-85150478D02*
G75*
G03*
X154731800Y-80712000I-1838478J1838478D01*
G01*
%TO.C,Q41*%
X169954800Y-58644400D02*
X173554800Y-58644400D01*
X171754800Y-54194400D02*
G75*
G03*
X169916322Y-58632878I0J-2600000D01*
G01*
X173593278Y-58632878D02*
G75*
G03*
X171754800Y-54194400I-1838478J1838478D01*
G01*
%TO.C,Q12*%
X129817800Y-97963600D02*
X133417800Y-97963600D01*
X131617800Y-93513600D02*
G75*
G03*
X129779322Y-97952078I0J-2600000D01*
G01*
X133456278Y-97952078D02*
G75*
G03*
X131617800Y-93513600I-1838478J1838478D01*
G01*
%TO.C,Q27*%
X152830200Y-72004800D02*
X156430200Y-72004800D01*
X154630200Y-67554800D02*
G75*
G03*
X152791722Y-71993278I0J-2600000D01*
G01*
X156468678Y-71993278D02*
G75*
G03*
X154630200Y-67554800I-1838478J1838478D01*
G01*
%TO.C,Q26*%
X152886000Y-58644400D02*
X156486000Y-58644400D01*
X154686000Y-54194400D02*
G75*
G03*
X152847522Y-58632878I0J-2600000D01*
G01*
X156524478Y-58632878D02*
G75*
G03*
X154686000Y-54194400I-1838478J1838478D01*
G01*
%TO.C,Q46*%
X175644400Y-58644400D02*
X179244400Y-58644400D01*
X177444400Y-54194400D02*
G75*
G03*
X175605922Y-58632878I0J-2600000D01*
G01*
X179282878Y-58632878D02*
G75*
G03*
X177444400Y-54194400I-1838478J1838478D01*
G01*
%TO.C,Q19*%
X141247800Y-97963600D02*
X144847800Y-97963600D01*
X143047800Y-93513600D02*
G75*
G03*
X141209322Y-97952078I0J-2600000D01*
G01*
X144886278Y-97952078D02*
G75*
G03*
X143047800Y-93513600I-1838478J1838478D01*
G01*
%TO.C,J53*%
X104784400Y-81694800D02*
X104784400Y-84194800D01*
X104784400Y-84194800D02*
X107284400Y-84194800D01*
X105084400Y-79874800D02*
X105084400Y-83894800D01*
X105084400Y-81584800D02*
X105584400Y-81584800D01*
X105084400Y-82394800D02*
X106084400Y-82394800D01*
X105084400Y-83894800D02*
X122804400Y-83894800D01*
X105584400Y-80374800D02*
X122304400Y-80374800D01*
X105584400Y-81584800D02*
X105584400Y-80374800D01*
X106084400Y-82394800D02*
X106084400Y-83894800D01*
X121804400Y-82394800D02*
X121804400Y-83894800D01*
X122304400Y-80374800D02*
X122304400Y-81584800D01*
X122304400Y-81584800D02*
X122804400Y-81584800D01*
X122804400Y-79874800D02*
X105084400Y-79874800D01*
X122804400Y-82394800D02*
X121804400Y-82394800D01*
X122804400Y-83894800D02*
X122804400Y-79874800D01*
%TO.C,Q6*%
X135507400Y-72004800D02*
X139107400Y-72004800D01*
X137307400Y-67554800D02*
G75*
G03*
X135468922Y-71993278I0J-2600000D01*
G01*
X139145878Y-71993278D02*
G75*
G03*
X137307400Y-67554800I-1838478J1838478D01*
G01*
%TO.C,J61*%
X144720000Y-121116400D02*
X144720000Y-119786400D01*
X146050000Y-121116400D02*
X144720000Y-121116400D01*
X147320000Y-121116400D02*
X170240000Y-121116400D01*
X147320000Y-121116400D02*
X147320000Y-118456400D01*
X170240000Y-121116400D02*
X170240000Y-118456400D01*
X147320000Y-118456400D02*
X170240000Y-118456400D01*
%TO.C,Q3*%
X129772000Y-58640000D02*
X133372000Y-58640000D01*
X131572000Y-54190000D02*
G75*
G03*
X129733522Y-58628478I0J-2600000D01*
G01*
X133410478Y-58628478D02*
G75*
G03*
X131572000Y-54190000I-1838478J1838478D01*
G01*
%TO.C,Q31*%
X158575600Y-58644400D02*
X162175600Y-58644400D01*
X160375600Y-54194400D02*
G75*
G03*
X158537122Y-58632878I0J-2600000D01*
G01*
X162214078Y-58632878D02*
G75*
G03*
X160375600Y-54194400I-1838478J1838478D01*
G01*
%TO.C,J54*%
X104784400Y-94094800D02*
X104784400Y-96594800D01*
X104784400Y-96594800D02*
X107284400Y-96594800D01*
X105084400Y-92274800D02*
X105084400Y-96294800D01*
X105084400Y-93984800D02*
X105584400Y-93984800D01*
X105084400Y-94794800D02*
X106084400Y-94794800D01*
X105084400Y-96294800D02*
X122804400Y-96294800D01*
X105584400Y-92774800D02*
X122304400Y-92774800D01*
X105584400Y-93984800D02*
X105584400Y-92774800D01*
X106084400Y-94794800D02*
X106084400Y-96294800D01*
X121804400Y-94794800D02*
X121804400Y-96294800D01*
X122304400Y-92774800D02*
X122304400Y-93984800D01*
X122304400Y-93984800D02*
X122804400Y-93984800D01*
X122804400Y-92274800D02*
X105084400Y-92274800D01*
X122804400Y-94794800D02*
X121804400Y-94794800D01*
X122804400Y-96294800D02*
X122804400Y-92274800D01*
%TO.C,Q50*%
X175847600Y-111527200D02*
X179447600Y-111527200D01*
X177647600Y-107077200D02*
G75*
G03*
X175809122Y-111515678I0J-2600000D01*
G01*
X179486078Y-111515678D02*
G75*
G03*
X177647600Y-107077200I-1838478J1838478D01*
G01*
%TO.C,Q39*%
X164311000Y-97963600D02*
X167911000Y-97963600D01*
X166111000Y-93513600D02*
G75*
G03*
X164272522Y-97952078I0J-2600000D01*
G01*
X167949478Y-97952078D02*
G75*
G03*
X166111000Y-93513600I-1838478J1838478D01*
G01*
%TO.C,J57*%
X143348400Y-64626800D02*
X143348400Y-63296800D01*
X144678400Y-64626800D02*
X143348400Y-64626800D01*
X145948400Y-64626800D02*
X168868400Y-64626800D01*
X145948400Y-64626800D02*
X145948400Y-61966800D01*
X168868400Y-64626800D02*
X168868400Y-61966800D01*
X145948400Y-61966800D02*
X168868400Y-61966800D01*
%TO.C,J51*%
X104784400Y-55994800D02*
X104784400Y-58494800D01*
X104784400Y-58494800D02*
X107284400Y-58494800D01*
X105084400Y-54174800D02*
X105084400Y-58194800D01*
X105084400Y-55884800D02*
X105584400Y-55884800D01*
X105084400Y-56694800D02*
X106084400Y-56694800D01*
X105084400Y-58194800D02*
X122804400Y-58194800D01*
X105584400Y-54674800D02*
X122304400Y-54674800D01*
X105584400Y-55884800D02*
X105584400Y-54674800D01*
X106084400Y-56694800D02*
X106084400Y-58194800D01*
X121804400Y-56694800D02*
X121804400Y-58194800D01*
X122304400Y-54674800D02*
X122304400Y-55884800D01*
X122304400Y-55884800D02*
X122804400Y-55884800D01*
X122804400Y-54174800D02*
X105084400Y-54174800D01*
X122804400Y-56694800D02*
X121804400Y-56694800D01*
X122804400Y-58194800D02*
X122804400Y-54174800D01*
%TO.C,Q7*%
X141354400Y-58644400D02*
X144954400Y-58644400D01*
X143154400Y-54194400D02*
G75*
G03*
X141315922Y-58632878I0J-2600000D01*
G01*
X144992878Y-58632878D02*
G75*
G03*
X143154400Y-54194400I-1838478J1838478D01*
G01*
%TO.C,Q49*%
X175842600Y-97963600D02*
X179442600Y-97963600D01*
X177642600Y-93513600D02*
G75*
G03*
X175804122Y-97952078I0J-2600000D01*
G01*
X179481078Y-97952078D02*
G75*
G03*
X177642600Y-93513600I-1838478J1838478D01*
G01*
%TD*%
M02*
